M48
; DRILL file {KiCad 9.0.1} date 2025-04-15T12:31:11-0600
; FORMAT={-:-/ absolute / metric / decimal}
; #@! TF.CreationDate,2025-04-15T12:31:11-06:00
; #@! TF.GenerationSoftware,Kicad,Pcbnew,9.0.1
; #@! TF.FileFunction,MixedPlating,1,4
FMAT,2
METRIC
; #@! TA.AperFunction,Plated,PTH,ViaDrill
T1C0.300
; #@! TA.AperFunction,Plated,PTH,ComponentDrill
T2C0.600
; #@! TA.AperFunction,Plated,PTH,ComponentDrill
T3C1.016
; #@! TA.AperFunction,NonPlated,NPTH,ComponentDrill
T4C0.650
; #@! TA.AperFunction,NonPlated,NPTH,ComponentDrill
T5C2.300
; #@! TA.AperFunction,NonPlated,NPTH,ComponentDrill
T6C3.100
%
G90
G05
T1
X1.27Y137.707
X1.27Y96.567
X1.27Y55.427
X1.27Y14.287
X2.54Y151.042
X2.54Y109.902
X2.54Y68.763
X2.54Y27.622
X5.081Y152.312
X5.081Y111.172
X5.081Y70.032
X5.081Y28.892
X5.556Y137.549
X5.556Y96.409
X5.556Y55.269
X5.556Y14.129
X6.477Y142.851
X6.477Y101.711
X6.477Y60.571
X6.477Y19.431
X6.503Y144.063
X6.503Y102.923
X6.503Y61.783
X6.503Y20.643
X8.572Y152.312
X8.572Y147.232
X8.572Y145.963
X8.572Y141.29
X8.572Y140.248
X8.572Y111.172
X8.572Y106.093
X8.572Y104.822
X8.572Y100.15
X8.572Y99.108
X8.572Y70.032
X8.572Y64.953
X8.572Y63.682
X8.572Y59.01
X8.572Y57.967
X8.572Y28.892
X8.572Y23.812
X8.572Y22.543
X8.572Y17.87
X8.572Y16.828
X8.89Y130.722
X8.89Y89.582
X8.89Y48.442
X8.89Y7.302
X9.779Y143.867
X9.779Y137.27
X9.779Y102.727
X9.779Y96.13
X9.779Y61.587
X9.779Y54.99
X9.779Y20.447
X9.779Y13.85
X12.065Y152.947
X12.065Y111.807
X12.065Y70.667
X12.065Y29.527
X12.383Y134.85
X12.383Y93.71
X12.383Y52.57
X12.383Y11.43
X12.7Y150.09
X12.7Y148.502
X12.7Y145.645
X12.7Y138.66
X12.7Y138.025
X12.7Y108.95
X12.7Y107.362
X12.7Y104.505
X12.7Y97.52
X12.7Y96.885
X12.7Y67.81
X12.7Y66.222
X12.7Y63.365
X12.7Y56.38
X12.7Y55.745
X12.7Y26.67
X12.7Y25.082
X12.7Y22.225
X12.7Y15.24
X12.7Y14.605
X13.018Y151.36
X13.018Y110.22
X13.018Y69.08
X13.018Y27.94
X13.335Y154.104
X13.335Y143.74
X13.335Y112.964
X13.335Y102.6
X13.335Y71.824
X13.335Y61.46
X13.335Y30.684
X13.335Y20.32
X13.479Y133.085
X13.479Y91.945
X13.479Y50.805
X13.479Y9.665
X13.97Y129.77
X13.97Y88.63
X13.97Y47.49
X13.97Y6.35
X14.287Y156.757
X14.287Y115.617
X14.287Y74.477
X14.287Y33.337
X14.605Y149.455
X14.605Y147.55
X14.605Y141.835
X14.605Y136.12
X14.605Y108.315
X14.605Y106.41
X14.605Y100.695
X14.605Y94.98
X14.605Y67.175
X14.605Y65.27
X14.605Y59.555
X14.605Y53.84
X14.605Y26.035
X14.605Y24.13
X14.605Y18.415
X14.605Y12.7
X15.37Y153.9
X15.37Y112.76
X15.37Y71.62
X15.37Y30.48
X15.749Y130.279
X15.749Y89.139
X15.749Y47.999
X15.749Y6.859
X16.51Y156.757
X16.51Y150.407
X16.51Y149.455
X16.51Y139.93
X16.51Y138.025
X16.51Y115.617
X16.51Y109.267
X16.51Y108.315
X16.51Y98.79
X16.51Y96.885
X16.51Y74.477
X16.51Y68.127
X16.51Y67.175
X16.51Y57.65
X16.51Y55.745
X16.51Y33.337
X16.51Y26.987
X16.51Y26.035
X16.51Y16.51
X16.51Y14.605
X16.638Y136.063
X16.638Y94.923
X16.638Y53.783
X16.638Y12.643
X16.828Y132.945
X16.828Y91.805
X16.828Y50.665
X16.828Y9.525
X17.78Y127.865
X17.78Y86.725
X17.78Y45.585
X17.78Y4.445
X18.098Y154.218
X18.098Y138.025
X18.098Y113.078
X18.098Y96.885
X18.098Y71.938
X18.098Y55.745
X18.098Y30.797
X18.098Y14.605
X18.415Y150.407
X18.415Y149.455
X18.415Y109.267
X18.415Y108.315
X18.415Y68.127
X18.415Y67.175
X18.415Y26.987
X18.415Y26.035
X18.732Y147.232
X18.732Y106.093
X18.732Y64.953
X18.732Y23.812
X19.685Y154.218
X19.685Y140.248
X19.685Y113.078
X19.685Y99.108
X19.685Y71.938
X19.685Y57.967
X19.685Y30.797
X19.685Y16.828
X20.002Y136.12
X20.002Y94.98
X20.002Y53.84
X20.002Y12.7
X20.32Y150.407
X20.32Y149.455
X20.32Y143.74
X20.32Y126.912
X20.32Y109.267
X20.32Y108.315
X20.32Y102.6
X20.32Y85.772
X20.32Y68.127
X20.32Y67.175
X20.32Y61.46
X20.32Y44.633
X20.32Y26.987
X20.32Y26.035
X20.32Y20.32
X20.32Y3.492
X20.637Y154.218
X20.637Y113.078
X20.637Y71.938
X20.637Y30.797
X21.272Y147.232
X21.272Y140.248
X21.272Y136.12
X21.272Y106.093
X21.272Y99.108
X21.272Y94.98
X21.272Y64.953
X21.272Y57.967
X21.272Y53.84
X21.272Y23.812
X21.272Y16.828
X21.272Y12.7
X21.907Y154.218
X21.907Y113.078
X21.907Y71.938
X21.907Y30.797
X22.225Y150.407
X22.225Y149.455
X22.225Y138.025
X22.225Y136.12
X22.225Y109.267
X22.225Y108.315
X22.225Y96.885
X22.225Y94.98
X22.225Y68.127
X22.225Y67.175
X22.225Y55.745
X22.225Y53.84
X22.225Y26.987
X22.225Y26.035
X22.225Y14.605
X22.225Y12.7
X23.177Y133.58
X23.177Y92.44
X23.177Y51.3
X23.177Y10.16
X24.13Y138.025
X24.13Y96.885
X24.13Y55.745
X24.13Y14.605
X24.765Y159.297
X24.765Y133.58
X24.765Y118.157
X24.765Y92.44
X24.765Y77.017
X24.765Y51.3
X24.765Y35.877
X24.765Y10.16
X25.4Y155.475
X25.4Y114.335
X25.4Y73.195
X25.4Y32.055
X26.035Y150.407
X26.035Y149.455
X26.035Y147.55
X26.035Y145.645
X26.035Y143.74
X26.035Y141.835
X26.035Y139.93
X26.035Y138.025
X26.035Y109.267
X26.035Y108.315
X26.035Y106.41
X26.035Y104.505
X26.035Y102.6
X26.035Y100.695
X26.035Y98.79
X26.035Y96.885
X26.035Y68.127
X26.035Y67.175
X26.035Y65.27
X26.035Y63.365
X26.035Y61.46
X26.035Y59.555
X26.035Y57.65
X26.035Y55.745
X26.035Y26.987
X26.035Y26.035
X26.035Y24.13
X26.035Y22.225
X26.035Y20.32
X26.035Y18.415
X26.035Y16.51
X26.035Y14.605
X26.352Y154.218
X26.352Y133.58
X26.352Y113.078
X26.352Y92.44
X26.352Y71.938
X26.352Y51.3
X26.352Y30.797
X26.352Y10.16
X26.987Y149.772
X26.987Y133.58
X26.987Y108.632
X26.987Y92.44
X26.987Y67.492
X26.987Y51.3
X26.987Y26.352
X26.987Y10.16
X27.305Y151.36
X27.305Y110.22
X27.305Y69.08
X27.305Y27.94
X27.622Y154.218
X27.622Y113.078
X27.622Y71.938
X27.622Y30.797
X27.94Y145.327
X27.94Y143.74
X27.94Y142.153
X27.94Y139.295
X27.94Y138.025
X27.94Y127.547
X27.94Y104.188
X27.94Y102.6
X27.94Y101.012
X27.94Y98.155
X27.94Y96.885
X27.94Y86.407
X27.94Y63.047
X27.94Y61.46
X27.94Y59.872
X27.94Y57.015
X27.94Y55.745
X27.94Y45.267
X27.94Y21.907
X27.94Y20.32
X27.94Y18.732
X27.94Y15.875
X27.94Y14.605
X27.94Y4.127
X28.258Y155.805
X28.258Y126.277
X28.258Y114.665
X28.258Y85.138
X28.258Y73.525
X28.258Y43.997
X28.258Y32.385
X28.258Y2.857
X28.575Y152.947
X28.575Y111.807
X28.575Y70.667
X28.575Y29.527
X28.576Y133.898
X28.576Y92.757
X28.576Y51.617
X28.576Y10.477
X30.48Y157.392
X30.48Y116.252
X30.48Y75.112
X30.48Y33.972
X30.797Y151.042
X30.797Y149.772
X30.797Y148.69
X30.797Y146.28
X30.797Y144.692
X30.797Y143.105
X30.797Y139.612
X30.797Y137.707
X30.797Y109.902
X30.797Y108.632
X30.797Y107.55
X30.797Y105.14
X30.797Y103.552
X30.797Y101.965
X30.797Y98.472
X30.797Y96.567
X30.797Y68.763
X30.797Y67.492
X30.797Y66.41
X30.797Y64.0
X30.797Y62.412
X30.797Y60.825
X30.797Y57.332
X30.797Y55.427
X30.797Y27.622
X30.797Y26.352
X30.797Y25.27
X30.797Y22.86
X30.797Y21.272
X30.797Y19.685
X30.797Y16.192
X30.797Y14.287
X31.432Y134.215
X31.432Y93.075
X31.432Y51.935
X31.432Y10.795
X31.75Y145.327
X31.75Y137.707
X31.75Y104.188
X31.75Y96.567
X31.75Y63.047
X31.75Y55.427
X31.75Y21.907
X31.75Y14.287
X32.703Y145.963
X32.703Y144.692
X32.703Y143.105
X32.703Y104.822
X32.703Y103.552
X32.703Y101.965
X32.703Y63.682
X32.703Y62.412
X32.703Y60.825
X32.703Y22.543
X32.703Y21.272
X32.703Y19.685
X33.655Y144.692
X33.655Y141.835
X33.655Y137.707
X33.655Y103.552
X33.655Y100.695
X33.655Y96.567
X33.655Y62.412
X33.655Y59.555
X33.655Y55.427
X33.655Y21.272
X33.655Y18.415
X33.655Y14.287
X34.608Y144.692
X34.608Y142.787
X34.608Y103.552
X34.608Y101.647
X34.608Y62.412
X34.608Y60.508
X34.608Y21.272
X34.608Y19.367
X34.925Y137.39
X34.925Y96.25
X34.925Y55.11
X34.925Y13.97
X35.242Y146.28
X35.242Y141.2
X35.242Y105.14
X35.242Y100.06
X35.242Y64.0
X35.242Y58.92
X35.242Y22.86
X35.242Y17.78
X37.148Y146.28
X37.148Y141.2
X37.148Y105.14
X37.148Y100.06
X37.148Y64.0
X37.148Y58.92
X37.148Y22.86
X37.148Y17.78
X38.1Y131.993
X38.1Y90.852
X38.1Y49.712
X38.1Y8.572
X39.052Y146.28
X39.052Y141.2
X39.052Y105.14
X39.052Y100.06
X39.052Y64.0
X39.052Y58.92
X39.052Y22.86
X39.052Y17.78
X39.688Y144.692
X39.688Y142.787
X39.688Y103.552
X39.688Y101.647
X39.688Y62.412
X39.688Y60.508
X39.688Y21.272
X39.688Y19.367
X45.458Y137.707
X45.458Y96.567
X45.458Y55.427
X45.458Y14.287
X46.728Y151.042
X46.728Y109.902
X46.728Y68.763
X46.728Y27.622
X49.269Y152.312
X49.269Y111.172
X49.269Y70.032
X49.269Y28.892
X49.744Y137.549
X49.744Y96.409
X49.744Y55.269
X49.744Y14.129
X50.665Y142.851
X50.665Y101.711
X50.665Y60.571
X50.665Y19.431
X50.691Y144.063
X50.691Y102.923
X50.691Y61.783
X50.691Y20.643
X52.761Y152.312
X52.761Y147.232
X52.761Y145.963
X52.761Y141.29
X52.761Y140.248
X52.761Y111.172
X52.761Y106.093
X52.761Y104.822
X52.761Y100.15
X52.761Y99.108
X52.761Y70.032
X52.761Y64.953
X52.761Y63.682
X52.761Y59.01
X52.761Y57.967
X52.761Y28.892
X52.761Y23.812
X52.761Y22.543
X52.761Y17.87
X52.761Y16.828
X53.078Y130.722
X53.078Y89.582
X53.078Y48.442
X53.078Y7.302
X53.967Y143.867
X53.967Y137.27
X53.967Y102.727
X53.967Y96.13
X53.967Y61.587
X53.967Y54.99
X53.967Y20.447
X53.967Y13.85
X56.253Y152.947
X56.253Y111.807
X56.253Y70.667
X56.253Y29.527
X56.57Y134.85
X56.57Y93.71
X56.57Y52.57
X56.57Y11.43
X56.888Y150.09
X56.888Y148.502
X56.888Y145.645
X56.888Y138.66
X56.888Y138.025
X56.888Y108.95
X56.888Y107.362
X56.888Y104.505
X56.888Y97.52
X56.888Y96.885
X56.888Y67.81
X56.888Y66.222
X56.888Y63.365
X56.888Y56.38
X56.888Y55.745
X56.888Y26.67
X56.888Y25.082
X56.888Y22.225
X56.888Y15.24
X56.888Y14.605
X57.206Y151.36
X57.206Y110.22
X57.206Y69.08
X57.206Y27.94
X57.523Y154.104
X57.523Y143.74
X57.523Y112.964
X57.523Y102.6
X57.523Y71.824
X57.523Y61.46
X57.523Y30.684
X57.523Y20.32
X57.667Y133.085
X57.667Y91.945
X57.667Y50.805
X57.667Y9.665
X58.158Y129.77
X58.158Y88.63
X58.158Y47.49
X58.158Y6.35
X58.475Y156.757
X58.475Y115.617
X58.475Y74.477
X58.475Y33.337
X58.793Y149.455
X58.793Y147.55
X58.793Y141.835
X58.793Y136.12
X58.793Y108.315
X58.793Y106.41
X58.793Y100.695
X58.793Y94.98
X58.793Y67.175
X58.793Y65.27
X58.793Y59.555
X58.793Y53.84
X58.793Y26.035
X58.793Y24.13
X58.793Y18.415
X58.793Y12.7
X59.558Y153.9
X59.558Y112.76
X59.558Y71.62
X59.558Y30.48
X59.937Y130.279
X59.937Y89.139
X59.937Y47.999
X59.937Y6.859
X60.698Y156.757
X60.698Y150.407
X60.698Y149.455
X60.698Y139.93
X60.698Y138.025
X60.698Y115.617
X60.698Y109.267
X60.698Y108.315
X60.698Y98.79
X60.698Y96.885
X60.698Y74.477
X60.698Y68.127
X60.698Y67.175
X60.698Y57.65
X60.698Y55.745
X60.698Y33.337
X60.698Y26.987
X60.698Y26.035
X60.698Y16.51
X60.698Y14.605
X60.826Y136.063
X60.826Y94.923
X60.826Y53.783
X60.826Y12.643
X61.015Y132.945
X61.015Y91.805
X61.015Y50.665
X61.015Y9.525
X61.968Y127.865
X61.968Y86.725
X61.968Y45.585
X61.968Y4.445
X62.285Y154.218
X62.285Y138.025
X62.285Y113.078
X62.285Y96.885
X62.285Y71.938
X62.285Y55.745
X62.285Y30.797
X62.285Y14.605
X62.603Y150.407
X62.603Y149.455
X62.603Y109.267
X62.603Y108.315
X62.603Y68.127
X62.603Y67.175
X62.603Y26.987
X62.603Y26.035
X62.92Y147.232
X62.92Y106.093
X62.92Y64.953
X62.92Y23.812
X63.873Y154.218
X63.873Y140.248
X63.873Y113.078
X63.873Y99.108
X63.873Y71.938
X63.873Y57.967
X63.873Y30.797
X63.873Y16.828
X64.191Y136.12
X64.191Y94.98
X64.191Y53.84
X64.191Y12.7
X64.508Y150.407
X64.508Y149.455
X64.508Y143.74
X64.508Y126.912
X64.508Y109.267
X64.508Y108.315
X64.508Y102.6
X64.508Y85.772
X64.508Y68.127
X64.508Y67.175
X64.508Y61.46
X64.508Y44.633
X64.508Y26.987
X64.508Y26.035
X64.508Y20.32
X64.508Y3.492
X64.825Y154.218
X64.825Y113.078
X64.825Y71.938
X64.825Y30.797
X65.46Y147.232
X65.46Y140.248
X65.46Y136.12
X65.46Y106.093
X65.46Y99.108
X65.46Y94.98
X65.46Y64.953
X65.46Y57.967
X65.46Y53.84
X65.46Y23.812
X65.46Y16.828
X65.46Y12.7
X66.096Y154.218
X66.096Y113.078
X66.096Y71.938
X66.096Y30.797
X66.413Y150.407
X66.413Y149.455
X66.413Y138.025
X66.413Y136.12
X66.413Y109.267
X66.413Y108.315
X66.413Y96.885
X66.413Y94.98
X66.413Y68.127
X66.413Y67.175
X66.413Y55.745
X66.413Y53.84
X66.413Y26.987
X66.413Y26.035
X66.413Y14.605
X66.413Y12.7
X67.365Y133.58
X67.365Y92.44
X67.365Y51.3
X67.365Y10.16
X68.318Y138.025
X68.318Y96.885
X68.318Y55.745
X68.318Y14.605
X68.953Y159.297
X68.953Y133.58
X68.953Y118.157
X68.953Y92.44
X68.953Y77.017
X68.953Y51.3
X68.953Y35.877
X68.953Y10.16
X69.588Y155.475
X69.588Y114.335
X69.588Y73.195
X69.588Y32.055
X70.223Y150.407
X70.223Y149.455
X70.223Y147.55
X70.223Y145.645
X70.223Y143.74
X70.223Y141.835
X70.223Y139.93
X70.223Y138.025
X70.223Y109.267
X70.223Y108.315
X70.223Y106.41
X70.223Y104.505
X70.223Y102.6
X70.223Y100.695
X70.223Y98.79
X70.223Y96.885
X70.223Y68.127
X70.223Y67.175
X70.223Y65.27
X70.223Y63.365
X70.223Y61.46
X70.223Y59.555
X70.223Y57.65
X70.223Y55.745
X70.223Y26.987
X70.223Y26.035
X70.223Y24.13
X70.223Y22.225
X70.223Y20.32
X70.223Y18.415
X70.223Y16.51
X70.223Y14.605
X70.54Y154.218
X70.54Y133.58
X70.54Y113.078
X70.54Y92.44
X70.54Y71.938
X70.54Y51.3
X70.54Y30.797
X70.54Y10.16
X71.175Y149.772
X71.175Y133.58
X71.175Y108.632
X71.175Y92.44
X71.175Y67.492
X71.175Y51.3
X71.175Y26.352
X71.175Y10.16
X71.493Y151.36
X71.493Y110.22
X71.493Y69.08
X71.493Y27.94
X71.81Y154.218
X71.81Y113.078
X71.81Y71.938
X71.81Y30.797
X72.128Y145.327
X72.128Y143.74
X72.128Y142.153
X72.128Y139.295
X72.128Y138.025
X72.128Y127.547
X72.128Y104.188
X72.128Y102.6
X72.128Y101.012
X72.128Y98.155
X72.128Y96.885
X72.128Y86.407
X72.128Y63.047
X72.128Y61.46
X72.128Y59.872
X72.128Y57.015
X72.128Y55.745
X72.128Y45.267
X72.128Y21.907
X72.128Y20.32
X72.128Y18.732
X72.128Y15.875
X72.128Y14.605
X72.128Y4.127
X72.445Y155.805
X72.445Y126.277
X72.445Y114.665
X72.445Y85.138
X72.445Y73.525
X72.445Y43.997
X72.445Y32.385
X72.445Y2.857
X72.763Y152.947
X72.763Y111.807
X72.763Y70.667
X72.763Y29.527
X72.764Y133.898
X72.764Y92.757
X72.764Y51.617
X72.764Y10.477
X74.668Y157.392
X74.668Y116.252
X74.668Y75.112
X74.668Y33.972
X74.986Y151.042
X74.986Y149.772
X74.986Y148.69
X74.986Y146.28
X74.986Y144.692
X74.986Y143.105
X74.986Y139.612
X74.986Y137.707
X74.986Y109.902
X74.986Y108.632
X74.986Y107.55
X74.986Y105.14
X74.986Y103.552
X74.986Y101.965
X74.986Y98.472
X74.986Y96.567
X74.986Y68.763
X74.986Y67.492
X74.986Y66.41
X74.986Y64.0
X74.986Y62.412
X74.986Y60.825
X74.986Y57.332
X74.986Y55.427
X74.986Y27.622
X74.986Y26.352
X74.986Y25.27
X74.986Y22.86
X74.986Y21.272
X74.986Y19.685
X74.986Y16.192
X74.986Y14.287
X75.62Y134.215
X75.62Y93.075
X75.62Y51.935
X75.62Y10.795
X75.938Y145.327
X75.938Y137.707
X75.938Y104.188
X75.938Y96.567
X75.938Y63.047
X75.938Y55.427
X75.938Y21.907
X75.938Y14.287
X76.891Y145.963
X76.891Y144.692
X76.891Y143.105
X76.891Y104.822
X76.891Y103.552
X76.891Y101.965
X76.891Y63.682
X76.891Y62.412
X76.891Y60.825
X76.891Y22.543
X76.891Y21.272
X76.891Y19.685
X77.843Y144.692
X77.843Y141.835
X77.843Y137.707
X77.843Y103.552
X77.843Y100.695
X77.843Y96.567
X77.843Y62.412
X77.843Y59.555
X77.843Y55.427
X77.843Y21.272
X77.843Y18.415
X77.843Y14.287
X78.795Y144.692
X78.795Y142.787
X78.795Y103.552
X78.795Y101.647
X78.795Y62.412
X78.795Y60.508
X78.795Y21.272
X78.795Y19.367
X79.113Y137.39
X79.113Y96.25
X79.113Y55.11
X79.113Y13.97
X79.43Y146.28
X79.43Y141.2
X79.43Y105.14
X79.43Y100.06
X79.43Y64.0
X79.43Y58.92
X79.43Y22.86
X79.43Y17.78
X81.335Y146.28
X81.335Y141.2
X81.335Y105.14
X81.335Y100.06
X81.335Y64.0
X81.335Y58.92
X81.335Y22.86
X81.335Y17.78
X82.288Y131.993
X82.288Y90.852
X82.288Y49.712
X82.288Y8.572
X83.24Y146.28
X83.24Y141.2
X83.24Y105.14
X83.24Y100.06
X83.24Y64.0
X83.24Y58.92
X83.24Y22.86
X83.24Y17.78
X83.876Y144.692
X83.876Y142.787
X83.876Y103.552
X83.876Y101.647
X83.876Y62.412
X83.876Y60.508
X83.876Y21.272
X83.876Y19.367
X89.646Y137.707
X89.646Y96.567
X89.646Y55.427
X89.646Y14.287
X90.916Y151.042
X90.916Y109.902
X90.916Y68.763
X90.916Y27.622
X93.457Y152.312
X93.457Y111.172
X93.457Y70.032
X93.457Y28.892
X93.932Y137.549
X93.932Y96.409
X93.932Y55.269
X93.932Y14.129
X94.853Y142.851
X94.853Y101.711
X94.853Y60.571
X94.853Y19.431
X94.879Y144.063
X94.879Y102.923
X94.879Y61.783
X94.879Y20.643
X96.948Y152.312
X96.948Y147.232
X96.948Y145.963
X96.948Y141.29
X96.948Y140.248
X96.948Y111.172
X96.948Y106.093
X96.948Y104.822
X96.948Y100.15
X96.948Y99.108
X96.948Y70.032
X96.948Y64.953
X96.948Y63.682
X96.948Y59.01
X96.948Y57.967
X96.948Y28.892
X96.948Y23.812
X96.948Y22.543
X96.948Y17.87
X96.948Y16.828
X97.266Y130.722
X97.266Y89.582
X97.266Y48.442
X97.266Y7.302
X98.155Y143.867
X98.155Y137.27
X98.155Y102.727
X98.155Y96.13
X98.155Y61.587
X98.155Y54.99
X98.155Y20.447
X98.155Y13.85
X100.441Y152.947
X100.441Y111.807
X100.441Y70.667
X100.441Y29.527
X100.758Y134.85
X100.758Y93.71
X100.758Y52.57
X100.758Y11.43
X101.076Y150.09
X101.076Y148.502
X101.076Y145.645
X101.076Y138.66
X101.076Y138.025
X101.076Y108.95
X101.076Y107.362
X101.076Y104.505
X101.076Y97.52
X101.076Y96.885
X101.076Y67.81
X101.076Y66.222
X101.076Y63.365
X101.076Y56.38
X101.076Y55.745
X101.076Y26.67
X101.076Y25.082
X101.076Y22.225
X101.076Y15.24
X101.076Y14.605
X101.393Y151.36
X101.393Y110.22
X101.393Y69.08
X101.393Y27.94
X101.711Y154.104
X101.711Y143.74
X101.711Y112.964
X101.711Y102.6
X101.711Y71.824
X101.711Y61.46
X101.711Y30.684
X101.711Y20.32
X101.855Y133.085
X101.855Y91.945
X101.855Y50.805
X101.855Y9.665
X102.346Y129.77
X102.346Y88.63
X102.346Y47.49
X102.346Y6.35
X102.663Y156.757
X102.663Y115.617
X102.663Y74.477
X102.663Y33.337
X102.981Y149.455
X102.981Y147.55
X102.981Y141.835
X102.981Y136.12
X102.981Y108.315
X102.981Y106.41
X102.981Y100.695
X102.981Y94.98
X102.981Y67.175
X102.981Y65.27
X102.981Y59.555
X102.981Y53.84
X102.981Y26.035
X102.981Y24.13
X102.981Y18.415
X102.981Y12.7
X103.746Y153.9
X103.746Y112.76
X103.746Y71.62
X103.746Y30.48
X104.125Y130.279
X104.125Y89.139
X104.125Y47.999
X104.125Y6.859
X104.886Y156.757
X104.886Y150.407
X104.886Y149.455
X104.886Y139.93
X104.886Y138.025
X104.886Y115.617
X104.886Y109.267
X104.886Y108.315
X104.886Y98.79
X104.886Y96.885
X104.886Y74.477
X104.886Y68.127
X104.886Y67.175
X104.886Y57.65
X104.886Y55.745
X104.886Y33.337
X104.886Y26.987
X104.886Y26.035
X104.886Y16.51
X104.886Y14.605
X105.014Y136.063
X105.014Y94.923
X105.014Y53.783
X105.014Y12.643
X105.203Y132.945
X105.203Y91.805
X105.203Y50.665
X105.203Y9.525
X106.156Y127.865
X106.156Y86.725
X106.156Y45.585
X106.156Y4.445
X106.474Y154.218
X106.474Y138.025
X106.474Y113.078
X106.474Y96.885
X106.474Y71.938
X106.474Y55.745
X106.474Y30.797
X106.474Y14.605
X106.791Y150.407
X106.791Y149.455
X106.791Y109.267
X106.791Y108.315
X106.791Y68.127
X106.791Y67.175
X106.791Y26.987
X106.791Y26.035
X107.108Y147.232
X107.108Y106.093
X107.108Y64.953
X107.108Y23.812
X108.061Y154.218
X108.061Y140.248
X108.061Y113.078
X108.061Y99.108
X108.061Y71.938
X108.061Y57.967
X108.061Y30.797
X108.061Y16.828
X108.378Y136.12
X108.378Y94.98
X108.378Y53.84
X108.378Y12.7
X108.696Y150.407
X108.696Y149.455
X108.696Y143.74
X108.696Y126.912
X108.696Y109.267
X108.696Y108.315
X108.696Y102.6
X108.696Y85.772
X108.696Y68.127
X108.696Y67.175
X108.696Y61.46
X108.696Y44.633
X108.696Y26.987
X108.696Y26.035
X108.696Y20.32
X108.696Y3.492
X109.013Y154.218
X109.013Y113.078
X109.013Y71.938
X109.013Y30.797
X109.648Y147.232
X109.648Y140.248
X109.648Y136.12
X109.648Y106.093
X109.648Y99.108
X109.648Y94.98
X109.648Y64.953
X109.648Y57.967
X109.648Y53.84
X109.648Y23.812
X109.648Y16.828
X109.648Y12.7
X110.283Y154.218
X110.283Y113.078
X110.283Y71.938
X110.283Y30.797
X110.601Y150.407
X110.601Y149.455
X110.601Y138.025
X110.601Y136.12
X110.601Y109.267
X110.601Y108.315
X110.601Y96.885
X110.601Y94.98
X110.601Y68.127
X110.601Y67.175
X110.601Y55.745
X110.601Y53.84
X110.601Y26.987
X110.601Y26.035
X110.601Y14.605
X110.601Y12.7
X111.553Y133.58
X111.553Y92.44
X111.553Y51.3
X111.553Y10.16
X112.506Y138.025
X112.506Y96.885
X112.506Y55.745
X112.506Y14.605
X113.141Y159.297
X113.141Y133.58
X113.141Y118.157
X113.141Y92.44
X113.141Y77.017
X113.141Y51.3
X113.141Y35.877
X113.141Y10.16
X113.776Y155.475
X113.776Y114.335
X113.776Y73.195
X113.776Y32.055
X114.411Y150.407
X114.411Y149.455
X114.411Y147.55
X114.411Y145.645
X114.411Y143.74
X114.411Y141.835
X114.411Y139.93
X114.411Y138.025
X114.411Y109.267
X114.411Y108.315
X114.411Y106.41
X114.411Y104.505
X114.411Y102.6
X114.411Y100.695
X114.411Y98.79
X114.411Y96.885
X114.411Y68.127
X114.411Y67.175
X114.411Y65.27
X114.411Y63.365
X114.411Y61.46
X114.411Y59.555
X114.411Y57.65
X114.411Y55.745
X114.411Y26.987
X114.411Y26.035
X114.411Y24.13
X114.411Y22.225
X114.411Y20.32
X114.411Y18.415
X114.411Y16.51
X114.411Y14.605
X114.728Y154.218
X114.728Y133.58
X114.728Y113.078
X114.728Y92.44
X114.728Y71.938
X114.728Y51.3
X114.728Y30.797
X114.728Y10.16
X115.363Y149.772
X115.363Y133.58
X115.363Y108.632
X115.363Y92.44
X115.363Y67.492
X115.363Y51.3
X115.363Y26.352
X115.363Y10.16
X115.681Y151.36
X115.681Y110.22
X115.681Y69.08
X115.681Y27.94
X115.998Y154.218
X115.998Y113.078
X115.998Y71.938
X115.998Y30.797
X116.316Y145.327
X116.316Y143.74
X116.316Y142.153
X116.316Y139.295
X116.316Y138.025
X116.316Y127.547
X116.316Y104.188
X116.316Y102.6
X116.316Y101.012
X116.316Y98.155
X116.316Y96.885
X116.316Y86.407
X116.316Y63.047
X116.316Y61.46
X116.316Y59.872
X116.316Y57.015
X116.316Y55.745
X116.316Y45.267
X116.316Y21.907
X116.316Y20.32
X116.316Y18.732
X116.316Y15.875
X116.316Y14.605
X116.316Y4.127
X116.633Y155.805
X116.633Y126.277
X116.633Y114.665
X116.633Y85.138
X116.633Y73.525
X116.633Y43.997
X116.633Y32.385
X116.633Y2.857
X116.951Y152.947
X116.951Y111.807
X116.951Y70.667
X116.951Y29.527
X116.952Y133.898
X116.952Y92.757
X116.952Y51.617
X116.952Y10.477
X118.856Y157.392
X118.856Y116.252
X118.856Y75.112
X118.856Y33.972
X119.173Y151.042
X119.173Y149.772
X119.173Y148.69
X119.173Y146.28
X119.173Y144.692
X119.173Y143.105
X119.173Y139.612
X119.173Y137.707
X119.173Y109.902
X119.173Y108.632
X119.173Y107.55
X119.173Y105.14
X119.173Y103.552
X119.173Y101.965
X119.173Y98.472
X119.173Y96.567
X119.173Y68.763
X119.173Y67.492
X119.173Y66.41
X119.173Y64.0
X119.173Y62.412
X119.173Y60.825
X119.173Y57.332
X119.173Y55.427
X119.173Y27.622
X119.173Y26.352
X119.173Y25.27
X119.173Y22.86
X119.173Y21.272
X119.173Y19.685
X119.173Y16.192
X119.173Y14.287
X119.808Y134.215
X119.808Y93.075
X119.808Y51.935
X119.808Y10.795
X120.126Y145.327
X120.126Y137.707
X120.126Y104.188
X120.126Y96.567
X120.126Y63.047
X120.126Y55.427
X120.126Y21.907
X120.126Y14.287
X121.078Y145.963
X121.078Y144.692
X121.078Y143.105
X121.078Y104.822
X121.078Y103.552
X121.078Y101.965
X121.078Y63.682
X121.078Y62.412
X121.078Y60.825
X121.078Y22.543
X121.078Y21.272
X121.078Y19.685
X122.031Y144.692
X122.031Y141.835
X122.031Y137.707
X122.031Y103.552
X122.031Y100.695
X122.031Y96.567
X122.031Y62.412
X122.031Y59.555
X122.031Y55.427
X122.031Y21.272
X122.031Y18.415
X122.031Y14.287
X122.983Y144.692
X122.983Y142.787
X122.983Y103.552
X122.983Y101.647
X122.983Y62.412
X122.983Y60.508
X122.983Y21.272
X122.983Y19.367
X123.301Y137.39
X123.301Y96.25
X123.301Y55.11
X123.301Y13.97
X123.618Y146.28
X123.618Y141.2
X123.618Y105.14
X123.618Y100.06
X123.618Y64.0
X123.618Y58.92
X123.618Y22.86
X123.618Y17.78
X125.523Y146.28
X125.523Y141.2
X125.523Y105.14
X125.523Y100.06
X125.523Y64.0
X125.523Y58.92
X125.523Y22.86
X125.523Y17.78
X126.476Y131.993
X126.476Y90.852
X126.476Y49.712
X126.476Y8.572
X127.428Y146.28
X127.428Y141.2
X127.428Y105.14
X127.428Y100.06
X127.428Y64.0
X127.428Y58.92
X127.428Y22.86
X127.428Y17.78
X128.064Y144.692
X128.064Y142.787
X128.064Y103.552
X128.064Y101.647
X128.064Y62.412
X128.064Y60.508
X128.064Y21.272
X128.064Y19.367
T3
X1.905Y135.802
X1.905Y94.662
X1.905Y53.523
X1.905Y12.383
X4.445Y135.802
X4.445Y94.662
X4.445Y53.523
X4.445Y12.383
X11.43Y162.79
X11.43Y121.65
X11.43Y80.51
X11.43Y39.37
X13.97Y162.79
X13.97Y124.69
X13.97Y121.65
X13.97Y83.55
X13.97Y80.51
X13.97Y42.41
X13.97Y39.37
X13.97Y1.27
X16.51Y162.79
X16.51Y124.69
X16.51Y121.65
X16.51Y83.55
X16.51Y80.51
X16.51Y42.41
X16.51Y39.37
X16.51Y1.27
X19.05Y162.79
X19.05Y124.69
X19.05Y121.65
X19.05Y83.55
X19.05Y80.51
X19.05Y42.41
X19.05Y39.37
X19.05Y1.27
X21.59Y162.79
X21.59Y124.69
X21.59Y121.65
X21.59Y83.55
X21.59Y80.51
X21.59Y42.41
X21.59Y39.37
X21.59Y1.27
X24.13Y162.79
X24.13Y124.69
X24.13Y121.65
X24.13Y83.55
X24.13Y80.51
X24.13Y42.41
X24.13Y39.37
X24.13Y1.27
X26.67Y162.79
X26.67Y124.69
X26.67Y121.65
X26.67Y83.55
X26.67Y80.51
X26.67Y42.41
X26.67Y39.37
X26.67Y1.27
X29.21Y162.79
X29.21Y121.65
X29.21Y80.51
X29.21Y39.37
X46.093Y135.802
X46.093Y94.662
X46.093Y53.523
X46.093Y12.383
X48.633Y135.802
X48.633Y94.662
X48.633Y53.523
X48.633Y12.383
X55.618Y162.79
X55.618Y121.65
X55.618Y80.51
X55.618Y39.37
X58.158Y162.79
X58.158Y124.69
X58.158Y121.65
X58.158Y83.55
X58.158Y80.51
X58.158Y42.41
X58.158Y39.37
X58.158Y1.27
X60.698Y162.79
X60.698Y124.69
X60.698Y121.65
X60.698Y83.55
X60.698Y80.51
X60.698Y42.41
X60.698Y39.37
X60.698Y1.27
X63.238Y162.79
X63.238Y124.69
X63.238Y121.65
X63.238Y83.55
X63.238Y80.51
X63.238Y42.41
X63.238Y39.37
X63.238Y1.27
X65.778Y162.79
X65.778Y124.69
X65.778Y121.65
X65.778Y83.55
X65.778Y80.51
X65.778Y42.41
X65.778Y39.37
X65.778Y1.27
X68.318Y162.79
X68.318Y124.69
X68.318Y121.65
X68.318Y83.55
X68.318Y80.51
X68.318Y42.41
X68.318Y39.37
X68.318Y1.27
X70.858Y162.79
X70.858Y124.69
X70.858Y121.65
X70.858Y83.55
X70.858Y80.51
X70.858Y42.41
X70.858Y39.37
X70.858Y1.27
X73.398Y162.79
X73.398Y121.65
X73.398Y80.51
X73.398Y39.37
X90.281Y135.802
X90.281Y94.662
X90.281Y53.523
X90.281Y12.383
X92.821Y135.802
X92.821Y94.662
X92.821Y53.523
X92.821Y12.383
X99.806Y162.79
X99.806Y121.65
X99.806Y80.51
X99.806Y39.37
X102.346Y162.79
X102.346Y124.69
X102.346Y121.65
X102.346Y83.55
X102.346Y80.51
X102.346Y42.41
X102.346Y39.37
X102.346Y1.27
X104.886Y162.79
X104.886Y124.69
X104.886Y121.65
X104.886Y83.55
X104.886Y80.51
X104.886Y42.41
X104.886Y39.37
X104.886Y1.27
X107.426Y162.79
X107.426Y124.69
X107.426Y121.65
X107.426Y83.55
X107.426Y80.51
X107.426Y42.41
X107.426Y39.37
X107.426Y1.27
X109.966Y162.79
X109.966Y124.69
X109.966Y121.65
X109.966Y83.55
X109.966Y80.51
X109.966Y42.41
X109.966Y39.37
X109.966Y1.27
X112.506Y162.79
X112.506Y124.69
X112.506Y121.65
X112.506Y83.55
X112.506Y80.51
X112.506Y42.41
X112.506Y39.37
X112.506Y1.27
X115.046Y162.79
X115.046Y124.69
X115.046Y121.65
X115.046Y83.55
X115.046Y80.51
X115.046Y42.41
X115.046Y39.37
X115.046Y1.27
X117.586Y162.79
X117.586Y121.65
X117.586Y80.51
X117.586Y39.37
T4
X6.489Y146.63
X6.489Y140.85
X6.489Y105.49
X6.489Y99.71
X6.489Y64.35
X6.489Y58.57
X6.489Y23.21
X6.489Y17.43
X50.677Y146.63
X50.677Y140.85
X50.677Y105.49
X50.677Y99.71
X50.677Y64.35
X50.677Y58.57
X50.677Y23.21
X50.677Y17.43
X94.865Y146.63
X94.865Y140.85
X94.865Y105.49
X94.865Y99.71
X94.865Y64.35
X94.865Y58.57
X94.865Y23.21
X94.865Y17.43
T5
X34.925Y131.993
X34.925Y90.852
X34.925Y49.712
X34.925Y8.572
X79.113Y131.993
X79.113Y90.852
X79.113Y49.712
X79.113Y8.572
X123.301Y131.993
X123.301Y90.852
X123.301Y49.712
X123.301Y8.572
T6
X2.54Y161.52
X2.54Y125.96
X2.54Y120.38
X2.54Y84.82
X2.54Y79.24
X2.54Y43.68
X2.54Y38.1
X2.54Y2.54
X38.1Y161.52
X38.1Y125.96
X38.1Y120.38
X38.1Y84.82
X38.1Y79.24
X38.1Y43.68
X38.1Y38.1
X38.1Y2.54
X46.728Y161.52
X46.728Y125.96
X46.728Y120.38
X46.728Y84.82
X46.728Y79.24
X46.728Y43.68
X46.728Y38.1
X46.728Y2.54
X82.288Y161.52
X82.288Y125.96
X82.288Y120.38
X82.288Y84.82
X82.288Y79.24
X82.288Y43.68
X82.288Y38.1
X82.288Y2.54
X90.916Y161.52
X90.916Y125.96
X90.916Y120.38
X90.916Y84.82
X90.916Y79.24
X90.916Y43.68
X90.916Y38.1
X90.916Y2.54
X126.476Y161.52
X126.476Y125.96
X126.476Y120.38
X126.476Y84.82
X126.476Y79.24
X126.476Y43.68
X126.476Y38.1
X126.476Y2.54
T2
G00X3.139Y148.058
M15
G01X2.539Y148.058
M16
G05
G00X3.139Y139.422
M15
G01X2.539Y139.422
M16
G05
G00X3.139Y106.918
M15
G01X2.539Y106.918
M16
G05
G00X3.139Y98.282
M15
G01X2.539Y98.282
M16
G05
G00X3.139Y65.778
M15
G01X2.539Y65.778
M16
G05
G00X3.139Y57.142
M15
G01X2.539Y57.142
M16
G05
G00X3.139Y24.638
M15
G01X2.539Y24.638
M16
G05
G00X3.139Y16.002
M15
G01X2.539Y16.002
M16
G05
G00X7.569Y148.058
M15
G01X6.469Y148.058
M16
G05
G00X7.569Y139.422
M15
G01X6.469Y139.422
M16
G05
G00X7.569Y106.918
M15
G01X6.469Y106.918
M16
G05
G00X7.569Y98.282
M15
G01X6.469Y98.282
M16
G05
G00X7.569Y65.778
M15
G01X6.469Y65.778
M16
G05
G00X7.569Y57.142
M15
G01X6.469Y57.142
M16
G05
G00X7.569Y24.638
M15
G01X6.469Y24.638
M16
G05
G00X7.569Y16.002
M15
G01X6.469Y16.002
M16
G05
G00X47.327Y148.058
M15
G01X46.727Y148.058
M16
G05
G00X47.327Y139.422
M15
G01X46.727Y139.422
M16
G05
G00X47.327Y106.918
M15
G01X46.727Y106.918
M16
G05
G00X47.327Y98.282
M15
G01X46.727Y98.282
M16
G05
G00X47.327Y65.778
M15
G01X46.727Y65.778
M16
G05
G00X47.327Y57.142
M15
G01X46.727Y57.142
M16
G05
G00X47.327Y24.638
M15
G01X46.727Y24.638
M16
G05
G00X47.327Y16.002
M15
G01X46.727Y16.002
M16
G05
G00X51.757Y148.058
M15
G01X50.657Y148.058
M16
G05
G00X51.757Y139.422
M15
G01X50.657Y139.422
M16
G05
G00X51.757Y106.918
M15
G01X50.657Y106.918
M16
G05
G00X51.757Y98.282
M15
G01X50.657Y98.282
M16
G05
G00X51.757Y65.778
M15
G01X50.657Y65.778
M16
G05
G00X51.757Y57.142
M15
G01X50.657Y57.142
M16
G05
G00X51.757Y24.638
M15
G01X50.657Y24.638
M16
G05
G00X51.757Y16.002
M15
G01X50.657Y16.002
M16
G05
G00X91.515Y148.058
M15
G01X90.915Y148.058
M16
G05
G00X91.515Y139.422
M15
G01X90.915Y139.422
M16
G05
G00X91.515Y106.918
M15
G01X90.915Y106.918
M16
G05
G00X91.515Y98.282
M15
G01X90.915Y98.282
M16
G05
G00X91.515Y65.778
M15
G01X90.915Y65.778
M16
G05
G00X91.515Y57.142
M15
G01X90.915Y57.142
M16
G05
G00X91.515Y24.638
M15
G01X90.915Y24.638
M16
G05
G00X91.515Y16.002
M15
G01X90.915Y16.002
M16
G05
G00X95.945Y148.058
M15
G01X94.845Y148.058
M16
G05
G00X95.945Y139.422
M15
G01X94.845Y139.422
M16
G05
G00X95.945Y106.918
M15
G01X94.845Y106.918
M16
G05
G00X95.945Y98.282
M15
G01X94.845Y98.282
M16
G05
G00X95.945Y65.778
M15
G01X94.845Y65.778
M16
G05
G00X95.945Y57.142
M15
G01X94.845Y57.142
M16
G05
G00X95.945Y24.638
M15
G01X94.845Y24.638
M16
G05
G00X95.945Y16.002
M15
G01X94.845Y16.002
M16
G05
M30
