%TF.GenerationSoftware,KiCad,Pcbnew,9.0.1*%
%TF.CreationDate,2025-04-15T12:31:11-06:00*%
%TF.ProjectId,SparkFun_GNSS_DAN-F10N_panelized,53706172-6b46-4756-9e5f-474e53535f44,rev?*%
%TF.SameCoordinates,Original*%
%TF.FileFunction,Soldermask,Bot*%
%TF.FilePolarity,Negative*%
%FSLAX46Y46*%
G04 Gerber Fmt 4.6, Leading zero omitted, Abs format (unit mm)*
G04 Created by KiCad (PCBNEW 9.0.1) date 2025-04-15 12:31:11*
%MOMM*%
%LPD*%
G01*
G04 APERTURE LIST*
%TA.AperFunction,Profile*%
%ADD10C,0.100000*%
%TD*%
%ADD11C,0.250000*%
%ADD12C,0.500000*%
G04 APERTURE END LIST*
D10*
X-3548000Y-500000D02*
X-3548000Y164560000D01*
X132564000Y-500000D02*
X-3548000Y-500000D01*
X132564000Y164560000D02*
X132564000Y-500000D01*
X-3548000Y164560000D02*
X132564000Y164560000D01*
X-9898000Y-6850000D02*
X-9898000Y170910000D01*
X138914000Y-6850000D02*
X-9898000Y-6850000D01*
X138914000Y170910000D02*
X138914000Y-6850000D01*
X-9898000Y170910000D02*
X138914000Y170910000D01*
X88376000Y164060000D02*
X129016000Y164060000D01*
X129016000Y123420000D01*
X88376000Y123420000D01*
X88376000Y164060000D01*
X88376000Y122920000D02*
X129016000Y122920000D01*
X129016000Y82280000D01*
X88376000Y82280000D01*
X88376000Y122920000D01*
X88376000Y81780000D02*
X129016000Y81780000D01*
X129016000Y41140000D01*
X88376000Y41140000D01*
X88376000Y81780000D01*
X88376000Y40640000D02*
X129016000Y40640000D01*
X129016000Y0D01*
X88376000Y0D01*
X88376000Y40640000D01*
X44188000Y164060000D02*
X84828000Y164060000D01*
X84828000Y123420000D01*
X44188000Y123420000D01*
X44188000Y164060000D01*
X44188000Y122920000D02*
X84828000Y122920000D01*
X84828000Y82280000D01*
X44188000Y82280000D01*
X44188000Y122920000D01*
X44188000Y81780000D02*
X84828000Y81780000D01*
X84828000Y41140000D01*
X44188000Y41140000D01*
X44188000Y81780000D01*
X44188000Y40640000D02*
X84828000Y40640000D01*
X84828000Y0D01*
X44188000Y0D01*
X44188000Y40640000D01*
X0Y164060000D02*
X40640000Y164060000D01*
X40640000Y123420000D01*
X0Y123420000D01*
X0Y164060000D01*
X0Y122920000D02*
X40640000Y122920000D01*
X40640000Y82280000D01*
X0Y82280000D01*
X0Y122920000D01*
X0Y81780000D02*
X40640000Y81780000D01*
X40640000Y41140000D01*
X0Y41140000D01*
X0Y81780000D01*
X0Y40640000D02*
X40640000Y40640000D01*
X40640000Y0D01*
X0Y0D01*
X0Y40640000D01*
D11*
X131702238Y75268095D02*
X130749857Y74601428D01*
X131702238Y74125238D02*
X129702238Y74125238D01*
X129702238Y74125238D02*
X129702238Y74887143D01*
X129702238Y74887143D02*
X129797476Y75077619D01*
X129797476Y75077619D02*
X129892714Y75172857D01*
X129892714Y75172857D02*
X130083190Y75268095D01*
X130083190Y75268095D02*
X130368904Y75268095D01*
X130368904Y75268095D02*
X130559380Y75172857D01*
X130559380Y75172857D02*
X130654619Y75077619D01*
X130654619Y75077619D02*
X130749857Y74887143D01*
X130749857Y74887143D02*
X130749857Y74125238D01*
X129702238Y76506190D02*
X129702238Y76887143D01*
X129702238Y76887143D02*
X129797476Y77077619D01*
X129797476Y77077619D02*
X129987952Y77268095D01*
X129987952Y77268095D02*
X130368904Y77363333D01*
X130368904Y77363333D02*
X131035571Y77363333D01*
X131035571Y77363333D02*
X131416523Y77268095D01*
X131416523Y77268095D02*
X131607000Y77077619D01*
X131607000Y77077619D02*
X131702238Y76887143D01*
X131702238Y76887143D02*
X131702238Y76506190D01*
X131702238Y76506190D02*
X131607000Y76315714D01*
X131607000Y76315714D02*
X131416523Y76125238D01*
X131416523Y76125238D02*
X131035571Y76030000D01*
X131035571Y76030000D02*
X130368904Y76030000D01*
X130368904Y76030000D02*
X129987952Y76125238D01*
X129987952Y76125238D02*
X129797476Y76315714D01*
X129797476Y76315714D02*
X129702238Y76506190D01*
X129702238Y78220476D02*
X131321285Y78220476D01*
X131321285Y78220476D02*
X131511761Y78315714D01*
X131511761Y78315714D02*
X131607000Y78410952D01*
X131607000Y78410952D02*
X131702238Y78601428D01*
X131702238Y78601428D02*
X131702238Y78982381D01*
X131702238Y78982381D02*
X131607000Y79172857D01*
X131607000Y79172857D02*
X131511761Y79268095D01*
X131511761Y79268095D02*
X131321285Y79363333D01*
X131321285Y79363333D02*
X129702238Y79363333D01*
X129702238Y80030000D02*
X129702238Y81172857D01*
X131702238Y80601428D02*
X129702238Y80601428D01*
X130654619Y81839524D02*
X130654619Y82506191D01*
X131702238Y82791905D02*
X131702238Y81839524D01*
X131702238Y81839524D02*
X129702238Y81839524D01*
X129702238Y81839524D02*
X129702238Y82791905D01*
X129702238Y85553810D02*
X129702238Y85934763D01*
X129702238Y85934763D02*
X129797476Y86125239D01*
X129797476Y86125239D02*
X129987952Y86315715D01*
X129987952Y86315715D02*
X130368904Y86410953D01*
X130368904Y86410953D02*
X131035571Y86410953D01*
X131035571Y86410953D02*
X131416523Y86315715D01*
X131416523Y86315715D02*
X131607000Y86125239D01*
X131607000Y86125239D02*
X131702238Y85934763D01*
X131702238Y85934763D02*
X131702238Y85553810D01*
X131702238Y85553810D02*
X131607000Y85363334D01*
X131607000Y85363334D02*
X131416523Y85172858D01*
X131416523Y85172858D02*
X131035571Y85077620D01*
X131035571Y85077620D02*
X130368904Y85077620D01*
X130368904Y85077620D02*
X129987952Y85172858D01*
X129987952Y85172858D02*
X129797476Y85363334D01*
X129797476Y85363334D02*
X129702238Y85553810D01*
X129702238Y87268096D02*
X131321285Y87268096D01*
X131321285Y87268096D02*
X131511761Y87363334D01*
X131511761Y87363334D02*
X131607000Y87458572D01*
X131607000Y87458572D02*
X131702238Y87649048D01*
X131702238Y87649048D02*
X131702238Y88030001D01*
X131702238Y88030001D02*
X131607000Y88220477D01*
X131607000Y88220477D02*
X131511761Y88315715D01*
X131511761Y88315715D02*
X131321285Y88410953D01*
X131321285Y88410953D02*
X129702238Y88410953D01*
X129702238Y89077620D02*
X129702238Y90220477D01*
X131702238Y89649048D02*
X129702238Y89649048D01*
X87514238Y75268095D02*
X86561857Y74601428D01*
X87514238Y74125238D02*
X85514238Y74125238D01*
X85514238Y74125238D02*
X85514238Y74887143D01*
X85514238Y74887143D02*
X85609476Y75077619D01*
X85609476Y75077619D02*
X85704714Y75172857D01*
X85704714Y75172857D02*
X85895190Y75268095D01*
X85895190Y75268095D02*
X86180904Y75268095D01*
X86180904Y75268095D02*
X86371380Y75172857D01*
X86371380Y75172857D02*
X86466619Y75077619D01*
X86466619Y75077619D02*
X86561857Y74887143D01*
X86561857Y74887143D02*
X86561857Y74125238D01*
X85514238Y76506190D02*
X85514238Y76887143D01*
X85514238Y76887143D02*
X85609476Y77077619D01*
X85609476Y77077619D02*
X85799952Y77268095D01*
X85799952Y77268095D02*
X86180904Y77363333D01*
X86180904Y77363333D02*
X86847571Y77363333D01*
X86847571Y77363333D02*
X87228523Y77268095D01*
X87228523Y77268095D02*
X87419000Y77077619D01*
X87419000Y77077619D02*
X87514238Y76887143D01*
X87514238Y76887143D02*
X87514238Y76506190D01*
X87514238Y76506190D02*
X87419000Y76315714D01*
X87419000Y76315714D02*
X87228523Y76125238D01*
X87228523Y76125238D02*
X86847571Y76030000D01*
X86847571Y76030000D02*
X86180904Y76030000D01*
X86180904Y76030000D02*
X85799952Y76125238D01*
X85799952Y76125238D02*
X85609476Y76315714D01*
X85609476Y76315714D02*
X85514238Y76506190D01*
X85514238Y78220476D02*
X87133285Y78220476D01*
X87133285Y78220476D02*
X87323761Y78315714D01*
X87323761Y78315714D02*
X87419000Y78410952D01*
X87419000Y78410952D02*
X87514238Y78601428D01*
X87514238Y78601428D02*
X87514238Y78982381D01*
X87514238Y78982381D02*
X87419000Y79172857D01*
X87419000Y79172857D02*
X87323761Y79268095D01*
X87323761Y79268095D02*
X87133285Y79363333D01*
X87133285Y79363333D02*
X85514238Y79363333D01*
X85514238Y80030000D02*
X85514238Y81172857D01*
X87514238Y80601428D02*
X85514238Y80601428D01*
X86466619Y81839524D02*
X86466619Y82506191D01*
X87514238Y82791905D02*
X87514238Y81839524D01*
X87514238Y81839524D02*
X85514238Y81839524D01*
X85514238Y81839524D02*
X85514238Y82791905D01*
X85514238Y85553810D02*
X85514238Y85934763D01*
X85514238Y85934763D02*
X85609476Y86125239D01*
X85609476Y86125239D02*
X85799952Y86315715D01*
X85799952Y86315715D02*
X86180904Y86410953D01*
X86180904Y86410953D02*
X86847571Y86410953D01*
X86847571Y86410953D02*
X87228523Y86315715D01*
X87228523Y86315715D02*
X87419000Y86125239D01*
X87419000Y86125239D02*
X87514238Y85934763D01*
X87514238Y85934763D02*
X87514238Y85553810D01*
X87514238Y85553810D02*
X87419000Y85363334D01*
X87419000Y85363334D02*
X87228523Y85172858D01*
X87228523Y85172858D02*
X86847571Y85077620D01*
X86847571Y85077620D02*
X86180904Y85077620D01*
X86180904Y85077620D02*
X85799952Y85172858D01*
X85799952Y85172858D02*
X85609476Y85363334D01*
X85609476Y85363334D02*
X85514238Y85553810D01*
X85514238Y87268096D02*
X87133285Y87268096D01*
X87133285Y87268096D02*
X87323761Y87363334D01*
X87323761Y87363334D02*
X87419000Y87458572D01*
X87419000Y87458572D02*
X87514238Y87649048D01*
X87514238Y87649048D02*
X87514238Y88030001D01*
X87514238Y88030001D02*
X87419000Y88220477D01*
X87419000Y88220477D02*
X87323761Y88315715D01*
X87323761Y88315715D02*
X87133285Y88410953D01*
X87133285Y88410953D02*
X85514238Y88410953D01*
X85514238Y89077620D02*
X85514238Y90220477D01*
X87514238Y89649048D02*
X85514238Y89649048D01*
X43326238Y75268095D02*
X42373857Y74601428D01*
X43326238Y74125238D02*
X41326238Y74125238D01*
X41326238Y74125238D02*
X41326238Y74887143D01*
X41326238Y74887143D02*
X41421476Y75077619D01*
X41421476Y75077619D02*
X41516714Y75172857D01*
X41516714Y75172857D02*
X41707190Y75268095D01*
X41707190Y75268095D02*
X41992904Y75268095D01*
X41992904Y75268095D02*
X42183380Y75172857D01*
X42183380Y75172857D02*
X42278619Y75077619D01*
X42278619Y75077619D02*
X42373857Y74887143D01*
X42373857Y74887143D02*
X42373857Y74125238D01*
X41326238Y76506190D02*
X41326238Y76887143D01*
X41326238Y76887143D02*
X41421476Y77077619D01*
X41421476Y77077619D02*
X41611952Y77268095D01*
X41611952Y77268095D02*
X41992904Y77363333D01*
X41992904Y77363333D02*
X42659571Y77363333D01*
X42659571Y77363333D02*
X43040523Y77268095D01*
X43040523Y77268095D02*
X43231000Y77077619D01*
X43231000Y77077619D02*
X43326238Y76887143D01*
X43326238Y76887143D02*
X43326238Y76506190D01*
X43326238Y76506190D02*
X43231000Y76315714D01*
X43231000Y76315714D02*
X43040523Y76125238D01*
X43040523Y76125238D02*
X42659571Y76030000D01*
X42659571Y76030000D02*
X41992904Y76030000D01*
X41992904Y76030000D02*
X41611952Y76125238D01*
X41611952Y76125238D02*
X41421476Y76315714D01*
X41421476Y76315714D02*
X41326238Y76506190D01*
X41326238Y78220476D02*
X42945285Y78220476D01*
X42945285Y78220476D02*
X43135761Y78315714D01*
X43135761Y78315714D02*
X43231000Y78410952D01*
X43231000Y78410952D02*
X43326238Y78601428D01*
X43326238Y78601428D02*
X43326238Y78982381D01*
X43326238Y78982381D02*
X43231000Y79172857D01*
X43231000Y79172857D02*
X43135761Y79268095D01*
X43135761Y79268095D02*
X42945285Y79363333D01*
X42945285Y79363333D02*
X41326238Y79363333D01*
X41326238Y80030000D02*
X41326238Y81172857D01*
X43326238Y80601428D02*
X41326238Y80601428D01*
X42278619Y81839524D02*
X42278619Y82506191D01*
X43326238Y82791905D02*
X43326238Y81839524D01*
X43326238Y81839524D02*
X41326238Y81839524D01*
X41326238Y81839524D02*
X41326238Y82791905D01*
X41326238Y85553810D02*
X41326238Y85934763D01*
X41326238Y85934763D02*
X41421476Y86125239D01*
X41421476Y86125239D02*
X41611952Y86315715D01*
X41611952Y86315715D02*
X41992904Y86410953D01*
X41992904Y86410953D02*
X42659571Y86410953D01*
X42659571Y86410953D02*
X43040523Y86315715D01*
X43040523Y86315715D02*
X43231000Y86125239D01*
X43231000Y86125239D02*
X43326238Y85934763D01*
X43326238Y85934763D02*
X43326238Y85553810D01*
X43326238Y85553810D02*
X43231000Y85363334D01*
X43231000Y85363334D02*
X43040523Y85172858D01*
X43040523Y85172858D02*
X42659571Y85077620D01*
X42659571Y85077620D02*
X41992904Y85077620D01*
X41992904Y85077620D02*
X41611952Y85172858D01*
X41611952Y85172858D02*
X41421476Y85363334D01*
X41421476Y85363334D02*
X41326238Y85553810D01*
X41326238Y87268096D02*
X42945285Y87268096D01*
X42945285Y87268096D02*
X43135761Y87363334D01*
X43135761Y87363334D02*
X43231000Y87458572D01*
X43231000Y87458572D02*
X43326238Y87649048D01*
X43326238Y87649048D02*
X43326238Y88030001D01*
X43326238Y88030001D02*
X43231000Y88220477D01*
X43231000Y88220477D02*
X43135761Y88315715D01*
X43135761Y88315715D02*
X42945285Y88410953D01*
X42945285Y88410953D02*
X41326238Y88410953D01*
X41326238Y89077620D02*
X41326238Y90220477D01*
X43326238Y89649048D02*
X41326238Y89649048D01*
X-861762Y75268095D02*
X-1814143Y74601428D01*
X-861762Y74125238D02*
X-2861762Y74125238D01*
X-2861762Y74125238D02*
X-2861762Y74887143D01*
X-2861762Y74887143D02*
X-2766524Y75077619D01*
X-2766524Y75077619D02*
X-2671286Y75172857D01*
X-2671286Y75172857D02*
X-2480810Y75268095D01*
X-2480810Y75268095D02*
X-2195096Y75268095D01*
X-2195096Y75268095D02*
X-2004620Y75172857D01*
X-2004620Y75172857D02*
X-1909381Y75077619D01*
X-1909381Y75077619D02*
X-1814143Y74887143D01*
X-1814143Y74887143D02*
X-1814143Y74125238D01*
X-2861762Y76506190D02*
X-2861762Y76887143D01*
X-2861762Y76887143D02*
X-2766524Y77077619D01*
X-2766524Y77077619D02*
X-2576048Y77268095D01*
X-2576048Y77268095D02*
X-2195096Y77363333D01*
X-2195096Y77363333D02*
X-1528429Y77363333D01*
X-1528429Y77363333D02*
X-1147477Y77268095D01*
X-1147477Y77268095D02*
X-957000Y77077619D01*
X-957000Y77077619D02*
X-861762Y76887143D01*
X-861762Y76887143D02*
X-861762Y76506190D01*
X-861762Y76506190D02*
X-957000Y76315714D01*
X-957000Y76315714D02*
X-1147477Y76125238D01*
X-1147477Y76125238D02*
X-1528429Y76030000D01*
X-1528429Y76030000D02*
X-2195096Y76030000D01*
X-2195096Y76030000D02*
X-2576048Y76125238D01*
X-2576048Y76125238D02*
X-2766524Y76315714D01*
X-2766524Y76315714D02*
X-2861762Y76506190D01*
X-2861762Y78220476D02*
X-1242715Y78220476D01*
X-1242715Y78220476D02*
X-1052239Y78315714D01*
X-1052239Y78315714D02*
X-957000Y78410952D01*
X-957000Y78410952D02*
X-861762Y78601428D01*
X-861762Y78601428D02*
X-861762Y78982381D01*
X-861762Y78982381D02*
X-957000Y79172857D01*
X-957000Y79172857D02*
X-1052239Y79268095D01*
X-1052239Y79268095D02*
X-1242715Y79363333D01*
X-1242715Y79363333D02*
X-2861762Y79363333D01*
X-2861762Y80030000D02*
X-2861762Y81172857D01*
X-861762Y80601428D02*
X-2861762Y80601428D01*
X-1909381Y81839524D02*
X-1909381Y82506191D01*
X-861762Y82791905D02*
X-861762Y81839524D01*
X-861762Y81839524D02*
X-2861762Y81839524D01*
X-2861762Y81839524D02*
X-2861762Y82791905D01*
X-2861762Y85553810D02*
X-2861762Y85934763D01*
X-2861762Y85934763D02*
X-2766524Y86125239D01*
X-2766524Y86125239D02*
X-2576048Y86315715D01*
X-2576048Y86315715D02*
X-2195096Y86410953D01*
X-2195096Y86410953D02*
X-1528429Y86410953D01*
X-1528429Y86410953D02*
X-1147477Y86315715D01*
X-1147477Y86315715D02*
X-957000Y86125239D01*
X-957000Y86125239D02*
X-861762Y85934763D01*
X-861762Y85934763D02*
X-861762Y85553810D01*
X-861762Y85553810D02*
X-957000Y85363334D01*
X-957000Y85363334D02*
X-1147477Y85172858D01*
X-1147477Y85172858D02*
X-1528429Y85077620D01*
X-1528429Y85077620D02*
X-2195096Y85077620D01*
X-2195096Y85077620D02*
X-2576048Y85172858D01*
X-2576048Y85172858D02*
X-2766524Y85363334D01*
X-2766524Y85363334D02*
X-2861762Y85553810D01*
X-2861762Y87268096D02*
X-1242715Y87268096D01*
X-1242715Y87268096D02*
X-1052239Y87363334D01*
X-1052239Y87363334D02*
X-957000Y87458572D01*
X-957000Y87458572D02*
X-861762Y87649048D01*
X-861762Y87649048D02*
X-861762Y88030001D01*
X-861762Y88030001D02*
X-957000Y88220477D01*
X-957000Y88220477D02*
X-1052239Y88315715D01*
X-1052239Y88315715D02*
X-1242715Y88410953D01*
X-1242715Y88410953D02*
X-2861762Y88410953D01*
X-2861762Y89077620D02*
X-2861762Y90220477D01*
X-861762Y89649048D02*
X-2861762Y89649048D01*
X-26121997Y837762D02*
X-25455331Y-1162238D01*
X-25455331Y-1162238D02*
X-24788664Y837762D01*
X-24121997Y-400333D02*
X-22598187Y-400333D01*
X-21741045Y-1067000D02*
X-21455331Y-1162238D01*
X-21455331Y-1162238D02*
X-20979140Y-1162238D01*
X-20979140Y-1162238D02*
X-20788664Y-1067000D01*
X-20788664Y-1067000D02*
X-20693426Y-971761D01*
X-20693426Y-971761D02*
X-20598188Y-781285D01*
X-20598188Y-781285D02*
X-20598188Y-590809D01*
X-20598188Y-590809D02*
X-20693426Y-400333D01*
X-20693426Y-400333D02*
X-20788664Y-305095D01*
X-20788664Y-305095D02*
X-20979140Y-209857D01*
X-20979140Y-209857D02*
X-21360093Y-114619D01*
X-21360093Y-114619D02*
X-21550569Y-19380D01*
X-21550569Y-19380D02*
X-21645807Y75858D01*
X-21645807Y75858D02*
X-21741045Y266334D01*
X-21741045Y266334D02*
X-21741045Y456810D01*
X-21741045Y456810D02*
X-21645807Y647286D01*
X-21645807Y647286D02*
X-21550569Y742524D01*
X-21550569Y742524D02*
X-21360093Y837762D01*
X-21360093Y837762D02*
X-20883902Y837762D01*
X-20883902Y837762D02*
X-20598188Y742524D01*
X-18598188Y-971761D02*
X-18693426Y-1067000D01*
X-18693426Y-1067000D02*
X-18979140Y-1162238D01*
X-18979140Y-1162238D02*
X-19169616Y-1162238D01*
X-19169616Y-1162238D02*
X-19455331Y-1067000D01*
X-19455331Y-1067000D02*
X-19645807Y-876523D01*
X-19645807Y-876523D02*
X-19741045Y-686047D01*
X-19741045Y-686047D02*
X-19836283Y-305095D01*
X-19836283Y-305095D02*
X-19836283Y-19380D01*
X-19836283Y-19380D02*
X-19741045Y361572D01*
X-19741045Y361572D02*
X-19645807Y552048D01*
X-19645807Y552048D02*
X-19455331Y742524D01*
X-19455331Y742524D02*
X-19169616Y837762D01*
X-19169616Y837762D02*
X-18979140Y837762D01*
X-18979140Y837762D02*
X-18693426Y742524D01*
X-18693426Y742524D02*
X-18598188Y647286D01*
X-17360093Y837762D02*
X-16979140Y837762D01*
X-16979140Y837762D02*
X-16788664Y742524D01*
X-16788664Y742524D02*
X-16598188Y552048D01*
X-16598188Y552048D02*
X-16502950Y171096D01*
X-16502950Y171096D02*
X-16502950Y-495571D01*
X-16502950Y-495571D02*
X-16598188Y-876523D01*
X-16598188Y-876523D02*
X-16788664Y-1067000D01*
X-16788664Y-1067000D02*
X-16979140Y-1162238D01*
X-16979140Y-1162238D02*
X-17360093Y-1162238D01*
X-17360093Y-1162238D02*
X-17550569Y-1067000D01*
X-17550569Y-1067000D02*
X-17741045Y-876523D01*
X-17741045Y-876523D02*
X-17836283Y-495571D01*
X-17836283Y-495571D02*
X-17836283Y171096D01*
X-17836283Y171096D02*
X-17741045Y552048D01*
X-17741045Y552048D02*
X-17550569Y742524D01*
X-17550569Y742524D02*
X-17360093Y837762D01*
X-14502950Y-1162238D02*
X-15169617Y-209857D01*
X-15645807Y-1162238D02*
X-15645807Y837762D01*
X-15645807Y837762D02*
X-14883902Y837762D01*
X-14883902Y837762D02*
X-14693426Y742524D01*
X-14693426Y742524D02*
X-14598188Y647286D01*
X-14598188Y647286D02*
X-14502950Y456810D01*
X-14502950Y456810D02*
X-14502950Y171096D01*
X-14502950Y171096D02*
X-14598188Y-19380D01*
X-14598188Y-19380D02*
X-14693426Y-114619D01*
X-14693426Y-114619D02*
X-14883902Y-209857D01*
X-14883902Y-209857D02*
X-15645807Y-209857D01*
X-13645807Y-114619D02*
X-12979140Y-114619D01*
X-12693426Y-1162238D02*
X-13645807Y-1162238D01*
X-13645807Y-1162238D02*
X-13645807Y837762D01*
X-13645807Y837762D02*
X-12693426Y837762D01*
D12*
X-10148000Y-250000D02*
X139164000Y-250000D01*
D11*
X-26121997Y41977762D02*
X-25455331Y39977762D01*
X-25455331Y39977762D02*
X-24788664Y41977762D01*
X-24121997Y40739667D02*
X-22598187Y40739667D01*
X-21741045Y40073000D02*
X-21455331Y39977762D01*
X-21455331Y39977762D02*
X-20979140Y39977762D01*
X-20979140Y39977762D02*
X-20788664Y40073000D01*
X-20788664Y40073000D02*
X-20693426Y40168239D01*
X-20693426Y40168239D02*
X-20598188Y40358715D01*
X-20598188Y40358715D02*
X-20598188Y40549191D01*
X-20598188Y40549191D02*
X-20693426Y40739667D01*
X-20693426Y40739667D02*
X-20788664Y40834905D01*
X-20788664Y40834905D02*
X-20979140Y40930143D01*
X-20979140Y40930143D02*
X-21360093Y41025381D01*
X-21360093Y41025381D02*
X-21550569Y41120620D01*
X-21550569Y41120620D02*
X-21645807Y41215858D01*
X-21645807Y41215858D02*
X-21741045Y41406334D01*
X-21741045Y41406334D02*
X-21741045Y41596810D01*
X-21741045Y41596810D02*
X-21645807Y41787286D01*
X-21645807Y41787286D02*
X-21550569Y41882524D01*
X-21550569Y41882524D02*
X-21360093Y41977762D01*
X-21360093Y41977762D02*
X-20883902Y41977762D01*
X-20883902Y41977762D02*
X-20598188Y41882524D01*
X-18598188Y40168239D02*
X-18693426Y40073000D01*
X-18693426Y40073000D02*
X-18979140Y39977762D01*
X-18979140Y39977762D02*
X-19169616Y39977762D01*
X-19169616Y39977762D02*
X-19455331Y40073000D01*
X-19455331Y40073000D02*
X-19645807Y40263477D01*
X-19645807Y40263477D02*
X-19741045Y40453953D01*
X-19741045Y40453953D02*
X-19836283Y40834905D01*
X-19836283Y40834905D02*
X-19836283Y41120620D01*
X-19836283Y41120620D02*
X-19741045Y41501572D01*
X-19741045Y41501572D02*
X-19645807Y41692048D01*
X-19645807Y41692048D02*
X-19455331Y41882524D01*
X-19455331Y41882524D02*
X-19169616Y41977762D01*
X-19169616Y41977762D02*
X-18979140Y41977762D01*
X-18979140Y41977762D02*
X-18693426Y41882524D01*
X-18693426Y41882524D02*
X-18598188Y41787286D01*
X-17360093Y41977762D02*
X-16979140Y41977762D01*
X-16979140Y41977762D02*
X-16788664Y41882524D01*
X-16788664Y41882524D02*
X-16598188Y41692048D01*
X-16598188Y41692048D02*
X-16502950Y41311096D01*
X-16502950Y41311096D02*
X-16502950Y40644429D01*
X-16502950Y40644429D02*
X-16598188Y40263477D01*
X-16598188Y40263477D02*
X-16788664Y40073000D01*
X-16788664Y40073000D02*
X-16979140Y39977762D01*
X-16979140Y39977762D02*
X-17360093Y39977762D01*
X-17360093Y39977762D02*
X-17550569Y40073000D01*
X-17550569Y40073000D02*
X-17741045Y40263477D01*
X-17741045Y40263477D02*
X-17836283Y40644429D01*
X-17836283Y40644429D02*
X-17836283Y41311096D01*
X-17836283Y41311096D02*
X-17741045Y41692048D01*
X-17741045Y41692048D02*
X-17550569Y41882524D01*
X-17550569Y41882524D02*
X-17360093Y41977762D01*
X-14502950Y39977762D02*
X-15169617Y40930143D01*
X-15645807Y39977762D02*
X-15645807Y41977762D01*
X-15645807Y41977762D02*
X-14883902Y41977762D01*
X-14883902Y41977762D02*
X-14693426Y41882524D01*
X-14693426Y41882524D02*
X-14598188Y41787286D01*
X-14598188Y41787286D02*
X-14502950Y41596810D01*
X-14502950Y41596810D02*
X-14502950Y41311096D01*
X-14502950Y41311096D02*
X-14598188Y41120620D01*
X-14598188Y41120620D02*
X-14693426Y41025381D01*
X-14693426Y41025381D02*
X-14883902Y40930143D01*
X-14883902Y40930143D02*
X-15645807Y40930143D01*
X-13645807Y41025381D02*
X-12979140Y41025381D01*
X-12693426Y39977762D02*
X-13645807Y39977762D01*
X-13645807Y39977762D02*
X-13645807Y41977762D01*
X-13645807Y41977762D02*
X-12693426Y41977762D01*
D12*
X-10148000Y40890000D02*
X139164000Y40890000D01*
D11*
X-26121997Y83117762D02*
X-25455331Y81117762D01*
X-25455331Y81117762D02*
X-24788664Y83117762D01*
X-24121997Y81879667D02*
X-22598187Y81879667D01*
X-21741045Y81213000D02*
X-21455331Y81117762D01*
X-21455331Y81117762D02*
X-20979140Y81117762D01*
X-20979140Y81117762D02*
X-20788664Y81213000D01*
X-20788664Y81213000D02*
X-20693426Y81308239D01*
X-20693426Y81308239D02*
X-20598188Y81498715D01*
X-20598188Y81498715D02*
X-20598188Y81689191D01*
X-20598188Y81689191D02*
X-20693426Y81879667D01*
X-20693426Y81879667D02*
X-20788664Y81974905D01*
X-20788664Y81974905D02*
X-20979140Y82070143D01*
X-20979140Y82070143D02*
X-21360093Y82165381D01*
X-21360093Y82165381D02*
X-21550569Y82260620D01*
X-21550569Y82260620D02*
X-21645807Y82355858D01*
X-21645807Y82355858D02*
X-21741045Y82546334D01*
X-21741045Y82546334D02*
X-21741045Y82736810D01*
X-21741045Y82736810D02*
X-21645807Y82927286D01*
X-21645807Y82927286D02*
X-21550569Y83022524D01*
X-21550569Y83022524D02*
X-21360093Y83117762D01*
X-21360093Y83117762D02*
X-20883902Y83117762D01*
X-20883902Y83117762D02*
X-20598188Y83022524D01*
X-18598188Y81308239D02*
X-18693426Y81213000D01*
X-18693426Y81213000D02*
X-18979140Y81117762D01*
X-18979140Y81117762D02*
X-19169616Y81117762D01*
X-19169616Y81117762D02*
X-19455331Y81213000D01*
X-19455331Y81213000D02*
X-19645807Y81403477D01*
X-19645807Y81403477D02*
X-19741045Y81593953D01*
X-19741045Y81593953D02*
X-19836283Y81974905D01*
X-19836283Y81974905D02*
X-19836283Y82260620D01*
X-19836283Y82260620D02*
X-19741045Y82641572D01*
X-19741045Y82641572D02*
X-19645807Y82832048D01*
X-19645807Y82832048D02*
X-19455331Y83022524D01*
X-19455331Y83022524D02*
X-19169616Y83117762D01*
X-19169616Y83117762D02*
X-18979140Y83117762D01*
X-18979140Y83117762D02*
X-18693426Y83022524D01*
X-18693426Y83022524D02*
X-18598188Y82927286D01*
X-17360093Y83117762D02*
X-16979140Y83117762D01*
X-16979140Y83117762D02*
X-16788664Y83022524D01*
X-16788664Y83022524D02*
X-16598188Y82832048D01*
X-16598188Y82832048D02*
X-16502950Y82451096D01*
X-16502950Y82451096D02*
X-16502950Y81784429D01*
X-16502950Y81784429D02*
X-16598188Y81403477D01*
X-16598188Y81403477D02*
X-16788664Y81213000D01*
X-16788664Y81213000D02*
X-16979140Y81117762D01*
X-16979140Y81117762D02*
X-17360093Y81117762D01*
X-17360093Y81117762D02*
X-17550569Y81213000D01*
X-17550569Y81213000D02*
X-17741045Y81403477D01*
X-17741045Y81403477D02*
X-17836283Y81784429D01*
X-17836283Y81784429D02*
X-17836283Y82451096D01*
X-17836283Y82451096D02*
X-17741045Y82832048D01*
X-17741045Y82832048D02*
X-17550569Y83022524D01*
X-17550569Y83022524D02*
X-17360093Y83117762D01*
X-14502950Y81117762D02*
X-15169617Y82070143D01*
X-15645807Y81117762D02*
X-15645807Y83117762D01*
X-15645807Y83117762D02*
X-14883902Y83117762D01*
X-14883902Y83117762D02*
X-14693426Y83022524D01*
X-14693426Y83022524D02*
X-14598188Y82927286D01*
X-14598188Y82927286D02*
X-14502950Y82736810D01*
X-14502950Y82736810D02*
X-14502950Y82451096D01*
X-14502950Y82451096D02*
X-14598188Y82260620D01*
X-14598188Y82260620D02*
X-14693426Y82165381D01*
X-14693426Y82165381D02*
X-14883902Y82070143D01*
X-14883902Y82070143D02*
X-15645807Y82070143D01*
X-13645807Y82165381D02*
X-12979140Y82165381D01*
X-12693426Y81117762D02*
X-13645807Y81117762D01*
X-13645807Y81117762D02*
X-13645807Y83117762D01*
X-13645807Y83117762D02*
X-12693426Y83117762D01*
D12*
X-10148000Y82030000D02*
X139164000Y82030000D01*
D11*
X-26121997Y124257761D02*
X-25455331Y122257761D01*
X-25455331Y122257761D02*
X-24788664Y124257761D01*
X-24121997Y123019666D02*
X-22598187Y123019666D01*
X-21741045Y122353000D02*
X-21455331Y122257761D01*
X-21455331Y122257761D02*
X-20979140Y122257761D01*
X-20979140Y122257761D02*
X-20788664Y122353000D01*
X-20788664Y122353000D02*
X-20693426Y122448238D01*
X-20693426Y122448238D02*
X-20598188Y122638714D01*
X-20598188Y122638714D02*
X-20598188Y122829190D01*
X-20598188Y122829190D02*
X-20693426Y123019666D01*
X-20693426Y123019666D02*
X-20788664Y123114904D01*
X-20788664Y123114904D02*
X-20979140Y123210142D01*
X-20979140Y123210142D02*
X-21360093Y123305380D01*
X-21360093Y123305380D02*
X-21550569Y123400619D01*
X-21550569Y123400619D02*
X-21645807Y123495857D01*
X-21645807Y123495857D02*
X-21741045Y123686333D01*
X-21741045Y123686333D02*
X-21741045Y123876809D01*
X-21741045Y123876809D02*
X-21645807Y124067285D01*
X-21645807Y124067285D02*
X-21550569Y124162523D01*
X-21550569Y124162523D02*
X-21360093Y124257761D01*
X-21360093Y124257761D02*
X-20883902Y124257761D01*
X-20883902Y124257761D02*
X-20598188Y124162523D01*
X-18598188Y122448238D02*
X-18693426Y122353000D01*
X-18693426Y122353000D02*
X-18979140Y122257761D01*
X-18979140Y122257761D02*
X-19169616Y122257761D01*
X-19169616Y122257761D02*
X-19455331Y122353000D01*
X-19455331Y122353000D02*
X-19645807Y122543476D01*
X-19645807Y122543476D02*
X-19741045Y122733952D01*
X-19741045Y122733952D02*
X-19836283Y123114904D01*
X-19836283Y123114904D02*
X-19836283Y123400619D01*
X-19836283Y123400619D02*
X-19741045Y123781571D01*
X-19741045Y123781571D02*
X-19645807Y123972047D01*
X-19645807Y123972047D02*
X-19455331Y124162523D01*
X-19455331Y124162523D02*
X-19169616Y124257761D01*
X-19169616Y124257761D02*
X-18979140Y124257761D01*
X-18979140Y124257761D02*
X-18693426Y124162523D01*
X-18693426Y124162523D02*
X-18598188Y124067285D01*
X-17360093Y124257761D02*
X-16979140Y124257761D01*
X-16979140Y124257761D02*
X-16788664Y124162523D01*
X-16788664Y124162523D02*
X-16598188Y123972047D01*
X-16598188Y123972047D02*
X-16502950Y123591095D01*
X-16502950Y123591095D02*
X-16502950Y122924428D01*
X-16502950Y122924428D02*
X-16598188Y122543476D01*
X-16598188Y122543476D02*
X-16788664Y122353000D01*
X-16788664Y122353000D02*
X-16979140Y122257761D01*
X-16979140Y122257761D02*
X-17360093Y122257761D01*
X-17360093Y122257761D02*
X-17550569Y122353000D01*
X-17550569Y122353000D02*
X-17741045Y122543476D01*
X-17741045Y122543476D02*
X-17836283Y122924428D01*
X-17836283Y122924428D02*
X-17836283Y123591095D01*
X-17836283Y123591095D02*
X-17741045Y123972047D01*
X-17741045Y123972047D02*
X-17550569Y124162523D01*
X-17550569Y124162523D02*
X-17360093Y124257761D01*
X-14502950Y122257761D02*
X-15169617Y123210142D01*
X-15645807Y122257761D02*
X-15645807Y124257761D01*
X-15645807Y124257761D02*
X-14883902Y124257761D01*
X-14883902Y124257761D02*
X-14693426Y124162523D01*
X-14693426Y124162523D02*
X-14598188Y124067285D01*
X-14598188Y124067285D02*
X-14502950Y123876809D01*
X-14502950Y123876809D02*
X-14502950Y123591095D01*
X-14502950Y123591095D02*
X-14598188Y123400619D01*
X-14598188Y123400619D02*
X-14693426Y123305380D01*
X-14693426Y123305380D02*
X-14883902Y123210142D01*
X-14883902Y123210142D02*
X-15645807Y123210142D01*
X-13645807Y123305380D02*
X-12979140Y123305380D01*
X-12693426Y122257761D02*
X-13645807Y122257761D01*
X-13645807Y122257761D02*
X-13645807Y124257761D01*
X-13645807Y124257761D02*
X-12693426Y124257761D01*
D12*
X-10148000Y123170000D02*
X139164000Y123170000D01*
D11*
X-26121997Y165397761D02*
X-25455331Y163397761D01*
X-25455331Y163397761D02*
X-24788664Y165397761D01*
X-24121997Y164159666D02*
X-22598187Y164159666D01*
X-21741045Y163493000D02*
X-21455331Y163397761D01*
X-21455331Y163397761D02*
X-20979140Y163397761D01*
X-20979140Y163397761D02*
X-20788664Y163493000D01*
X-20788664Y163493000D02*
X-20693426Y163588238D01*
X-20693426Y163588238D02*
X-20598188Y163778714D01*
X-20598188Y163778714D02*
X-20598188Y163969190D01*
X-20598188Y163969190D02*
X-20693426Y164159666D01*
X-20693426Y164159666D02*
X-20788664Y164254904D01*
X-20788664Y164254904D02*
X-20979140Y164350142D01*
X-20979140Y164350142D02*
X-21360093Y164445380D01*
X-21360093Y164445380D02*
X-21550569Y164540619D01*
X-21550569Y164540619D02*
X-21645807Y164635857D01*
X-21645807Y164635857D02*
X-21741045Y164826333D01*
X-21741045Y164826333D02*
X-21741045Y165016809D01*
X-21741045Y165016809D02*
X-21645807Y165207285D01*
X-21645807Y165207285D02*
X-21550569Y165302523D01*
X-21550569Y165302523D02*
X-21360093Y165397761D01*
X-21360093Y165397761D02*
X-20883902Y165397761D01*
X-20883902Y165397761D02*
X-20598188Y165302523D01*
X-18598188Y163588238D02*
X-18693426Y163493000D01*
X-18693426Y163493000D02*
X-18979140Y163397761D01*
X-18979140Y163397761D02*
X-19169616Y163397761D01*
X-19169616Y163397761D02*
X-19455331Y163493000D01*
X-19455331Y163493000D02*
X-19645807Y163683476D01*
X-19645807Y163683476D02*
X-19741045Y163873952D01*
X-19741045Y163873952D02*
X-19836283Y164254904D01*
X-19836283Y164254904D02*
X-19836283Y164540619D01*
X-19836283Y164540619D02*
X-19741045Y164921571D01*
X-19741045Y164921571D02*
X-19645807Y165112047D01*
X-19645807Y165112047D02*
X-19455331Y165302523D01*
X-19455331Y165302523D02*
X-19169616Y165397761D01*
X-19169616Y165397761D02*
X-18979140Y165397761D01*
X-18979140Y165397761D02*
X-18693426Y165302523D01*
X-18693426Y165302523D02*
X-18598188Y165207285D01*
X-17360093Y165397761D02*
X-16979140Y165397761D01*
X-16979140Y165397761D02*
X-16788664Y165302523D01*
X-16788664Y165302523D02*
X-16598188Y165112047D01*
X-16598188Y165112047D02*
X-16502950Y164731095D01*
X-16502950Y164731095D02*
X-16502950Y164064428D01*
X-16502950Y164064428D02*
X-16598188Y163683476D01*
X-16598188Y163683476D02*
X-16788664Y163493000D01*
X-16788664Y163493000D02*
X-16979140Y163397761D01*
X-16979140Y163397761D02*
X-17360093Y163397761D01*
X-17360093Y163397761D02*
X-17550569Y163493000D01*
X-17550569Y163493000D02*
X-17741045Y163683476D01*
X-17741045Y163683476D02*
X-17836283Y164064428D01*
X-17836283Y164064428D02*
X-17836283Y164731095D01*
X-17836283Y164731095D02*
X-17741045Y165112047D01*
X-17741045Y165112047D02*
X-17550569Y165302523D01*
X-17550569Y165302523D02*
X-17360093Y165397761D01*
X-14502950Y163397761D02*
X-15169617Y164350142D01*
X-15645807Y163397761D02*
X-15645807Y165397761D01*
X-15645807Y165397761D02*
X-14883902Y165397761D01*
X-14883902Y165397761D02*
X-14693426Y165302523D01*
X-14693426Y165302523D02*
X-14598188Y165207285D01*
X-14598188Y165207285D02*
X-14502950Y165016809D01*
X-14502950Y165016809D02*
X-14502950Y164731095D01*
X-14502950Y164731095D02*
X-14598188Y164540619D01*
X-14598188Y164540619D02*
X-14693426Y164445380D01*
X-14693426Y164445380D02*
X-14883902Y164350142D01*
X-14883902Y164350142D02*
X-15645807Y164350142D01*
X-13645807Y164445380D02*
X-12979140Y164445380D01*
X-12693426Y163397761D02*
X-13645807Y163397761D01*
X-13645807Y163397761D02*
X-13645807Y165397761D01*
X-13645807Y165397761D02*
X-12693426Y165397761D01*
D12*
X-10148000Y164310000D02*
X139164000Y164310000D01*
M02*
