%TF.GenerationSoftware,KiCad,Pcbnew,9.0.1*%
%TF.CreationDate,2025-04-15T12:31:11-06:00*%
%TF.ProjectId,SparkFun_GNSS_DAN-F10N_panelized,53706172-6b46-4756-9e5f-474e53535f44,rev?*%
%TF.SameCoordinates,Original*%
%TF.FileFunction,Soldermask,Top*%
%TF.FilePolarity,Negative*%
%FSLAX46Y46*%
G04 Gerber Fmt 4.6, Leading zero omitted, Abs format (unit mm)*
G04 Created by KiCad (PCBNEW 9.0.1) date 2025-04-15 12:31:11*
%MOMM*%
%LPD*%
G01*
G04 APERTURE LIST*
G04 Aperture macros list*
%AMRoundRect*
0 Rectangle with rounded corners*
0 $1 Rounding radius*
0 $2 $3 $4 $5 $6 $7 $8 $9 X,Y pos of 4 corners*
0 Add a 4 corners polygon primitive as box body*
4,1,4,$2,$3,$4,$5,$6,$7,$8,$9,$2,$3,0*
0 Add four circle primitives for the rounded corners*
1,1,$1+$1,$2,$3*
1,1,$1+$1,$4,$5*
1,1,$1+$1,$6,$7*
1,1,$1+$1,$8,$9*
0 Add four rect primitives between the rounded corners*
20,1,$1+$1,$2,$3,$4,$5,0*
20,1,$1+$1,$4,$5,$6,$7,0*
20,1,$1+$1,$6,$7,$8,$9,0*
20,1,$1+$1,$8,$9,$2,$3,0*%
G04 Aperture macros list end*
%ADD10C,0.000000*%
%ADD11C,3.000000*%
%ADD12C,3.200000*%
%ADD13RoundRect,0.225000X-0.300000X0.225000X-0.300000X-0.225000X0.300000X-0.225000X0.300000X0.225000X0*%
%ADD14C,2.400000*%
%ADD15RoundRect,0.050000X-0.750000X-0.800000X0.750000X-0.800000X0.750000X0.800000X-0.750000X0.800000X0*%
%ADD16RoundRect,0.050000X0.415000X-0.315000X0.415000X0.315000X-0.415000X0.315000X-0.415000X-0.315000X0*%
%ADD17RoundRect,0.250000X-0.275000X0.250000X-0.275000X-0.250000X0.275000X-0.250000X0.275000X0.250000X0*%
%ADD18RoundRect,0.050000X0.600000X-0.275000X0.600000X0.275000X-0.600000X0.275000X-0.600000X-0.275000X0*%
%ADD19C,1.979600*%
%ADD20RoundRect,0.050000X-0.317500X-0.635000X0.317500X-0.635000X0.317500X0.635000X-0.317500X0.635000X0*%
%ADD21RoundRect,0.050000X0.525000X0.500000X-0.525000X0.500000X-0.525000X-0.500000X0.525000X-0.500000X0*%
%ADD22RoundRect,0.050000X1.100000X0.425000X-1.100000X0.425000X-1.100000X-0.425000X1.100000X-0.425000X0*%
%ADD23RoundRect,0.050000X0.330200X0.635000X-0.330200X0.635000X-0.330200X-0.635000X0.330200X-0.635000X0*%
%ADD24RoundRect,0.050000X0.317500X0.635000X-0.317500X0.635000X-0.317500X-0.635000X0.317500X-0.635000X0*%
%ADD25RoundRect,0.250000X0.275000X-0.250000X0.275000X0.250000X-0.275000X0.250000X-0.275000X-0.250000X0*%
%ADD26RoundRect,0.250000X-0.250000X-0.275000X0.250000X-0.275000X0.250000X0.275000X-0.250000X0.275000X0*%
%ADD27RoundRect,0.050000X-0.600000X0.300000X-0.600000X-0.300000X0.600000X-0.300000X0.600000X0.300000X0*%
%ADD28RoundRect,0.225000X0.225000X0.300000X-0.225000X0.300000X-0.225000X-0.300000X0.225000X-0.300000X0*%
%ADD29RoundRect,0.270409X-1.454591X0.392091X-1.454591X-0.392091X1.454591X-0.392091X1.454591X0.392091X0*%
%ADD30RoundRect,0.050000X0.400000X0.600000X-0.400000X0.600000X-0.400000X-0.600000X0.400000X-0.600000X0*%
%ADD31RoundRect,0.050000X-0.600000X0.275000X-0.600000X-0.275000X0.600000X-0.275000X0.600000X0.275000X0*%
%ADD32RoundRect,0.225000X-0.225000X-0.300000X0.225000X-0.300000X0.225000X0.300000X-0.225000X0.300000X0*%
%ADD33RoundRect,0.165000X0.195000X-0.165000X0.195000X0.165000X-0.195000X0.165000X-0.195000X-0.165000X0*%
%ADD34C,0.600000*%
%ADD35RoundRect,0.243750X0.243750X0.281250X-0.243750X0.281250X-0.243750X-0.281250X0.243750X-0.281250X0*%
%ADD36RoundRect,0.050000X-0.415000X0.315000X-0.415000X-0.315000X0.415000X-0.315000X0.415000X0.315000X0*%
%ADD37RoundRect,0.050000X-0.635000X0.330200X-0.635000X-0.330200X0.635000X-0.330200X0.635000X0.330200X0*%
%ADD38C,0.750000*%
%ADD39RoundRect,0.050000X0.500000X-0.150000X0.500000X0.150000X-0.500000X0.150000X-0.500000X-0.150000X0*%
%ADD40RoundRect,0.050000X-0.500000X0.150000X-0.500000X-0.150000X0.500000X-0.150000X0.500000X0.150000X0*%
%ADD41RoundRect,0.050000X0.500000X-0.300000X0.500000X0.300000X-0.500000X0.300000X-0.500000X-0.300000X0*%
%ADD42RoundRect,0.050000X-0.500000X0.300000X-0.500000X-0.300000X0.500000X-0.300000X0.500000X0.300000X0*%
%ADD43O,1.700000X1.100000*%
%ADD44O,2.200000X1.100000*%
%ADD45RoundRect,0.050000X-0.330200X-0.635000X0.330200X-0.635000X0.330200X0.635000X-0.330200X0.635000X0*%
G04 APERTURE END LIST*
D10*
%TO.C,BT1*%
G36*
X99971000Y130942145D02*
G01*
X97485645Y133427500D01*
X99971000Y133427500D01*
X99971000Y130942145D01*
G37*
G36*
X99966000Y128022500D02*
G01*
X95766000Y128022500D01*
X95766000Y129722500D01*
X99966000Y129722500D01*
X99966000Y128022500D01*
G37*
G36*
X99971000Y89802145D02*
G01*
X97485645Y92287500D01*
X99971000Y92287500D01*
X99971000Y89802145D01*
G37*
G36*
X99966000Y86882500D02*
G01*
X95766000Y86882500D01*
X95766000Y88582500D01*
X99966000Y88582500D01*
X99966000Y86882500D01*
G37*
G36*
X99971000Y48662145D02*
G01*
X97485645Y51147500D01*
X99971000Y51147500D01*
X99971000Y48662145D01*
G37*
G36*
X99966000Y45742500D02*
G01*
X95766000Y45742500D01*
X95766000Y47442500D01*
X99966000Y47442500D01*
X99966000Y45742500D01*
G37*
G36*
X99971000Y7522145D02*
G01*
X97485645Y10007500D01*
X99971000Y10007500D01*
X99971000Y7522145D01*
G37*
G36*
X99966000Y4602500D02*
G01*
X95766000Y4602500D01*
X95766000Y6302500D01*
X99966000Y6302500D01*
X99966000Y4602500D01*
G37*
G36*
X55783000Y130942145D02*
G01*
X53297645Y133427500D01*
X55783000Y133427500D01*
X55783000Y130942145D01*
G37*
G36*
X55778000Y128022500D02*
G01*
X51578000Y128022500D01*
X51578000Y129722500D01*
X55778000Y129722500D01*
X55778000Y128022500D01*
G37*
G36*
X55783000Y89802145D02*
G01*
X53297645Y92287500D01*
X55783000Y92287500D01*
X55783000Y89802145D01*
G37*
G36*
X55778000Y86882500D02*
G01*
X51578000Y86882500D01*
X51578000Y88582500D01*
X55778000Y88582500D01*
X55778000Y86882500D01*
G37*
G36*
X55783000Y48662145D02*
G01*
X53297645Y51147500D01*
X55783000Y51147500D01*
X55783000Y48662145D01*
G37*
G36*
X55778000Y45742500D02*
G01*
X51578000Y45742500D01*
X51578000Y47442500D01*
X55778000Y47442500D01*
X55778000Y45742500D01*
G37*
G36*
X55783000Y7522145D02*
G01*
X53297645Y10007500D01*
X55783000Y10007500D01*
X55783000Y7522145D01*
G37*
G36*
X55778000Y4602500D02*
G01*
X51578000Y4602500D01*
X51578000Y6302500D01*
X55778000Y6302500D01*
X55778000Y4602500D01*
G37*
G36*
X11595000Y130942145D02*
G01*
X9109645Y133427500D01*
X11595000Y133427500D01*
X11595000Y130942145D01*
G37*
G36*
X11590000Y128022500D02*
G01*
X7390000Y128022500D01*
X7390000Y129722500D01*
X11590000Y129722500D01*
X11590000Y128022500D01*
G37*
G36*
X11595000Y89802145D02*
G01*
X9109645Y92287500D01*
X11595000Y92287500D01*
X11595000Y89802145D01*
G37*
G36*
X11590000Y86882500D02*
G01*
X7390000Y86882500D01*
X7390000Y88582500D01*
X11590000Y88582500D01*
X11590000Y86882500D01*
G37*
G36*
X11595000Y48662145D02*
G01*
X9109645Y51147500D01*
X11595000Y51147500D01*
X11595000Y48662145D01*
G37*
G36*
X11590000Y45742500D02*
G01*
X7390000Y45742500D01*
X7390000Y47442500D01*
X11590000Y47442500D01*
X11590000Y45742500D01*
G37*
%TO.C,JP11*%
G36*
X91805000Y135078600D02*
G01*
X91297000Y135078600D01*
X91297000Y136526400D01*
X91805000Y136526400D01*
X91805000Y135078600D01*
G37*
G36*
X91805000Y93938600D02*
G01*
X91297000Y93938600D01*
X91297000Y95386400D01*
X91805000Y95386400D01*
X91805000Y93938600D01*
G37*
G36*
X91805000Y52798600D02*
G01*
X91297000Y52798600D01*
X91297000Y54246400D01*
X91805000Y54246400D01*
X91805000Y52798600D01*
G37*
G36*
X91805000Y11658600D02*
G01*
X91297000Y11658600D01*
X91297000Y13106400D01*
X91805000Y13106400D01*
X91805000Y11658600D01*
G37*
G36*
X47617000Y135078600D02*
G01*
X47109000Y135078600D01*
X47109000Y136526400D01*
X47617000Y136526400D01*
X47617000Y135078600D01*
G37*
G36*
X47617000Y93938600D02*
G01*
X47109000Y93938600D01*
X47109000Y95386400D01*
X47617000Y95386400D01*
X47617000Y93938600D01*
G37*
G36*
X47617000Y52798600D02*
G01*
X47109000Y52798600D01*
X47109000Y54246400D01*
X47617000Y54246400D01*
X47617000Y52798600D01*
G37*
G36*
X47617000Y11658600D02*
G01*
X47109000Y11658600D01*
X47109000Y13106400D01*
X47617000Y13106400D01*
X47617000Y11658600D01*
G37*
G36*
X3429000Y135078600D02*
G01*
X2921000Y135078600D01*
X2921000Y136526400D01*
X3429000Y136526400D01*
X3429000Y135078600D01*
G37*
G36*
X3429000Y93938600D02*
G01*
X2921000Y93938600D01*
X2921000Y95386400D01*
X3429000Y95386400D01*
X3429000Y93938600D01*
G37*
G36*
X3429000Y52798600D02*
G01*
X2921000Y52798600D01*
X2921000Y54246400D01*
X3429000Y54246400D01*
X3429000Y52798600D01*
G37*
%TO.C,JP2*%
G36*
X118475000Y127307000D02*
G01*
X117967000Y127307000D01*
X117967000Y127788000D01*
X118475000Y127788000D01*
X118475000Y127307000D01*
G37*
G36*
X118475000Y86167000D02*
G01*
X117967000Y86167000D01*
X117967000Y86648000D01*
X118475000Y86648000D01*
X118475000Y86167000D01*
G37*
G36*
X118475000Y45027000D02*
G01*
X117967000Y45027000D01*
X117967000Y45508000D01*
X118475000Y45508000D01*
X118475000Y45027000D01*
G37*
G36*
X118475000Y3887000D02*
G01*
X117967000Y3887000D01*
X117967000Y4368000D01*
X118475000Y4368000D01*
X118475000Y3887000D01*
G37*
G36*
X74287000Y127307000D02*
G01*
X73779000Y127307000D01*
X73779000Y127788000D01*
X74287000Y127788000D01*
X74287000Y127307000D01*
G37*
G36*
X74287000Y86167000D02*
G01*
X73779000Y86167000D01*
X73779000Y86648000D01*
X74287000Y86648000D01*
X74287000Y86167000D01*
G37*
G36*
X74287000Y45027000D02*
G01*
X73779000Y45027000D01*
X73779000Y45508000D01*
X74287000Y45508000D01*
X74287000Y45027000D01*
G37*
G36*
X74287000Y3887000D02*
G01*
X73779000Y3887000D01*
X73779000Y4368000D01*
X74287000Y4368000D01*
X74287000Y3887000D01*
G37*
G36*
X30099000Y127307000D02*
G01*
X29591000Y127307000D01*
X29591000Y127788000D01*
X30099000Y127788000D01*
X30099000Y127307000D01*
G37*
G36*
X30099000Y86167000D02*
G01*
X29591000Y86167000D01*
X29591000Y86648000D01*
X30099000Y86648000D01*
X30099000Y86167000D01*
G37*
G36*
X30099000Y45027000D02*
G01*
X29591000Y45027000D01*
X29591000Y45508000D01*
X30099000Y45508000D01*
X30099000Y45027000D01*
G37*
%TO.C,JP10*%
G36*
X98790000Y152072000D02*
G01*
X98282000Y152072000D01*
X98282000Y152553000D01*
X98790000Y152553000D01*
X98790000Y152072000D01*
G37*
G36*
X98790000Y110932000D02*
G01*
X98282000Y110932000D01*
X98282000Y111413000D01*
X98790000Y111413000D01*
X98790000Y110932000D01*
G37*
G36*
X98790000Y69792000D02*
G01*
X98282000Y69792000D01*
X98282000Y70273000D01*
X98790000Y70273000D01*
X98790000Y69792000D01*
G37*
G36*
X98790000Y28652000D02*
G01*
X98282000Y28652000D01*
X98282000Y29133000D01*
X98790000Y29133000D01*
X98790000Y28652000D01*
G37*
G36*
X54602000Y152072000D02*
G01*
X54094000Y152072000D01*
X54094000Y152553000D01*
X54602000Y152553000D01*
X54602000Y152072000D01*
G37*
G36*
X54602000Y110932000D02*
G01*
X54094000Y110932000D01*
X54094000Y111413000D01*
X54602000Y111413000D01*
X54602000Y110932000D01*
G37*
G36*
X54602000Y69792000D02*
G01*
X54094000Y69792000D01*
X54094000Y70273000D01*
X54602000Y70273000D01*
X54602000Y69792000D01*
G37*
G36*
X54602000Y28652000D02*
G01*
X54094000Y28652000D01*
X54094000Y29133000D01*
X54602000Y29133000D01*
X54602000Y28652000D01*
G37*
G36*
X10414000Y152072000D02*
G01*
X9906000Y152072000D01*
X9906000Y152553000D01*
X10414000Y152553000D01*
X10414000Y152072000D01*
G37*
G36*
X10414000Y110932000D02*
G01*
X9906000Y110932000D01*
X9906000Y111413000D01*
X10414000Y111413000D01*
X10414000Y110932000D01*
G37*
G36*
X10414000Y69792000D02*
G01*
X9906000Y69792000D01*
X9906000Y70273000D01*
X10414000Y70273000D01*
X10414000Y69792000D01*
G37*
%TO.C,JP7*%
G36*
X90521500Y153328500D02*
G01*
X90040500Y153328500D01*
X90040500Y153836500D01*
X90521500Y153836500D01*
X90521500Y153328500D01*
G37*
G36*
X90521500Y112188500D02*
G01*
X90040500Y112188500D01*
X90040500Y112696500D01*
X90521500Y112696500D01*
X90521500Y112188500D01*
G37*
G36*
X90521500Y71048500D02*
G01*
X90040500Y71048500D01*
X90040500Y71556500D01*
X90521500Y71556500D01*
X90521500Y71048500D01*
G37*
G36*
X90521500Y29908500D02*
G01*
X90040500Y29908500D01*
X90040500Y30416500D01*
X90521500Y30416500D01*
X90521500Y29908500D01*
G37*
G36*
X46333500Y153328500D02*
G01*
X45852500Y153328500D01*
X45852500Y153836500D01*
X46333500Y153836500D01*
X46333500Y153328500D01*
G37*
G36*
X46333500Y112188500D02*
G01*
X45852500Y112188500D01*
X45852500Y112696500D01*
X46333500Y112696500D01*
X46333500Y112188500D01*
G37*
G36*
X46333500Y71048500D02*
G01*
X45852500Y71048500D01*
X45852500Y71556500D01*
X46333500Y71556500D01*
X46333500Y71048500D01*
G37*
G36*
X46333500Y29908500D02*
G01*
X45852500Y29908500D01*
X45852500Y30416500D01*
X46333500Y30416500D01*
X46333500Y29908500D01*
G37*
G36*
X2145500Y153328500D02*
G01*
X1664500Y153328500D01*
X1664500Y153836500D01*
X2145500Y153836500D01*
X2145500Y153328500D01*
G37*
G36*
X2145500Y112188500D02*
G01*
X1664500Y112188500D01*
X1664500Y112696500D01*
X2145500Y112696500D01*
X2145500Y112188500D01*
G37*
G36*
X2145500Y71048500D02*
G01*
X1664500Y71048500D01*
X1664500Y71556500D01*
X2145500Y71556500D01*
X2145500Y71048500D01*
G37*
%TO.C,JP3*%
G36*
X118475000Y124767000D02*
G01*
X117967000Y124767000D01*
X117967000Y125248000D01*
X118475000Y125248000D01*
X118475000Y124767000D01*
G37*
G36*
X118475000Y83627000D02*
G01*
X117967000Y83627000D01*
X117967000Y84108000D01*
X118475000Y84108000D01*
X118475000Y83627000D01*
G37*
G36*
X118475000Y42487000D02*
G01*
X117967000Y42487000D01*
X117967000Y42968000D01*
X118475000Y42968000D01*
X118475000Y42487000D01*
G37*
G36*
X118475000Y1347000D02*
G01*
X117967000Y1347000D01*
X117967000Y1828000D01*
X118475000Y1828000D01*
X118475000Y1347000D01*
G37*
G36*
X74287000Y124767000D02*
G01*
X73779000Y124767000D01*
X73779000Y125248000D01*
X74287000Y125248000D01*
X74287000Y124767000D01*
G37*
G36*
X74287000Y83627000D02*
G01*
X73779000Y83627000D01*
X73779000Y84108000D01*
X74287000Y84108000D01*
X74287000Y83627000D01*
G37*
G36*
X74287000Y42487000D02*
G01*
X73779000Y42487000D01*
X73779000Y42968000D01*
X74287000Y42968000D01*
X74287000Y42487000D01*
G37*
G36*
X74287000Y1347000D02*
G01*
X73779000Y1347000D01*
X73779000Y1828000D01*
X74287000Y1828000D01*
X74287000Y1347000D01*
G37*
G36*
X30099000Y124767000D02*
G01*
X29591000Y124767000D01*
X29591000Y125248000D01*
X30099000Y125248000D01*
X30099000Y124767000D01*
G37*
G36*
X30099000Y83627000D02*
G01*
X29591000Y83627000D01*
X29591000Y84108000D01*
X30099000Y84108000D01*
X30099000Y83627000D01*
G37*
G36*
X30099000Y42487000D02*
G01*
X29591000Y42487000D01*
X29591000Y42968000D01*
X30099000Y42968000D01*
X30099000Y42487000D01*
G37*
%TO.C,JP9*%
G36*
X98790000Y154612000D02*
G01*
X98282000Y154612000D01*
X98282000Y155093000D01*
X98790000Y155093000D01*
X98790000Y154612000D01*
G37*
G36*
X98790000Y113472000D02*
G01*
X98282000Y113472000D01*
X98282000Y113953000D01*
X98790000Y113953000D01*
X98790000Y113472000D01*
G37*
G36*
X98790000Y72332000D02*
G01*
X98282000Y72332000D01*
X98282000Y72813000D01*
X98790000Y72813000D01*
X98790000Y72332000D01*
G37*
G36*
X98790000Y31192000D02*
G01*
X98282000Y31192000D01*
X98282000Y31673000D01*
X98790000Y31673000D01*
X98790000Y31192000D01*
G37*
G36*
X54602000Y154612000D02*
G01*
X54094000Y154612000D01*
X54094000Y155093000D01*
X54602000Y155093000D01*
X54602000Y154612000D01*
G37*
G36*
X54602000Y113472000D02*
G01*
X54094000Y113472000D01*
X54094000Y113953000D01*
X54602000Y113953000D01*
X54602000Y113472000D01*
G37*
G36*
X54602000Y72332000D02*
G01*
X54094000Y72332000D01*
X54094000Y72813000D01*
X54602000Y72813000D01*
X54602000Y72332000D01*
G37*
G36*
X54602000Y31192000D02*
G01*
X54094000Y31192000D01*
X54094000Y31673000D01*
X54602000Y31673000D01*
X54602000Y31192000D01*
G37*
G36*
X10414000Y154612000D02*
G01*
X9906000Y154612000D01*
X9906000Y155093000D01*
X10414000Y155093000D01*
X10414000Y154612000D01*
G37*
G36*
X10414000Y113472000D02*
G01*
X9906000Y113472000D01*
X9906000Y113953000D01*
X10414000Y113953000D01*
X10414000Y113472000D01*
G37*
G36*
X10414000Y72332000D02*
G01*
X9906000Y72332000D01*
X9906000Y72813000D01*
X10414000Y72813000D01*
X10414000Y72332000D01*
G37*
G36*
X10414000Y31192000D02*
G01*
X9906000Y31192000D01*
X9906000Y31673000D01*
X10414000Y31673000D01*
X10414000Y31192000D01*
G37*
%TO.C,JP3*%
G36*
X30099000Y1347000D02*
G01*
X29591000Y1347000D01*
X29591000Y1828000D01*
X30099000Y1828000D01*
X30099000Y1347000D01*
G37*
%TO.C,JP7*%
G36*
X2145500Y29908500D02*
G01*
X1664500Y29908500D01*
X1664500Y30416500D01*
X2145500Y30416500D01*
X2145500Y29908500D01*
G37*
%TO.C,JP10*%
G36*
X10414000Y28652000D02*
G01*
X9906000Y28652000D01*
X9906000Y29133000D01*
X10414000Y29133000D01*
X10414000Y28652000D01*
G37*
%TO.C,JP2*%
G36*
X30099000Y3887000D02*
G01*
X29591000Y3887000D01*
X29591000Y4368000D01*
X30099000Y4368000D01*
X30099000Y3887000D01*
G37*
%TO.C,JP11*%
G36*
X3429000Y11658600D02*
G01*
X2921000Y11658600D01*
X2921000Y13106400D01*
X3429000Y13106400D01*
X3429000Y11658600D01*
G37*
%TO.C,BT1*%
G36*
X11595000Y7522145D02*
G01*
X9109645Y10007500D01*
X11595000Y10007500D01*
X11595000Y7522145D01*
G37*
G36*
X11590000Y4602500D02*
G01*
X7390000Y4602500D01*
X7390000Y6302500D01*
X11590000Y6302500D01*
X11590000Y4602500D01*
G37*
%TD*%
D11*
%TO.C,*%
X134151500Y162060000D03*
%TD*%
%TO.C,*%
X-5135500Y162060000D03*
%TD*%
%TO.C,*%
X-5135500Y2000000D03*
%TD*%
D12*
%TO.C,ST4*%
X90916000Y125960000D03*
%TD*%
%TO.C,ST4*%
X90916000Y84820000D03*
%TD*%
%TO.C,ST4*%
X90916000Y43680000D03*
%TD*%
%TO.C,ST4*%
X90916000Y2540000D03*
%TD*%
%TO.C,ST4*%
X46728000Y125960000D03*
%TD*%
%TO.C,ST4*%
X46728000Y84820000D03*
%TD*%
%TO.C,ST4*%
X46728000Y43680000D03*
%TD*%
%TO.C,ST4*%
X46728000Y2540000D03*
%TD*%
%TO.C,ST4*%
X2540000Y125960000D03*
%TD*%
%TO.C,ST4*%
X2540000Y84820000D03*
%TD*%
%TO.C,ST4*%
X2540000Y43680000D03*
%TD*%
D13*
%TO.C,R7*%
X101076000Y133135000D03*
X101076000Y131485000D03*
%TD*%
%TO.C,R7*%
X101076000Y91995000D03*
X101076000Y90345000D03*
%TD*%
%TO.C,R7*%
X101076000Y50855000D03*
X101076000Y49205000D03*
%TD*%
%TO.C,R7*%
X101076000Y9715000D03*
X101076000Y8065000D03*
%TD*%
%TO.C,R7*%
X56888000Y133135000D03*
X56888000Y131485000D03*
%TD*%
%TO.C,R7*%
X56888000Y91995000D03*
X56888000Y90345000D03*
%TD*%
%TO.C,R7*%
X56888000Y50855000D03*
X56888000Y49205000D03*
%TD*%
%TO.C,R7*%
X56888000Y9715000D03*
X56888000Y8065000D03*
%TD*%
%TO.C,R7*%
X12700000Y133135000D03*
X12700000Y131485000D03*
%TD*%
%TO.C,R7*%
X12700000Y91995000D03*
X12700000Y90345000D03*
%TD*%
%TO.C,R7*%
X12700000Y50855000D03*
X12700000Y49205000D03*
%TD*%
D14*
%TO.C,D6*%
X123301000Y131992500D03*
D15*
X125101000Y131992500D03*
X121501000Y131992500D03*
%TD*%
D14*
%TO.C,D6*%
X123301000Y90852500D03*
D15*
X125101000Y90852500D03*
X121501000Y90852500D03*
%TD*%
D14*
%TO.C,D6*%
X123301000Y49712500D03*
D15*
X125101000Y49712500D03*
X121501000Y49712500D03*
%TD*%
D14*
%TO.C,D6*%
X123301000Y8572500D03*
D15*
X125101000Y8572500D03*
X121501000Y8572500D03*
%TD*%
D14*
%TO.C,D6*%
X79113000Y131992500D03*
D15*
X80913000Y131992500D03*
X77313000Y131992500D03*
%TD*%
D14*
%TO.C,D6*%
X79113000Y90852500D03*
D15*
X80913000Y90852500D03*
X77313000Y90852500D03*
%TD*%
D14*
%TO.C,D6*%
X79113000Y49712500D03*
D15*
X80913000Y49712500D03*
X77313000Y49712500D03*
%TD*%
D14*
%TO.C,D6*%
X79113000Y8572500D03*
D15*
X80913000Y8572500D03*
X77313000Y8572500D03*
%TD*%
D14*
%TO.C,D6*%
X34925000Y131992500D03*
D15*
X36725000Y131992500D03*
X33125000Y131992500D03*
%TD*%
D14*
%TO.C,D6*%
X34925000Y90852500D03*
D15*
X36725000Y90852500D03*
X33125000Y90852500D03*
%TD*%
D14*
%TO.C,D6*%
X34925000Y49712500D03*
D15*
X36725000Y49712500D03*
X33125000Y49712500D03*
%TD*%
D12*
%TO.C,ST3*%
X90916000Y161520000D03*
%TD*%
%TO.C,ST3*%
X90916000Y120380000D03*
%TD*%
%TO.C,ST3*%
X90916000Y79240000D03*
%TD*%
%TO.C,ST3*%
X90916000Y38100000D03*
%TD*%
%TO.C,ST3*%
X46728000Y161520000D03*
%TD*%
%TO.C,ST3*%
X46728000Y120380000D03*
%TD*%
%TO.C,ST3*%
X46728000Y79240000D03*
%TD*%
%TO.C,ST3*%
X46728000Y38100000D03*
%TD*%
%TO.C,ST3*%
X2540000Y161520000D03*
%TD*%
%TO.C,ST3*%
X2540000Y120380000D03*
%TD*%
%TO.C,ST3*%
X2540000Y79240000D03*
%TD*%
D16*
%TO.C,D3*%
X95361000Y134970000D03*
X95361000Y137270000D03*
%TD*%
%TO.C,D3*%
X95361000Y93830000D03*
X95361000Y96130000D03*
%TD*%
%TO.C,D3*%
X95361000Y52690000D03*
X95361000Y54990000D03*
%TD*%
%TO.C,D3*%
X95361000Y11550000D03*
X95361000Y13850000D03*
%TD*%
%TO.C,D3*%
X51173000Y134970000D03*
X51173000Y137270000D03*
%TD*%
%TO.C,D3*%
X51173000Y93830000D03*
X51173000Y96130000D03*
%TD*%
%TO.C,D3*%
X51173000Y52690000D03*
X51173000Y54990000D03*
%TD*%
%TO.C,D3*%
X51173000Y11550000D03*
X51173000Y13850000D03*
%TD*%
%TO.C,D3*%
X6985000Y134970000D03*
X6985000Y137270000D03*
%TD*%
%TO.C,D3*%
X6985000Y93830000D03*
X6985000Y96130000D03*
%TD*%
%TO.C,D3*%
X6985000Y52690000D03*
X6985000Y54990000D03*
%TD*%
D17*
%TO.C,C17*%
X114728500Y136895000D03*
X114728500Y135345000D03*
%TD*%
%TO.C,C17*%
X114728500Y95755000D03*
X114728500Y94205000D03*
%TD*%
%TO.C,C17*%
X114728500Y54615000D03*
X114728500Y53065000D03*
%TD*%
%TO.C,C17*%
X114728500Y13475000D03*
X114728500Y11925000D03*
%TD*%
%TO.C,C17*%
X70540500Y136895000D03*
X70540500Y135345000D03*
%TD*%
%TO.C,C17*%
X70540500Y95755000D03*
X70540500Y94205000D03*
%TD*%
%TO.C,C17*%
X70540500Y54615000D03*
X70540500Y53065000D03*
%TD*%
%TO.C,C17*%
X70540500Y13475000D03*
X70540500Y11925000D03*
%TD*%
%TO.C,C17*%
X26352500Y136895000D03*
X26352500Y135345000D03*
%TD*%
%TO.C,C17*%
X26352500Y95755000D03*
X26352500Y94205000D03*
%TD*%
%TO.C,C17*%
X26352500Y54615000D03*
X26352500Y53065000D03*
%TD*%
D16*
%TO.C,D2*%
X97266000Y134970000D03*
X97266000Y137270000D03*
%TD*%
%TO.C,D2*%
X97266000Y93830000D03*
X97266000Y96130000D03*
%TD*%
%TO.C,D2*%
X97266000Y52690000D03*
X97266000Y54990000D03*
%TD*%
%TO.C,D2*%
X97266000Y11550000D03*
X97266000Y13850000D03*
%TD*%
%TO.C,D2*%
X53078000Y134970000D03*
X53078000Y137270000D03*
%TD*%
%TO.C,D2*%
X53078000Y93830000D03*
X53078000Y96130000D03*
%TD*%
%TO.C,D2*%
X53078000Y52690000D03*
X53078000Y54990000D03*
%TD*%
%TO.C,D2*%
X53078000Y11550000D03*
X53078000Y13850000D03*
%TD*%
%TO.C,D2*%
X8890000Y134970000D03*
X8890000Y137270000D03*
%TD*%
%TO.C,D2*%
X8890000Y93830000D03*
X8890000Y96130000D03*
%TD*%
%TO.C,D2*%
X8890000Y52690000D03*
X8890000Y54990000D03*
%TD*%
D17*
%TO.C,C14*%
X104251000Y136895000D03*
X104251000Y135345000D03*
%TD*%
%TO.C,C14*%
X104251000Y95755000D03*
X104251000Y94205000D03*
%TD*%
%TO.C,C14*%
X104251000Y54615000D03*
X104251000Y53065000D03*
%TD*%
%TO.C,C14*%
X104251000Y13475000D03*
X104251000Y11925000D03*
%TD*%
%TO.C,C14*%
X60063000Y136895000D03*
X60063000Y135345000D03*
%TD*%
%TO.C,C14*%
X60063000Y95755000D03*
X60063000Y94205000D03*
%TD*%
%TO.C,C14*%
X60063000Y54615000D03*
X60063000Y53065000D03*
%TD*%
%TO.C,C14*%
X60063000Y13475000D03*
X60063000Y11925000D03*
%TD*%
%TO.C,C14*%
X15875000Y136895000D03*
X15875000Y135345000D03*
%TD*%
%TO.C,C14*%
X15875000Y95755000D03*
X15875000Y94205000D03*
%TD*%
%TO.C,C14*%
X15875000Y54615000D03*
X15875000Y53065000D03*
%TD*%
D18*
%TO.C,U1*%
X102693600Y142790000D03*
X102693600Y143740000D03*
X102693600Y144690000D03*
X100093400Y144690000D03*
X100093500Y143740000D03*
X100093400Y142790000D03*
%TD*%
%TO.C,U1*%
X102693600Y101650000D03*
X102693600Y102600000D03*
X102693600Y103550000D03*
X100093400Y103550000D03*
X100093500Y102600000D03*
X100093400Y101650000D03*
%TD*%
%TO.C,U1*%
X102693600Y60510000D03*
X102693600Y61460000D03*
X102693600Y62410000D03*
X100093400Y62410000D03*
X100093500Y61460000D03*
X100093400Y60510000D03*
%TD*%
%TO.C,U1*%
X102693600Y19370000D03*
X102693600Y20320000D03*
X102693600Y21270000D03*
X100093400Y21270000D03*
X100093500Y20320000D03*
X100093400Y19370000D03*
%TD*%
%TO.C,U1*%
X58505600Y142790000D03*
X58505600Y143740000D03*
X58505600Y144690000D03*
X55905400Y144690000D03*
X55905500Y143740000D03*
X55905400Y142790000D03*
%TD*%
%TO.C,U1*%
X58505600Y101650000D03*
X58505600Y102600000D03*
X58505600Y103550000D03*
X55905400Y103550000D03*
X55905500Y102600000D03*
X55905400Y101650000D03*
%TD*%
%TO.C,U1*%
X58505600Y60510000D03*
X58505600Y61460000D03*
X58505600Y62410000D03*
X55905400Y62410000D03*
X55905500Y61460000D03*
X55905400Y60510000D03*
%TD*%
%TO.C,U1*%
X58505600Y19370000D03*
X58505600Y20320000D03*
X58505600Y21270000D03*
X55905400Y21270000D03*
X55905500Y20320000D03*
X55905400Y19370000D03*
%TD*%
%TO.C,U1*%
X14317600Y142790000D03*
X14317600Y143740000D03*
X14317600Y144690000D03*
X11717400Y144690000D03*
X11717500Y143740000D03*
X11717400Y142790000D03*
%TD*%
%TO.C,U1*%
X14317600Y101650000D03*
X14317600Y102600000D03*
X14317600Y103550000D03*
X11717400Y103550000D03*
X11717500Y102600000D03*
X11717400Y101650000D03*
%TD*%
%TO.C,U1*%
X14317600Y60510000D03*
X14317600Y61460000D03*
X14317600Y62410000D03*
X11717400Y62410000D03*
X11717500Y61460000D03*
X11717400Y60510000D03*
%TD*%
D19*
%TO.C,JP11*%
X90281000Y135802500D03*
D20*
X91043000Y135802500D03*
X92059000Y135802500D03*
D19*
X92821000Y135802500D03*
%TD*%
%TO.C,JP11*%
X90281000Y94662500D03*
D20*
X91043000Y94662500D03*
X92059000Y94662500D03*
D19*
X92821000Y94662500D03*
%TD*%
%TO.C,JP11*%
X90281000Y53522500D03*
D20*
X91043000Y53522500D03*
X92059000Y53522500D03*
D19*
X92821000Y53522500D03*
%TD*%
%TO.C,JP11*%
X90281000Y12382500D03*
D20*
X91043000Y12382500D03*
X92059000Y12382500D03*
D19*
X92821000Y12382500D03*
%TD*%
%TO.C,JP11*%
X46093000Y135802500D03*
D20*
X46855000Y135802500D03*
X47871000Y135802500D03*
D19*
X48633000Y135802500D03*
%TD*%
%TO.C,JP11*%
X46093000Y94662500D03*
D20*
X46855000Y94662500D03*
X47871000Y94662500D03*
D19*
X48633000Y94662500D03*
%TD*%
%TO.C,JP11*%
X46093000Y53522500D03*
D20*
X46855000Y53522500D03*
X47871000Y53522500D03*
D19*
X48633000Y53522500D03*
%TD*%
%TO.C,JP11*%
X46093000Y12382500D03*
D20*
X46855000Y12382500D03*
X47871000Y12382500D03*
D19*
X48633000Y12382500D03*
%TD*%
%TO.C,JP11*%
X1905000Y135802500D03*
D20*
X2667000Y135802500D03*
X3683000Y135802500D03*
D19*
X4445000Y135802500D03*
%TD*%
%TO.C,JP11*%
X1905000Y94662500D03*
D20*
X2667000Y94662500D03*
X3683000Y94662500D03*
D19*
X4445000Y94662500D03*
%TD*%
%TO.C,JP11*%
X1905000Y53522500D03*
D20*
X2667000Y53522500D03*
X3683000Y53522500D03*
D19*
X4445000Y53522500D03*
%TD*%
D21*
%TO.C,J4*%
X124316000Y143740000D03*
D22*
X125841000Y142365000D03*
X125841000Y145115000D03*
%TD*%
D21*
%TO.C,J4*%
X124316000Y102600000D03*
D22*
X125841000Y101225000D03*
X125841000Y103975000D03*
%TD*%
D21*
%TO.C,J4*%
X124316000Y61460000D03*
D22*
X125841000Y60085000D03*
X125841000Y62835000D03*
%TD*%
D21*
%TO.C,J4*%
X124316000Y20320000D03*
D22*
X125841000Y18945000D03*
X125841000Y21695000D03*
%TD*%
D21*
%TO.C,J4*%
X80128000Y143740000D03*
D22*
X81653000Y142365000D03*
X81653000Y145115000D03*
%TD*%
D21*
%TO.C,J4*%
X80128000Y102600000D03*
D22*
X81653000Y101225000D03*
X81653000Y103975000D03*
%TD*%
D21*
%TO.C,J4*%
X80128000Y61460000D03*
D22*
X81653000Y60085000D03*
X81653000Y62835000D03*
%TD*%
D21*
%TO.C,J4*%
X80128000Y20320000D03*
D22*
X81653000Y18945000D03*
X81653000Y21695000D03*
%TD*%
D21*
%TO.C,J4*%
X35940000Y143740000D03*
D22*
X37465000Y142365000D03*
X37465000Y145115000D03*
%TD*%
D21*
%TO.C,J4*%
X35940000Y102600000D03*
D22*
X37465000Y101225000D03*
X37465000Y103975000D03*
%TD*%
D21*
%TO.C,J4*%
X35940000Y61460000D03*
D22*
X37465000Y60085000D03*
X37465000Y62835000D03*
%TD*%
D23*
%TO.C,JP2*%
X118741700Y127547500D03*
X117700300Y127547500D03*
%TD*%
%TO.C,JP2*%
X118741700Y86407500D03*
X117700300Y86407500D03*
%TD*%
%TO.C,JP2*%
X118741700Y45267500D03*
X117700300Y45267500D03*
%TD*%
%TO.C,JP2*%
X118741700Y4127500D03*
X117700300Y4127500D03*
%TD*%
%TO.C,JP2*%
X74553700Y127547500D03*
X73512300Y127547500D03*
%TD*%
%TO.C,JP2*%
X74553700Y86407500D03*
X73512300Y86407500D03*
%TD*%
%TO.C,JP2*%
X74553700Y45267500D03*
X73512300Y45267500D03*
%TD*%
%TO.C,JP2*%
X74553700Y4127500D03*
X73512300Y4127500D03*
%TD*%
%TO.C,JP2*%
X30365700Y127547500D03*
X29324300Y127547500D03*
%TD*%
%TO.C,JP2*%
X30365700Y86407500D03*
X29324300Y86407500D03*
%TD*%
%TO.C,JP2*%
X30365700Y45267500D03*
X29324300Y45267500D03*
%TD*%
D24*
%TO.C,JP1*%
X118627400Y155805000D03*
X117814600Y155805000D03*
%TD*%
%TO.C,JP1*%
X118627400Y114665000D03*
X117814600Y114665000D03*
%TD*%
%TO.C,JP1*%
X118627400Y73525000D03*
X117814600Y73525000D03*
%TD*%
%TO.C,JP1*%
X118627400Y32385000D03*
X117814600Y32385000D03*
%TD*%
%TO.C,JP1*%
X74439400Y155805000D03*
X73626600Y155805000D03*
%TD*%
%TO.C,JP1*%
X74439400Y114665000D03*
X73626600Y114665000D03*
%TD*%
%TO.C,JP1*%
X74439400Y73525000D03*
X73626600Y73525000D03*
%TD*%
%TO.C,JP1*%
X74439400Y32385000D03*
X73626600Y32385000D03*
%TD*%
%TO.C,JP1*%
X30251400Y155805000D03*
X29438600Y155805000D03*
%TD*%
%TO.C,JP1*%
X30251400Y114665000D03*
X29438600Y114665000D03*
%TD*%
%TO.C,JP1*%
X30251400Y73525000D03*
X29438600Y73525000D03*
%TD*%
D25*
%TO.C,L1*%
X120126000Y142330000D03*
X120126000Y143880000D03*
%TD*%
%TO.C,L1*%
X120126000Y101190000D03*
X120126000Y102740000D03*
%TD*%
%TO.C,L1*%
X120126000Y60050000D03*
X120126000Y61600000D03*
%TD*%
%TO.C,L1*%
X120126000Y18910000D03*
X120126000Y20460000D03*
%TD*%
%TO.C,L1*%
X75938000Y142330000D03*
X75938000Y143880000D03*
%TD*%
%TO.C,L1*%
X75938000Y101190000D03*
X75938000Y102740000D03*
%TD*%
%TO.C,L1*%
X75938000Y60050000D03*
X75938000Y61600000D03*
%TD*%
%TO.C,L1*%
X75938000Y18910000D03*
X75938000Y20460000D03*
%TD*%
%TO.C,L1*%
X31750000Y142330000D03*
X31750000Y143880000D03*
%TD*%
%TO.C,L1*%
X31750000Y101190000D03*
X31750000Y102740000D03*
%TD*%
%TO.C,L1*%
X31750000Y60050000D03*
X31750000Y61600000D03*
%TD*%
D26*
%TO.C,C10*%
X100618500Y146597500D03*
X102168500Y146597500D03*
%TD*%
%TO.C,C10*%
X100618500Y105457500D03*
X102168500Y105457500D03*
%TD*%
%TO.C,C10*%
X100618500Y64317500D03*
X102168500Y64317500D03*
%TD*%
%TO.C,C10*%
X100618500Y23177500D03*
X102168500Y23177500D03*
%TD*%
%TO.C,C10*%
X56430500Y146597500D03*
X57980500Y146597500D03*
%TD*%
%TO.C,C10*%
X56430500Y105457500D03*
X57980500Y105457500D03*
%TD*%
%TO.C,C10*%
X56430500Y64317500D03*
X57980500Y64317500D03*
%TD*%
%TO.C,C10*%
X56430500Y23177500D03*
X57980500Y23177500D03*
%TD*%
%TO.C,C10*%
X12242500Y146597500D03*
X13792500Y146597500D03*
%TD*%
%TO.C,C10*%
X12242500Y105457500D03*
X13792500Y105457500D03*
%TD*%
%TO.C,C10*%
X12242500Y64317500D03*
X13792500Y64317500D03*
%TD*%
D27*
%TO.C,U4*%
X105896000Y148185000D03*
X105896000Y146915000D03*
X105896000Y145645000D03*
X105896000Y144375000D03*
X105896000Y143105000D03*
X105896000Y141835000D03*
X105896000Y140565000D03*
X105896000Y139295000D03*
X111496000Y139295000D03*
X111496000Y140565000D03*
X111496000Y141835000D03*
X111496000Y143105000D03*
X111496000Y144375000D03*
X111496000Y145645000D03*
X111496000Y146915000D03*
X111496000Y148185000D03*
%TD*%
%TO.C,U4*%
X105896000Y107045000D03*
X105896000Y105775000D03*
X105896000Y104505000D03*
X105896000Y103235000D03*
X105896000Y101965000D03*
X105896000Y100695000D03*
X105896000Y99425000D03*
X105896000Y98155000D03*
X111496000Y98155000D03*
X111496000Y99425000D03*
X111496000Y100695000D03*
X111496000Y101965000D03*
X111496000Y103235000D03*
X111496000Y104505000D03*
X111496000Y105775000D03*
X111496000Y107045000D03*
%TD*%
%TO.C,U4*%
X105896000Y65905000D03*
X105896000Y64635000D03*
X105896000Y63365000D03*
X105896000Y62095000D03*
X105896000Y60825000D03*
X105896000Y59555000D03*
X105896000Y58285000D03*
X105896000Y57015000D03*
X111496000Y57015000D03*
X111496000Y58285000D03*
X111496000Y59555000D03*
X111496000Y60825000D03*
X111496000Y62095000D03*
X111496000Y63365000D03*
X111496000Y64635000D03*
X111496000Y65905000D03*
%TD*%
%TO.C,U4*%
X105896000Y24765000D03*
X105896000Y23495000D03*
X105896000Y22225000D03*
X105896000Y20955000D03*
X105896000Y19685000D03*
X105896000Y18415000D03*
X105896000Y17145000D03*
X105896000Y15875000D03*
X111496000Y15875000D03*
X111496000Y17145000D03*
X111496000Y18415000D03*
X111496000Y19685000D03*
X111496000Y20955000D03*
X111496000Y22225000D03*
X111496000Y23495000D03*
X111496000Y24765000D03*
%TD*%
%TO.C,U4*%
X61708000Y148185000D03*
X61708000Y146915000D03*
X61708000Y145645000D03*
X61708000Y144375000D03*
X61708000Y143105000D03*
X61708000Y141835000D03*
X61708000Y140565000D03*
X61708000Y139295000D03*
X67308000Y139295000D03*
X67308000Y140565000D03*
X67308000Y141835000D03*
X67308000Y143105000D03*
X67308000Y144375000D03*
X67308000Y145645000D03*
X67308000Y146915000D03*
X67308000Y148185000D03*
%TD*%
%TO.C,U4*%
X61708000Y107045000D03*
X61708000Y105775000D03*
X61708000Y104505000D03*
X61708000Y103235000D03*
X61708000Y101965000D03*
X61708000Y100695000D03*
X61708000Y99425000D03*
X61708000Y98155000D03*
X67308000Y98155000D03*
X67308000Y99425000D03*
X67308000Y100695000D03*
X67308000Y101965000D03*
X67308000Y103235000D03*
X67308000Y104505000D03*
X67308000Y105775000D03*
X67308000Y107045000D03*
%TD*%
%TO.C,U4*%
X61708000Y65905000D03*
X61708000Y64635000D03*
X61708000Y63365000D03*
X61708000Y62095000D03*
X61708000Y60825000D03*
X61708000Y59555000D03*
X61708000Y58285000D03*
X61708000Y57015000D03*
X67308000Y57015000D03*
X67308000Y58285000D03*
X67308000Y59555000D03*
X67308000Y60825000D03*
X67308000Y62095000D03*
X67308000Y63365000D03*
X67308000Y64635000D03*
X67308000Y65905000D03*
%TD*%
%TO.C,U4*%
X61708000Y24765000D03*
X61708000Y23495000D03*
X61708000Y22225000D03*
X61708000Y20955000D03*
X61708000Y19685000D03*
X61708000Y18415000D03*
X61708000Y17145000D03*
X61708000Y15875000D03*
X67308000Y15875000D03*
X67308000Y17145000D03*
X67308000Y18415000D03*
X67308000Y19685000D03*
X67308000Y20955000D03*
X67308000Y22225000D03*
X67308000Y23495000D03*
X67308000Y24765000D03*
%TD*%
%TO.C,U4*%
X17520000Y148185000D03*
X17520000Y146915000D03*
X17520000Y145645000D03*
X17520000Y144375000D03*
X17520000Y143105000D03*
X17520000Y141835000D03*
X17520000Y140565000D03*
X17520000Y139295000D03*
X23120000Y139295000D03*
X23120000Y140565000D03*
X23120000Y141835000D03*
X23120000Y143105000D03*
X23120000Y144375000D03*
X23120000Y145645000D03*
X23120000Y146915000D03*
X23120000Y148185000D03*
%TD*%
%TO.C,U4*%
X17520000Y107045000D03*
X17520000Y105775000D03*
X17520000Y104505000D03*
X17520000Y103235000D03*
X17520000Y101965000D03*
X17520000Y100695000D03*
X17520000Y99425000D03*
X17520000Y98155000D03*
X23120000Y98155000D03*
X23120000Y99425000D03*
X23120000Y100695000D03*
X23120000Y101965000D03*
X23120000Y103235000D03*
X23120000Y104505000D03*
X23120000Y105775000D03*
X23120000Y107045000D03*
%TD*%
%TO.C,U4*%
X17520000Y65905000D03*
X17520000Y64635000D03*
X17520000Y63365000D03*
X17520000Y62095000D03*
X17520000Y60825000D03*
X17520000Y59555000D03*
X17520000Y58285000D03*
X17520000Y57015000D03*
X23120000Y57015000D03*
X23120000Y58285000D03*
X23120000Y59555000D03*
X23120000Y60825000D03*
X23120000Y62095000D03*
X23120000Y63365000D03*
X23120000Y64635000D03*
X23120000Y65905000D03*
%TD*%
D28*
%TO.C,R3*%
X102536000Y154852500D03*
X100886000Y154852500D03*
%TD*%
%TO.C,R3*%
X102536000Y113712500D03*
X100886000Y113712500D03*
%TD*%
%TO.C,R3*%
X102536000Y72572500D03*
X100886000Y72572500D03*
%TD*%
%TO.C,R3*%
X102536000Y31432500D03*
X100886000Y31432500D03*
%TD*%
%TO.C,R3*%
X58348000Y154852500D03*
X56698000Y154852500D03*
%TD*%
%TO.C,R3*%
X58348000Y113712500D03*
X56698000Y113712500D03*
%TD*%
%TO.C,R3*%
X58348000Y72572500D03*
X56698000Y72572500D03*
%TD*%
%TO.C,R3*%
X58348000Y31432500D03*
X56698000Y31432500D03*
%TD*%
%TO.C,R3*%
X14160000Y154852500D03*
X12510000Y154852500D03*
%TD*%
%TO.C,R3*%
X14160000Y113712500D03*
X12510000Y113712500D03*
%TD*%
%TO.C,R3*%
X14160000Y72572500D03*
X12510000Y72572500D03*
%TD*%
D17*
%TO.C,C7*%
X105838500Y136895000D03*
X105838500Y135345000D03*
%TD*%
%TO.C,C7*%
X105838500Y95755000D03*
X105838500Y94205000D03*
%TD*%
%TO.C,C7*%
X105838500Y54615000D03*
X105838500Y53065000D03*
%TD*%
%TO.C,C7*%
X105838500Y13475000D03*
X105838500Y11925000D03*
%TD*%
%TO.C,C7*%
X61650500Y136895000D03*
X61650500Y135345000D03*
%TD*%
%TO.C,C7*%
X61650500Y95755000D03*
X61650500Y94205000D03*
%TD*%
%TO.C,C7*%
X61650500Y54615000D03*
X61650500Y53065000D03*
%TD*%
%TO.C,C7*%
X61650500Y13475000D03*
X61650500Y11925000D03*
%TD*%
%TO.C,C7*%
X17462500Y136895000D03*
X17462500Y135345000D03*
%TD*%
%TO.C,C7*%
X17462500Y95755000D03*
X17462500Y94205000D03*
%TD*%
%TO.C,C7*%
X17462500Y54615000D03*
X17462500Y53065000D03*
%TD*%
D29*
%TO.C,R6*%
X116951000Y146702500D03*
X116951000Y140777500D03*
%TD*%
%TO.C,R6*%
X116951000Y105562500D03*
X116951000Y99637500D03*
%TD*%
%TO.C,R6*%
X116951000Y64422500D03*
X116951000Y58497500D03*
%TD*%
%TO.C,R6*%
X116951000Y23282500D03*
X116951000Y17357500D03*
%TD*%
%TO.C,R6*%
X72763000Y146702500D03*
X72763000Y140777500D03*
%TD*%
%TO.C,R6*%
X72763000Y105562500D03*
X72763000Y99637500D03*
%TD*%
%TO.C,R6*%
X72763000Y64422500D03*
X72763000Y58497500D03*
%TD*%
%TO.C,R6*%
X72763000Y23282500D03*
X72763000Y17357500D03*
%TD*%
%TO.C,R6*%
X28575000Y146702500D03*
X28575000Y140777500D03*
%TD*%
%TO.C,R6*%
X28575000Y105562500D03*
X28575000Y99637500D03*
%TD*%
%TO.C,R6*%
X28575000Y64422500D03*
X28575000Y58497500D03*
%TD*%
D30*
%TO.C,F1*%
X102293500Y140247500D03*
X100493500Y140247500D03*
%TD*%
%TO.C,F1*%
X102293500Y99107500D03*
X100493500Y99107500D03*
%TD*%
%TO.C,F1*%
X102293500Y57967500D03*
X100493500Y57967500D03*
%TD*%
%TO.C,F1*%
X102293500Y16827500D03*
X100493500Y16827500D03*
%TD*%
%TO.C,F1*%
X58105500Y140247500D03*
X56305500Y140247500D03*
%TD*%
%TO.C,F1*%
X58105500Y99107500D03*
X56305500Y99107500D03*
%TD*%
%TO.C,F1*%
X58105500Y57967500D03*
X56305500Y57967500D03*
%TD*%
%TO.C,F1*%
X58105500Y16827500D03*
X56305500Y16827500D03*
%TD*%
%TO.C,F1*%
X13917500Y140247500D03*
X12117500Y140247500D03*
%TD*%
%TO.C,F1*%
X13917500Y99107500D03*
X12117500Y99107500D03*
%TD*%
%TO.C,F1*%
X13917500Y57967500D03*
X12117500Y57967500D03*
%TD*%
D23*
%TO.C,JP10*%
X99056700Y152312500D03*
X98015300Y152312500D03*
%TD*%
%TO.C,JP10*%
X99056700Y111172500D03*
X98015300Y111172500D03*
%TD*%
%TO.C,JP10*%
X99056700Y70032500D03*
X98015300Y70032500D03*
%TD*%
%TO.C,JP10*%
X99056700Y28892500D03*
X98015300Y28892500D03*
%TD*%
%TO.C,JP10*%
X54868700Y152312500D03*
X53827300Y152312500D03*
%TD*%
%TO.C,JP10*%
X54868700Y111172500D03*
X53827300Y111172500D03*
%TD*%
%TO.C,JP10*%
X54868700Y70032500D03*
X53827300Y70032500D03*
%TD*%
%TO.C,JP10*%
X54868700Y28892500D03*
X53827300Y28892500D03*
%TD*%
%TO.C,JP10*%
X10680700Y152312500D03*
X9639300Y152312500D03*
%TD*%
%TO.C,JP10*%
X10680700Y111172500D03*
X9639300Y111172500D03*
%TD*%
%TO.C,JP10*%
X10680700Y70032500D03*
X9639300Y70032500D03*
%TD*%
D31*
%TO.C,U3*%
X107395900Y137070000D03*
X107395900Y136120000D03*
X107395900Y135170000D03*
X109996100Y135170000D03*
X109996100Y137070000D03*
%TD*%
%TO.C,U3*%
X107395900Y95930000D03*
X107395900Y94980000D03*
X107395900Y94030000D03*
X109996100Y94030000D03*
X109996100Y95930000D03*
%TD*%
%TO.C,U3*%
X107395900Y54790000D03*
X107395900Y53840000D03*
X107395900Y52890000D03*
X109996100Y52890000D03*
X109996100Y54790000D03*
%TD*%
%TO.C,U3*%
X107395900Y13650000D03*
X107395900Y12700000D03*
X107395900Y11750000D03*
X109996100Y11750000D03*
X109996100Y13650000D03*
%TD*%
%TO.C,U3*%
X63207900Y137070000D03*
X63207900Y136120000D03*
X63207900Y135170000D03*
X65808100Y135170000D03*
X65808100Y137070000D03*
%TD*%
%TO.C,U3*%
X63207900Y95930000D03*
X63207900Y94980000D03*
X63207900Y94030000D03*
X65808100Y94030000D03*
X65808100Y95930000D03*
%TD*%
%TO.C,U3*%
X63207900Y54790000D03*
X63207900Y53840000D03*
X63207900Y52890000D03*
X65808100Y52890000D03*
X65808100Y54790000D03*
%TD*%
%TO.C,U3*%
X63207900Y13650000D03*
X63207900Y12700000D03*
X63207900Y11750000D03*
X65808100Y11750000D03*
X65808100Y13650000D03*
%TD*%
%TO.C,U3*%
X19019900Y137070000D03*
X19019900Y136120000D03*
X19019900Y135170000D03*
X21620100Y135170000D03*
X21620100Y137070000D03*
%TD*%
%TO.C,U3*%
X19019900Y95930000D03*
X19019900Y94980000D03*
X19019900Y94030000D03*
X21620100Y94030000D03*
X21620100Y95930000D03*
%TD*%
%TO.C,U3*%
X19019900Y54790000D03*
X19019900Y53840000D03*
X19019900Y52890000D03*
X21620100Y52890000D03*
X21620100Y54790000D03*
%TD*%
D12*
%TO.C,ST1*%
X126476000Y161520000D03*
%TD*%
%TO.C,ST1*%
X126476000Y120380000D03*
%TD*%
%TO.C,ST1*%
X126476000Y79240000D03*
%TD*%
%TO.C,ST1*%
X126476000Y38100000D03*
%TD*%
%TO.C,ST1*%
X82288000Y161520000D03*
%TD*%
%TO.C,ST1*%
X82288000Y120380000D03*
%TD*%
%TO.C,ST1*%
X82288000Y79240000D03*
%TD*%
%TO.C,ST1*%
X82288000Y38100000D03*
%TD*%
%TO.C,ST1*%
X38100000Y161520000D03*
%TD*%
%TO.C,ST1*%
X38100000Y120380000D03*
%TD*%
%TO.C,ST1*%
X38100000Y79240000D03*
%TD*%
D32*
%TO.C,R1*%
X90726000Y137707500D03*
X92376000Y137707500D03*
%TD*%
%TO.C,R1*%
X90726000Y96567500D03*
X92376000Y96567500D03*
%TD*%
%TO.C,R1*%
X90726000Y55427500D03*
X92376000Y55427500D03*
%TD*%
%TO.C,R1*%
X90726000Y14287500D03*
X92376000Y14287500D03*
%TD*%
%TO.C,R1*%
X46538000Y137707500D03*
X48188000Y137707500D03*
%TD*%
%TO.C,R1*%
X46538000Y96567500D03*
X48188000Y96567500D03*
%TD*%
%TO.C,R1*%
X46538000Y55427500D03*
X48188000Y55427500D03*
%TD*%
%TO.C,R1*%
X46538000Y14287500D03*
X48188000Y14287500D03*
%TD*%
%TO.C,R1*%
X2350000Y137707500D03*
X4000000Y137707500D03*
%TD*%
%TO.C,R1*%
X2350000Y96567500D03*
X4000000Y96567500D03*
%TD*%
%TO.C,R1*%
X2350000Y55427500D03*
X4000000Y55427500D03*
%TD*%
D33*
%TO.C,D4*%
X122031000Y142780000D03*
X122031000Y143740000D03*
%TD*%
%TO.C,D4*%
X122031000Y101640000D03*
X122031000Y102600000D03*
%TD*%
%TO.C,D4*%
X122031000Y60500000D03*
X122031000Y61460000D03*
%TD*%
%TO.C,D4*%
X122031000Y19360000D03*
X122031000Y20320000D03*
%TD*%
%TO.C,D4*%
X77843000Y142780000D03*
X77843000Y143740000D03*
%TD*%
%TO.C,D4*%
X77843000Y101640000D03*
X77843000Y102600000D03*
%TD*%
%TO.C,D4*%
X77843000Y60500000D03*
X77843000Y61460000D03*
%TD*%
%TO.C,D4*%
X77843000Y19360000D03*
X77843000Y20320000D03*
%TD*%
%TO.C,D4*%
X33655000Y142780000D03*
X33655000Y143740000D03*
%TD*%
%TO.C,D4*%
X33655000Y101640000D03*
X33655000Y102600000D03*
%TD*%
%TO.C,D4*%
X33655000Y60500000D03*
X33655000Y61460000D03*
%TD*%
D17*
%TO.C,C1*%
X122031000Y140387500D03*
X122031000Y138837500D03*
%TD*%
%TO.C,C1*%
X122031000Y99247500D03*
X122031000Y97697500D03*
%TD*%
%TO.C,C1*%
X122031000Y58107500D03*
X122031000Y56557500D03*
%TD*%
%TO.C,C1*%
X122031000Y16967500D03*
X122031000Y15417500D03*
%TD*%
%TO.C,C1*%
X77843000Y140387500D03*
X77843000Y138837500D03*
%TD*%
%TO.C,C1*%
X77843000Y99247500D03*
X77843000Y97697500D03*
%TD*%
%TO.C,C1*%
X77843000Y58107500D03*
X77843000Y56557500D03*
%TD*%
%TO.C,C1*%
X77843000Y16967500D03*
X77843000Y15417500D03*
%TD*%
%TO.C,C1*%
X33655000Y140387500D03*
X33655000Y138837500D03*
%TD*%
%TO.C,C1*%
X33655000Y99247500D03*
X33655000Y97697500D03*
%TD*%
%TO.C,C1*%
X33655000Y58107500D03*
X33655000Y56557500D03*
%TD*%
D34*
%TO.C,FID4*%
X128381000Y124055000D03*
%TD*%
%TO.C,FID4*%
X128381000Y82915000D03*
%TD*%
%TO.C,FID4*%
X128381000Y41775000D03*
%TD*%
%TO.C,FID4*%
X128381000Y635000D03*
%TD*%
%TO.C,FID4*%
X84193000Y124055000D03*
%TD*%
%TO.C,FID4*%
X84193000Y82915000D03*
%TD*%
%TO.C,FID4*%
X84193000Y41775000D03*
%TD*%
%TO.C,FID4*%
X84193000Y635000D03*
%TD*%
%TO.C,FID4*%
X40005000Y124055000D03*
%TD*%
%TO.C,FID4*%
X40005000Y82915000D03*
%TD*%
%TO.C,FID4*%
X40005000Y41775000D03*
%TD*%
D17*
%TO.C,C15*%
X113141000Y136895000D03*
X113141000Y135345000D03*
%TD*%
%TO.C,C15*%
X113141000Y95755000D03*
X113141000Y94205000D03*
%TD*%
%TO.C,C15*%
X113141000Y54615000D03*
X113141000Y53065000D03*
%TD*%
%TO.C,C15*%
X113141000Y13475000D03*
X113141000Y11925000D03*
%TD*%
%TO.C,C15*%
X68953000Y136895000D03*
X68953000Y135345000D03*
%TD*%
%TO.C,C15*%
X68953000Y95755000D03*
X68953000Y94205000D03*
%TD*%
%TO.C,C15*%
X68953000Y54615000D03*
X68953000Y53065000D03*
%TD*%
%TO.C,C15*%
X68953000Y13475000D03*
X68953000Y11925000D03*
%TD*%
%TO.C,C15*%
X24765000Y136895000D03*
X24765000Y135345000D03*
%TD*%
%TO.C,C15*%
X24765000Y95755000D03*
X24765000Y94205000D03*
%TD*%
%TO.C,C15*%
X24765000Y54615000D03*
X24765000Y53065000D03*
%TD*%
D28*
%TO.C,R12*%
X109521000Y133897500D03*
X107871000Y133897500D03*
%TD*%
%TO.C,R12*%
X109521000Y92757500D03*
X107871000Y92757500D03*
%TD*%
%TO.C,R12*%
X109521000Y51617500D03*
X107871000Y51617500D03*
%TD*%
%TO.C,R12*%
X109521000Y10477500D03*
X107871000Y10477500D03*
%TD*%
%TO.C,R12*%
X65333000Y133897500D03*
X63683000Y133897500D03*
%TD*%
%TO.C,R12*%
X65333000Y92757500D03*
X63683000Y92757500D03*
%TD*%
%TO.C,R12*%
X65333000Y51617500D03*
X63683000Y51617500D03*
%TD*%
%TO.C,R12*%
X65333000Y10477500D03*
X63683000Y10477500D03*
%TD*%
%TO.C,R12*%
X21145000Y133897500D03*
X19495000Y133897500D03*
%TD*%
%TO.C,R12*%
X21145000Y92757500D03*
X19495000Y92757500D03*
%TD*%
%TO.C,R12*%
X21145000Y51617500D03*
X19495000Y51617500D03*
%TD*%
%TO.C,R4*%
X119363500Y136120000D03*
X117713500Y136120000D03*
%TD*%
%TO.C,R4*%
X119363500Y94980000D03*
X117713500Y94980000D03*
%TD*%
%TO.C,R4*%
X119363500Y53840000D03*
X117713500Y53840000D03*
%TD*%
%TO.C,R4*%
X119363500Y12700000D03*
X117713500Y12700000D03*
%TD*%
%TO.C,R4*%
X75175500Y136120000D03*
X73525500Y136120000D03*
%TD*%
%TO.C,R4*%
X75175500Y94980000D03*
X73525500Y94980000D03*
%TD*%
%TO.C,R4*%
X75175500Y53840000D03*
X73525500Y53840000D03*
%TD*%
%TO.C,R4*%
X75175500Y12700000D03*
X73525500Y12700000D03*
%TD*%
%TO.C,R4*%
X30987500Y136120000D03*
X29337500Y136120000D03*
%TD*%
%TO.C,R4*%
X30987500Y94980000D03*
X29337500Y94980000D03*
%TD*%
%TO.C,R4*%
X30987500Y53840000D03*
X29337500Y53840000D03*
%TD*%
D35*
%TO.C,D1*%
X122501000Y136120000D03*
X120926000Y136120000D03*
%TD*%
%TO.C,D1*%
X122501000Y94980000D03*
X120926000Y94980000D03*
%TD*%
%TO.C,D1*%
X122501000Y53840000D03*
X120926000Y53840000D03*
%TD*%
%TO.C,D1*%
X122501000Y12700000D03*
X120926000Y12700000D03*
%TD*%
%TO.C,D1*%
X78313000Y136120000D03*
X76738000Y136120000D03*
%TD*%
%TO.C,D1*%
X78313000Y94980000D03*
X76738000Y94980000D03*
%TD*%
%TO.C,D1*%
X78313000Y53840000D03*
X76738000Y53840000D03*
%TD*%
%TO.C,D1*%
X78313000Y12700000D03*
X76738000Y12700000D03*
%TD*%
%TO.C,D1*%
X34125000Y136120000D03*
X32550000Y136120000D03*
%TD*%
%TO.C,D1*%
X34125000Y94980000D03*
X32550000Y94980000D03*
%TD*%
%TO.C,D1*%
X34125000Y53840000D03*
X32550000Y53840000D03*
%TD*%
D28*
%TO.C,R5*%
X119204750Y131992500D03*
X117554750Y131992500D03*
%TD*%
%TO.C,R5*%
X119204750Y90852500D03*
X117554750Y90852500D03*
%TD*%
%TO.C,R5*%
X119204750Y49712500D03*
X117554750Y49712500D03*
%TD*%
%TO.C,R5*%
X119204750Y8572500D03*
X117554750Y8572500D03*
%TD*%
%TO.C,R5*%
X75016750Y131992500D03*
X73366750Y131992500D03*
%TD*%
%TO.C,R5*%
X75016750Y90852500D03*
X73366750Y90852500D03*
%TD*%
%TO.C,R5*%
X75016750Y49712500D03*
X73366750Y49712500D03*
%TD*%
%TO.C,R5*%
X75016750Y8572500D03*
X73366750Y8572500D03*
%TD*%
%TO.C,R5*%
X30828750Y131992500D03*
X29178750Y131992500D03*
%TD*%
%TO.C,R5*%
X30828750Y90852500D03*
X29178750Y90852500D03*
%TD*%
%TO.C,R5*%
X30828750Y49712500D03*
X29178750Y49712500D03*
%TD*%
D32*
%TO.C,R2*%
X90726000Y149772500D03*
X92376000Y149772500D03*
%TD*%
%TO.C,R2*%
X90726000Y108632500D03*
X92376000Y108632500D03*
%TD*%
%TO.C,R2*%
X90726000Y67492500D03*
X92376000Y67492500D03*
%TD*%
%TO.C,R2*%
X90726000Y26352500D03*
X92376000Y26352500D03*
%TD*%
%TO.C,R2*%
X46538000Y149772500D03*
X48188000Y149772500D03*
%TD*%
%TO.C,R2*%
X46538000Y108632500D03*
X48188000Y108632500D03*
%TD*%
%TO.C,R2*%
X46538000Y67492500D03*
X48188000Y67492500D03*
%TD*%
%TO.C,R2*%
X46538000Y26352500D03*
X48188000Y26352500D03*
%TD*%
%TO.C,R2*%
X2350000Y149772500D03*
X4000000Y149772500D03*
%TD*%
%TO.C,R2*%
X2350000Y108632500D03*
X4000000Y108632500D03*
%TD*%
%TO.C,R2*%
X2350000Y67492500D03*
X4000000Y67492500D03*
%TD*%
D36*
%TO.C,D5*%
X104251000Y133460000D03*
X104251000Y131160000D03*
%TD*%
%TO.C,D5*%
X104251000Y92320000D03*
X104251000Y90020000D03*
%TD*%
%TO.C,D5*%
X104251000Y51180000D03*
X104251000Y48880000D03*
%TD*%
%TO.C,D5*%
X104251000Y10040000D03*
X104251000Y7740000D03*
%TD*%
%TO.C,D5*%
X60063000Y133460000D03*
X60063000Y131160000D03*
%TD*%
%TO.C,D5*%
X60063000Y92320000D03*
X60063000Y90020000D03*
%TD*%
%TO.C,D5*%
X60063000Y51180000D03*
X60063000Y48880000D03*
%TD*%
%TO.C,D5*%
X60063000Y10040000D03*
X60063000Y7740000D03*
%TD*%
%TO.C,D5*%
X15875000Y133460000D03*
X15875000Y131160000D03*
%TD*%
%TO.C,D5*%
X15875000Y92320000D03*
X15875000Y90020000D03*
%TD*%
%TO.C,D5*%
X15875000Y51180000D03*
X15875000Y48880000D03*
%TD*%
D37*
%TO.C,JP7*%
X90281000Y154103200D03*
X90281000Y153061800D03*
%TD*%
%TO.C,JP7*%
X90281000Y112963200D03*
X90281000Y111921800D03*
%TD*%
%TO.C,JP7*%
X90281000Y71823200D03*
X90281000Y70781800D03*
%TD*%
%TO.C,JP7*%
X90281000Y30683200D03*
X90281000Y29641800D03*
%TD*%
%TO.C,JP7*%
X46093000Y154103200D03*
X46093000Y153061800D03*
%TD*%
%TO.C,JP7*%
X46093000Y112963200D03*
X46093000Y111921800D03*
%TD*%
%TO.C,JP7*%
X46093000Y71823200D03*
X46093000Y70781800D03*
%TD*%
%TO.C,JP7*%
X46093000Y30683200D03*
X46093000Y29641800D03*
%TD*%
%TO.C,JP7*%
X1905000Y154103200D03*
X1905000Y153061800D03*
%TD*%
%TO.C,JP7*%
X1905000Y112963200D03*
X1905000Y111921800D03*
%TD*%
%TO.C,JP7*%
X1905000Y71823200D03*
X1905000Y70781800D03*
%TD*%
D19*
%TO.C,J5*%
X117586000Y162790000D03*
X115046000Y162790000D03*
X112506000Y162790000D03*
X109966000Y162790000D03*
X107426000Y162790000D03*
X104886000Y162790000D03*
X102346000Y162790000D03*
X99806000Y162790000D03*
%TD*%
%TO.C,J5*%
X117586000Y121650000D03*
X115046000Y121650000D03*
X112506000Y121650000D03*
X109966000Y121650000D03*
X107426000Y121650000D03*
X104886000Y121650000D03*
X102346000Y121650000D03*
X99806000Y121650000D03*
%TD*%
%TO.C,J5*%
X117586000Y80510000D03*
X115046000Y80510000D03*
X112506000Y80510000D03*
X109966000Y80510000D03*
X107426000Y80510000D03*
X104886000Y80510000D03*
X102346000Y80510000D03*
X99806000Y80510000D03*
%TD*%
%TO.C,J5*%
X117586000Y39370000D03*
X115046000Y39370000D03*
X112506000Y39370000D03*
X109966000Y39370000D03*
X107426000Y39370000D03*
X104886000Y39370000D03*
X102346000Y39370000D03*
X99806000Y39370000D03*
%TD*%
%TO.C,J5*%
X73398000Y162790000D03*
X70858000Y162790000D03*
X68318000Y162790000D03*
X65778000Y162790000D03*
X63238000Y162790000D03*
X60698000Y162790000D03*
X58158000Y162790000D03*
X55618000Y162790000D03*
%TD*%
%TO.C,J5*%
X73398000Y121650000D03*
X70858000Y121650000D03*
X68318000Y121650000D03*
X65778000Y121650000D03*
X63238000Y121650000D03*
X60698000Y121650000D03*
X58158000Y121650000D03*
X55618000Y121650000D03*
%TD*%
%TO.C,J5*%
X73398000Y80510000D03*
X70858000Y80510000D03*
X68318000Y80510000D03*
X65778000Y80510000D03*
X63238000Y80510000D03*
X60698000Y80510000D03*
X58158000Y80510000D03*
X55618000Y80510000D03*
%TD*%
%TO.C,J5*%
X73398000Y39370000D03*
X70858000Y39370000D03*
X68318000Y39370000D03*
X65778000Y39370000D03*
X63238000Y39370000D03*
X60698000Y39370000D03*
X58158000Y39370000D03*
X55618000Y39370000D03*
%TD*%
%TO.C,J5*%
X29210000Y162790000D03*
X26670000Y162790000D03*
X24130000Y162790000D03*
X21590000Y162790000D03*
X19050000Y162790000D03*
X16510000Y162790000D03*
X13970000Y162790000D03*
X11430000Y162790000D03*
%TD*%
%TO.C,J5*%
X29210000Y121650000D03*
X26670000Y121650000D03*
X24130000Y121650000D03*
X21590000Y121650000D03*
X19050000Y121650000D03*
X16510000Y121650000D03*
X13970000Y121650000D03*
X11430000Y121650000D03*
%TD*%
%TO.C,J5*%
X29210000Y80510000D03*
X26670000Y80510000D03*
X24130000Y80510000D03*
X21590000Y80510000D03*
X19050000Y80510000D03*
X16510000Y80510000D03*
X13970000Y80510000D03*
X11430000Y80510000D03*
%TD*%
D17*
%TO.C,C9*%
X102663500Y133085000D03*
X102663500Y131535000D03*
%TD*%
%TO.C,C9*%
X102663500Y91945000D03*
X102663500Y90395000D03*
%TD*%
%TO.C,C9*%
X102663500Y50805000D03*
X102663500Y49255000D03*
%TD*%
%TO.C,C9*%
X102663500Y9665000D03*
X102663500Y8115000D03*
%TD*%
%TO.C,C9*%
X58475500Y133085000D03*
X58475500Y131535000D03*
%TD*%
%TO.C,C9*%
X58475500Y91945000D03*
X58475500Y90395000D03*
%TD*%
%TO.C,C9*%
X58475500Y50805000D03*
X58475500Y49255000D03*
%TD*%
%TO.C,C9*%
X58475500Y9665000D03*
X58475500Y8115000D03*
%TD*%
%TO.C,C9*%
X14287500Y133085000D03*
X14287500Y131535000D03*
%TD*%
%TO.C,C9*%
X14287500Y91945000D03*
X14287500Y90395000D03*
%TD*%
%TO.C,C9*%
X14287500Y50805000D03*
X14287500Y49255000D03*
%TD*%
D12*
%TO.C,ST2*%
X126476000Y125960000D03*
%TD*%
%TO.C,ST2*%
X126476000Y84820000D03*
%TD*%
%TO.C,ST2*%
X126476000Y43680000D03*
%TD*%
%TO.C,ST2*%
X126476000Y2540000D03*
%TD*%
%TO.C,ST2*%
X82288000Y125960000D03*
%TD*%
%TO.C,ST2*%
X82288000Y84820000D03*
%TD*%
%TO.C,ST2*%
X82288000Y43680000D03*
%TD*%
%TO.C,ST2*%
X82288000Y2540000D03*
%TD*%
%TO.C,ST2*%
X38100000Y125960000D03*
%TD*%
%TO.C,ST2*%
X38100000Y84820000D03*
%TD*%
%TO.C,ST2*%
X38100000Y43680000D03*
%TD*%
D17*
%TO.C,C2*%
X120126000Y140387500D03*
X120126000Y138837500D03*
%TD*%
%TO.C,C2*%
X120126000Y99247500D03*
X120126000Y97697500D03*
%TD*%
%TO.C,C2*%
X120126000Y58107500D03*
X120126000Y56557500D03*
%TD*%
%TO.C,C2*%
X120126000Y16967500D03*
X120126000Y15417500D03*
%TD*%
%TO.C,C2*%
X75938000Y140387500D03*
X75938000Y138837500D03*
%TD*%
%TO.C,C2*%
X75938000Y99247500D03*
X75938000Y97697500D03*
%TD*%
%TO.C,C2*%
X75938000Y58107500D03*
X75938000Y56557500D03*
%TD*%
%TO.C,C2*%
X75938000Y16967500D03*
X75938000Y15417500D03*
%TD*%
%TO.C,C2*%
X31750000Y140387500D03*
X31750000Y138837500D03*
%TD*%
%TO.C,C2*%
X31750000Y99247500D03*
X31750000Y97697500D03*
%TD*%
%TO.C,C2*%
X31750000Y58107500D03*
X31750000Y56557500D03*
%TD*%
D38*
%TO.C,J1*%
X94864750Y146630000D03*
X94864750Y140850000D03*
D39*
X95969750Y144990000D03*
X95969750Y143990000D03*
D40*
X95969750Y143490000D03*
X95969750Y142490000D03*
X95969750Y141990000D03*
X95969750Y142990000D03*
D39*
X95969750Y144490000D03*
X95969750Y145490000D03*
D41*
X95969750Y146965000D03*
D42*
X95969750Y140515000D03*
D43*
X91214750Y148058000D03*
D44*
X95394750Y148058000D03*
X95394750Y139422000D03*
D43*
X91214750Y139422000D03*
D41*
X95969750Y146190000D03*
D42*
X95969750Y141290000D03*
%TD*%
D38*
%TO.C,J1*%
X94864750Y105490000D03*
X94864750Y99710000D03*
D39*
X95969750Y103850000D03*
X95969750Y102850000D03*
D40*
X95969750Y102350000D03*
X95969750Y101350000D03*
X95969750Y100850000D03*
X95969750Y101850000D03*
D39*
X95969750Y103350000D03*
X95969750Y104350000D03*
D41*
X95969750Y105825000D03*
D42*
X95969750Y99375000D03*
D43*
X91214750Y106918000D03*
D44*
X95394750Y106918000D03*
X95394750Y98282000D03*
D43*
X91214750Y98282000D03*
D41*
X95969750Y105050000D03*
D42*
X95969750Y100150000D03*
%TD*%
D38*
%TO.C,J1*%
X94864750Y64350000D03*
X94864750Y58570000D03*
D39*
X95969750Y62710000D03*
X95969750Y61710000D03*
D40*
X95969750Y61210000D03*
X95969750Y60210000D03*
X95969750Y59710000D03*
X95969750Y60710000D03*
D39*
X95969750Y62210000D03*
X95969750Y63210000D03*
D41*
X95969750Y64685000D03*
D42*
X95969750Y58235000D03*
D43*
X91214750Y65778000D03*
D44*
X95394750Y65778000D03*
X95394750Y57142000D03*
D43*
X91214750Y57142000D03*
D41*
X95969750Y63910000D03*
D42*
X95969750Y59010000D03*
%TD*%
D38*
%TO.C,J1*%
X94864750Y23210000D03*
X94864750Y17430000D03*
D39*
X95969750Y21570000D03*
X95969750Y20570000D03*
D40*
X95969750Y20070000D03*
X95969750Y19070000D03*
X95969750Y18570000D03*
X95969750Y19570000D03*
D39*
X95969750Y21070000D03*
X95969750Y22070000D03*
D41*
X95969750Y23545000D03*
D42*
X95969750Y17095000D03*
D43*
X91214750Y24638000D03*
D44*
X95394750Y24638000D03*
X95394750Y16002000D03*
D43*
X91214750Y16002000D03*
D41*
X95969750Y22770000D03*
D42*
X95969750Y17870000D03*
%TD*%
D38*
%TO.C,J1*%
X50676750Y146630000D03*
X50676750Y140850000D03*
D39*
X51781750Y144990000D03*
X51781750Y143990000D03*
D40*
X51781750Y143490000D03*
X51781750Y142490000D03*
X51781750Y141990000D03*
X51781750Y142990000D03*
D39*
X51781750Y144490000D03*
X51781750Y145490000D03*
D41*
X51781750Y146965000D03*
D42*
X51781750Y140515000D03*
D43*
X47026750Y148058000D03*
D44*
X51206750Y148058000D03*
X51206750Y139422000D03*
D43*
X47026750Y139422000D03*
D41*
X51781750Y146190000D03*
D42*
X51781750Y141290000D03*
%TD*%
D38*
%TO.C,J1*%
X50676750Y105490000D03*
X50676750Y99710000D03*
D39*
X51781750Y103850000D03*
X51781750Y102850000D03*
D40*
X51781750Y102350000D03*
X51781750Y101350000D03*
X51781750Y100850000D03*
X51781750Y101850000D03*
D39*
X51781750Y103350000D03*
X51781750Y104350000D03*
D41*
X51781750Y105825000D03*
D42*
X51781750Y99375000D03*
D43*
X47026750Y106918000D03*
D44*
X51206750Y106918000D03*
X51206750Y98282000D03*
D43*
X47026750Y98282000D03*
D41*
X51781750Y105050000D03*
D42*
X51781750Y100150000D03*
%TD*%
D38*
%TO.C,J1*%
X50676750Y64350000D03*
X50676750Y58570000D03*
D39*
X51781750Y62710000D03*
X51781750Y61710000D03*
D40*
X51781750Y61210000D03*
X51781750Y60210000D03*
X51781750Y59710000D03*
X51781750Y60710000D03*
D39*
X51781750Y62210000D03*
X51781750Y63210000D03*
D41*
X51781750Y64685000D03*
D42*
X51781750Y58235000D03*
D43*
X47026750Y65778000D03*
D44*
X51206750Y65778000D03*
X51206750Y57142000D03*
D43*
X47026750Y57142000D03*
D41*
X51781750Y63910000D03*
D42*
X51781750Y59010000D03*
%TD*%
D38*
%TO.C,J1*%
X50676750Y23210000D03*
X50676750Y17430000D03*
D39*
X51781750Y21570000D03*
X51781750Y20570000D03*
D40*
X51781750Y20070000D03*
X51781750Y19070000D03*
X51781750Y18570000D03*
X51781750Y19570000D03*
D39*
X51781750Y21070000D03*
X51781750Y22070000D03*
D41*
X51781750Y23545000D03*
D42*
X51781750Y17095000D03*
D43*
X47026750Y24638000D03*
D44*
X51206750Y24638000D03*
X51206750Y16002000D03*
D43*
X47026750Y16002000D03*
D41*
X51781750Y22770000D03*
D42*
X51781750Y17870000D03*
%TD*%
D38*
%TO.C,J1*%
X6488750Y146630000D03*
X6488750Y140850000D03*
D39*
X7593750Y144990000D03*
X7593750Y143990000D03*
D40*
X7593750Y143490000D03*
X7593750Y142490000D03*
X7593750Y141990000D03*
X7593750Y142990000D03*
D39*
X7593750Y144490000D03*
X7593750Y145490000D03*
D41*
X7593750Y146965000D03*
D42*
X7593750Y140515000D03*
D43*
X2838750Y148058000D03*
D44*
X7018750Y148058000D03*
X7018750Y139422000D03*
D43*
X2838750Y139422000D03*
D41*
X7593750Y146190000D03*
D42*
X7593750Y141290000D03*
%TD*%
D38*
%TO.C,J1*%
X6488750Y105490000D03*
X6488750Y99710000D03*
D39*
X7593750Y103850000D03*
X7593750Y102850000D03*
D40*
X7593750Y102350000D03*
X7593750Y101350000D03*
X7593750Y100850000D03*
X7593750Y101850000D03*
D39*
X7593750Y103350000D03*
X7593750Y104350000D03*
D41*
X7593750Y105825000D03*
D42*
X7593750Y99375000D03*
D43*
X2838750Y106918000D03*
D44*
X7018750Y106918000D03*
X7018750Y98282000D03*
D43*
X2838750Y98282000D03*
D41*
X7593750Y105050000D03*
D42*
X7593750Y100150000D03*
%TD*%
D38*
%TO.C,J1*%
X6488750Y64350000D03*
X6488750Y58570000D03*
D39*
X7593750Y62710000D03*
X7593750Y61710000D03*
D40*
X7593750Y61210000D03*
X7593750Y60210000D03*
X7593750Y59710000D03*
X7593750Y60710000D03*
D39*
X7593750Y62210000D03*
X7593750Y63210000D03*
D41*
X7593750Y64685000D03*
D42*
X7593750Y58235000D03*
D43*
X2838750Y65778000D03*
D44*
X7018750Y65778000D03*
X7018750Y57142000D03*
D43*
X2838750Y57142000D03*
D41*
X7593750Y63910000D03*
D42*
X7593750Y59010000D03*
%TD*%
D23*
%TO.C,JP3*%
X118741700Y125007500D03*
X117700300Y125007500D03*
%TD*%
%TO.C,JP3*%
X118741700Y83867500D03*
X117700300Y83867500D03*
%TD*%
%TO.C,JP3*%
X118741700Y42727500D03*
X117700300Y42727500D03*
%TD*%
%TO.C,JP3*%
X118741700Y1587500D03*
X117700300Y1587500D03*
%TD*%
%TO.C,JP3*%
X74553700Y125007500D03*
X73512300Y125007500D03*
%TD*%
%TO.C,JP3*%
X74553700Y83867500D03*
X73512300Y83867500D03*
%TD*%
%TO.C,JP3*%
X74553700Y42727500D03*
X73512300Y42727500D03*
%TD*%
%TO.C,JP3*%
X74553700Y1587500D03*
X73512300Y1587500D03*
%TD*%
%TO.C,JP3*%
X30365700Y125007500D03*
X29324300Y125007500D03*
%TD*%
%TO.C,JP3*%
X30365700Y83867500D03*
X29324300Y83867500D03*
%TD*%
%TO.C,JP3*%
X30365700Y42727500D03*
X29324300Y42727500D03*
%TD*%
D34*
%TO.C,FID3*%
X89011000Y163425000D03*
%TD*%
%TO.C,FID3*%
X89011000Y122285000D03*
%TD*%
%TO.C,FID3*%
X89011000Y81145000D03*
%TD*%
%TO.C,FID3*%
X89011000Y40005000D03*
%TD*%
%TO.C,FID3*%
X44823000Y163425000D03*
%TD*%
%TO.C,FID3*%
X44823000Y122285000D03*
%TD*%
%TO.C,FID3*%
X44823000Y81145000D03*
%TD*%
%TO.C,FID3*%
X44823000Y40005000D03*
%TD*%
%TO.C,FID3*%
X635000Y163425000D03*
%TD*%
%TO.C,FID3*%
X635000Y122285000D03*
%TD*%
%TO.C,FID3*%
X635000Y81145000D03*
%TD*%
D19*
%TO.C,J2*%
X115046000Y124690000D03*
X112506000Y124690000D03*
X109966000Y124690000D03*
X107426000Y124690000D03*
X104886000Y124690000D03*
X102346000Y124690000D03*
%TD*%
%TO.C,J2*%
X115046000Y83550000D03*
X112506000Y83550000D03*
X109966000Y83550000D03*
X107426000Y83550000D03*
X104886000Y83550000D03*
X102346000Y83550000D03*
%TD*%
%TO.C,J2*%
X115046000Y42410000D03*
X112506000Y42410000D03*
X109966000Y42410000D03*
X107426000Y42410000D03*
X104886000Y42410000D03*
X102346000Y42410000D03*
%TD*%
%TO.C,J2*%
X115046000Y1270000D03*
X112506000Y1270000D03*
X109966000Y1270000D03*
X107426000Y1270000D03*
X104886000Y1270000D03*
X102346000Y1270000D03*
%TD*%
%TO.C,J2*%
X70858000Y124690000D03*
X68318000Y124690000D03*
X65778000Y124690000D03*
X63238000Y124690000D03*
X60698000Y124690000D03*
X58158000Y124690000D03*
%TD*%
%TO.C,J2*%
X70858000Y83550000D03*
X68318000Y83550000D03*
X65778000Y83550000D03*
X63238000Y83550000D03*
X60698000Y83550000D03*
X58158000Y83550000D03*
%TD*%
%TO.C,J2*%
X70858000Y42410000D03*
X68318000Y42410000D03*
X65778000Y42410000D03*
X63238000Y42410000D03*
X60698000Y42410000D03*
X58158000Y42410000D03*
%TD*%
%TO.C,J2*%
X70858000Y1270000D03*
X68318000Y1270000D03*
X65778000Y1270000D03*
X63238000Y1270000D03*
X60698000Y1270000D03*
X58158000Y1270000D03*
%TD*%
%TO.C,J2*%
X26670000Y124690000D03*
X24130000Y124690000D03*
X21590000Y124690000D03*
X19050000Y124690000D03*
X16510000Y124690000D03*
X13970000Y124690000D03*
%TD*%
%TO.C,J2*%
X26670000Y83550000D03*
X24130000Y83550000D03*
X21590000Y83550000D03*
X19050000Y83550000D03*
X16510000Y83550000D03*
X13970000Y83550000D03*
%TD*%
%TO.C,J2*%
X26670000Y42410000D03*
X24130000Y42410000D03*
X21590000Y42410000D03*
X19050000Y42410000D03*
X16510000Y42410000D03*
X13970000Y42410000D03*
%TD*%
D45*
%TO.C,JP9*%
X98015300Y154852500D03*
X99056700Y154852500D03*
%TD*%
%TO.C,JP9*%
X98015300Y113712500D03*
X99056700Y113712500D03*
%TD*%
%TO.C,JP9*%
X98015300Y72572500D03*
X99056700Y72572500D03*
%TD*%
%TO.C,JP9*%
X98015300Y31432500D03*
X99056700Y31432500D03*
%TD*%
%TO.C,JP9*%
X53827300Y154852500D03*
X54868700Y154852500D03*
%TD*%
%TO.C,JP9*%
X53827300Y113712500D03*
X54868700Y113712500D03*
%TD*%
%TO.C,JP9*%
X53827300Y72572500D03*
X54868700Y72572500D03*
%TD*%
%TO.C,JP9*%
X53827300Y31432500D03*
X54868700Y31432500D03*
%TD*%
%TO.C,JP9*%
X9639300Y154852500D03*
X10680700Y154852500D03*
%TD*%
%TO.C,JP9*%
X9639300Y113712500D03*
X10680700Y113712500D03*
%TD*%
%TO.C,JP9*%
X9639300Y72572500D03*
X10680700Y72572500D03*
%TD*%
D17*
%TO.C,C16*%
X111553500Y136895000D03*
X111553500Y135345000D03*
%TD*%
%TO.C,C16*%
X111553500Y95755000D03*
X111553500Y94205000D03*
%TD*%
%TO.C,C16*%
X111553500Y54615000D03*
X111553500Y53065000D03*
%TD*%
%TO.C,C16*%
X111553500Y13475000D03*
X111553500Y11925000D03*
%TD*%
%TO.C,C16*%
X67365500Y136895000D03*
X67365500Y135345000D03*
%TD*%
%TO.C,C16*%
X67365500Y95755000D03*
X67365500Y94205000D03*
%TD*%
%TO.C,C16*%
X67365500Y54615000D03*
X67365500Y53065000D03*
%TD*%
%TO.C,C16*%
X67365500Y13475000D03*
X67365500Y11925000D03*
%TD*%
%TO.C,C16*%
X23177500Y136895000D03*
X23177500Y135345000D03*
%TD*%
%TO.C,C16*%
X23177500Y95755000D03*
X23177500Y94205000D03*
%TD*%
%TO.C,C16*%
X23177500Y54615000D03*
X23177500Y53065000D03*
%TD*%
%TO.C,C16*%
X23177500Y13475000D03*
X23177500Y11925000D03*
%TD*%
D45*
%TO.C,JP9*%
X9639300Y31432500D03*
X10680700Y31432500D03*
%TD*%
D19*
%TO.C,J2*%
X26670000Y1270000D03*
X24130000Y1270000D03*
X21590000Y1270000D03*
X19050000Y1270000D03*
X16510000Y1270000D03*
X13970000Y1270000D03*
%TD*%
D34*
%TO.C,FID3*%
X635000Y40005000D03*
%TD*%
D23*
%TO.C,JP3*%
X30365700Y1587500D03*
X29324300Y1587500D03*
%TD*%
D38*
%TO.C,J1*%
X6488750Y23210000D03*
X6488750Y17430000D03*
D39*
X7593750Y21570000D03*
X7593750Y20570000D03*
D40*
X7593750Y20070000D03*
X7593750Y19070000D03*
X7593750Y18570000D03*
X7593750Y19570000D03*
D39*
X7593750Y21070000D03*
X7593750Y22070000D03*
D41*
X7593750Y23545000D03*
D42*
X7593750Y17095000D03*
D43*
X2838750Y24638000D03*
D44*
X7018750Y24638000D03*
X7018750Y16002000D03*
D43*
X2838750Y16002000D03*
D41*
X7593750Y22770000D03*
D42*
X7593750Y17870000D03*
%TD*%
D17*
%TO.C,C2*%
X31750000Y16967500D03*
X31750000Y15417500D03*
%TD*%
D12*
%TO.C,ST2*%
X38100000Y2540000D03*
%TD*%
D17*
%TO.C,C9*%
X14287500Y9665000D03*
X14287500Y8115000D03*
%TD*%
D19*
%TO.C,J5*%
X29210000Y39370000D03*
X26670000Y39370000D03*
X24130000Y39370000D03*
X21590000Y39370000D03*
X19050000Y39370000D03*
X16510000Y39370000D03*
X13970000Y39370000D03*
X11430000Y39370000D03*
%TD*%
D37*
%TO.C,JP7*%
X1905000Y30683200D03*
X1905000Y29641800D03*
%TD*%
D36*
%TO.C,D5*%
X15875000Y10040000D03*
X15875000Y7740000D03*
%TD*%
D32*
%TO.C,R2*%
X2350000Y26352500D03*
X4000000Y26352500D03*
%TD*%
D28*
%TO.C,R5*%
X30828750Y8572500D03*
X29178750Y8572500D03*
%TD*%
D35*
%TO.C,D1*%
X34125000Y12700000D03*
X32550000Y12700000D03*
%TD*%
D28*
%TO.C,R4*%
X30987500Y12700000D03*
X29337500Y12700000D03*
%TD*%
%TO.C,R12*%
X21145000Y10477500D03*
X19495000Y10477500D03*
%TD*%
D17*
%TO.C,C15*%
X24765000Y13475000D03*
X24765000Y11925000D03*
%TD*%
D34*
%TO.C,FID4*%
X40005000Y635000D03*
%TD*%
D17*
%TO.C,C1*%
X33655000Y16967500D03*
X33655000Y15417500D03*
%TD*%
D33*
%TO.C,D4*%
X33655000Y19360000D03*
X33655000Y20320000D03*
%TD*%
D32*
%TO.C,R1*%
X2350000Y14287500D03*
X4000000Y14287500D03*
%TD*%
D12*
%TO.C,ST1*%
X38100000Y38100000D03*
%TD*%
D31*
%TO.C,U3*%
X19019900Y13650000D03*
X19019900Y12700000D03*
X19019900Y11750000D03*
X21620100Y11750000D03*
X21620100Y13650000D03*
%TD*%
D23*
%TO.C,JP10*%
X10680700Y28892500D03*
X9639300Y28892500D03*
%TD*%
D30*
%TO.C,F1*%
X13917500Y16827500D03*
X12117500Y16827500D03*
%TD*%
D29*
%TO.C,R6*%
X28575000Y23282500D03*
X28575000Y17357500D03*
%TD*%
D17*
%TO.C,C7*%
X17462500Y13475000D03*
X17462500Y11925000D03*
%TD*%
D28*
%TO.C,R3*%
X14160000Y31432500D03*
X12510000Y31432500D03*
%TD*%
D27*
%TO.C,U4*%
X17520000Y24765000D03*
X17520000Y23495000D03*
X17520000Y22225000D03*
X17520000Y20955000D03*
X17520000Y19685000D03*
X17520000Y18415000D03*
X17520000Y17145000D03*
X17520000Y15875000D03*
X23120000Y15875000D03*
X23120000Y17145000D03*
X23120000Y18415000D03*
X23120000Y19685000D03*
X23120000Y20955000D03*
X23120000Y22225000D03*
X23120000Y23495000D03*
X23120000Y24765000D03*
%TD*%
D26*
%TO.C,C10*%
X12242500Y23177500D03*
X13792500Y23177500D03*
%TD*%
D25*
%TO.C,L1*%
X31750000Y18910000D03*
X31750000Y20460000D03*
%TD*%
D24*
%TO.C,JP1*%
X30251400Y32385000D03*
X29438600Y32385000D03*
%TD*%
D23*
%TO.C,JP2*%
X30365700Y4127500D03*
X29324300Y4127500D03*
%TD*%
D21*
%TO.C,J4*%
X35940000Y20320000D03*
D22*
X37465000Y18945000D03*
X37465000Y21695000D03*
%TD*%
D19*
%TO.C,JP11*%
X1905000Y12382500D03*
D20*
X2667000Y12382500D03*
X3683000Y12382500D03*
D19*
X4445000Y12382500D03*
%TD*%
D18*
%TO.C,U1*%
X14317600Y19370000D03*
X14317600Y20320000D03*
X14317600Y21270000D03*
X11717400Y21270000D03*
X11717500Y20320000D03*
X11717400Y19370000D03*
%TD*%
D17*
%TO.C,C14*%
X15875000Y13475000D03*
X15875000Y11925000D03*
%TD*%
D16*
%TO.C,D2*%
X8890000Y11550000D03*
X8890000Y13850000D03*
%TD*%
D17*
%TO.C,C17*%
X26352500Y13475000D03*
X26352500Y11925000D03*
%TD*%
D16*
%TO.C,D3*%
X6985000Y11550000D03*
X6985000Y13850000D03*
%TD*%
D12*
%TO.C,ST3*%
X2540000Y38100000D03*
%TD*%
D14*
%TO.C,D6*%
X34925000Y8572500D03*
D15*
X36725000Y8572500D03*
X33125000Y8572500D03*
%TD*%
D13*
%TO.C,R7*%
X12700000Y9715000D03*
X12700000Y8065000D03*
%TD*%
D12*
%TO.C,ST4*%
X2540000Y2540000D03*
%TD*%
M02*
