%TF.GenerationSoftware,KiCad,Pcbnew,9.0.1*%
%TF.CreationDate,2025-04-15T12:31:11-06:00*%
%TF.ProjectId,SparkFun_GNSS_DAN-F10N_panelized,53706172-6b46-4756-9e5f-474e53535f44,rev?*%
%TF.SameCoordinates,Original*%
%TF.FileFunction,Soldermask,Bot*%
%TF.FilePolarity,Negative*%
%FSLAX46Y46*%
G04 Gerber Fmt 4.6, Leading zero omitted, Abs format (unit mm)*
G04 Created by KiCad (PCBNEW 9.0.1) date 2025-04-15 12:31:11*
%MOMM*%
%LPD*%
G01*
G04 APERTURE LIST*
G04 Aperture macros list*
%AMRoundRect*
0 Rectangle with rounded corners*
0 $1 Rounding radius*
0 $2 $3 $4 $5 $6 $7 $8 $9 X,Y pos of 4 corners*
0 Add a 4 corners polygon primitive as box body*
4,1,4,$2,$3,$4,$5,$6,$7,$8,$9,$2,$3,0*
0 Add four circle primitives for the rounded corners*
1,1,$1+$1,$2,$3*
1,1,$1+$1,$4,$5*
1,1,$1+$1,$6,$7*
1,1,$1+$1,$8,$9*
0 Add four rect primitives between the rounded corners*
20,1,$1+$1,$2,$3,$4,$5,0*
20,1,$1+$1,$4,$5,$6,$7,0*
20,1,$1+$1,$6,$7,$8,$9,0*
20,1,$1+$1,$8,$9,$2,$3,0*%
G04 Aperture macros list end*
%ADD10C,3.000000*%
%ADD11RoundRect,0.050000X0.750000X0.400000X-0.750000X0.400000X-0.750000X-0.400000X0.750000X-0.400000X0*%
%ADD12RoundRect,0.050000X0.400000X-0.750000X0.400000X0.750000X-0.400000X0.750000X-0.400000X-0.750000X0*%
%ADD13RoundRect,0.050000X-0.750000X-0.400000X0.750000X-0.400000X0.750000X0.400000X-0.750000X0.400000X0*%
%ADD14RoundRect,0.050000X-0.400000X0.750000X-0.400000X-0.750000X0.400000X-0.750000X0.400000X0.750000X0*%
%ADD15RoundRect,0.050000X-0.550000X0.550000X-0.550000X-0.550000X0.550000X-0.550000X0.550000X0.550000X0*%
%ADD16RoundRect,0.050000X-0.550000X-0.550000X0.550000X-0.550000X0.550000X0.550000X-0.550000X0.550000X0*%
%ADD17RoundRect,0.050000X0.550000X-0.550000X0.550000X0.550000X-0.550000X0.550000X-0.550000X-0.550000X0*%
%ADD18RoundRect,0.050000X0.550000X0.550000X-0.550000X0.550000X-0.550000X-0.550000X0.550000X-0.550000X0*%
%ADD19C,0.600000*%
%ADD20C,3.200000*%
%ADD21C,2.400000*%
%ADD22C,1.979600*%
%ADD23C,0.750000*%
%ADD24O,1.700000X1.100000*%
%ADD25O,2.200000X1.100000*%
G04 APERTURE END LIST*
D10*
%TO.C,*%
X134151500Y162060000D03*
%TD*%
%TO.C,*%
X-5135500Y162060000D03*
%TD*%
%TO.C,*%
X-5135500Y2000000D03*
%TD*%
D11*
%TO.C,U6*%
X99746000Y136590000D03*
X99746000Y137690000D03*
X99746000Y138790000D03*
X99746000Y139890000D03*
X99746000Y140990000D03*
X99746000Y142090000D03*
X99746000Y143190000D03*
X99746000Y144290000D03*
X99746000Y145390000D03*
X99746000Y146490000D03*
X99746000Y147590000D03*
X99746000Y148690000D03*
X99746000Y149790000D03*
X99746000Y150890000D03*
D12*
X101546000Y152690000D03*
X102646000Y152690000D03*
X103746000Y152690000D03*
X104846000Y152690000D03*
X105946000Y152690000D03*
X107046000Y152690000D03*
X108146000Y152690000D03*
X109246000Y152690000D03*
X110346000Y152690000D03*
X111446000Y152690000D03*
X112546000Y152690000D03*
X113646000Y152690000D03*
X114746000Y152690000D03*
X115846000Y152690000D03*
D13*
X117646000Y150890000D03*
X117646000Y149790000D03*
X117646000Y148690000D03*
X117646000Y147590000D03*
X117646000Y146490000D03*
X117646000Y145390000D03*
X117646000Y144290000D03*
X117646000Y143190000D03*
X117646000Y142090000D03*
X117646000Y140990000D03*
X117646000Y139890000D03*
X117646000Y138790000D03*
X117646000Y137690000D03*
X117646000Y136590000D03*
D14*
X115846000Y134790000D03*
X114746000Y134790000D03*
X113646000Y134790000D03*
X112546000Y134790000D03*
X111446000Y134790000D03*
X110346000Y134790000D03*
X109246000Y134790000D03*
X108146000Y134790000D03*
X107046000Y134790000D03*
X105946000Y134790000D03*
X104846000Y134790000D03*
X103746000Y134790000D03*
X102646000Y134790000D03*
X101546000Y134790000D03*
D15*
X102046000Y148490000D03*
D16*
X102046000Y146590000D03*
X102046000Y144690000D03*
X102046000Y142790000D03*
X102046000Y140890000D03*
D17*
X102046000Y138990000D03*
D16*
X103946000Y150390000D03*
X103946000Y148490000D03*
X103946000Y146590000D03*
X103946000Y144690000D03*
X103946000Y142790000D03*
X103946000Y140890000D03*
D17*
X103946000Y138990000D03*
D16*
X103946000Y137090000D03*
D15*
X105846000Y150390000D03*
X105846000Y148490000D03*
D17*
X105846000Y138990000D03*
X105846000Y137090000D03*
D15*
X107746000Y150390000D03*
X107746000Y148490000D03*
D17*
X107746000Y138990000D03*
X107746000Y137090000D03*
D15*
X109646000Y150390000D03*
X109646000Y148490000D03*
D17*
X109646000Y138990000D03*
X109646000Y137090000D03*
D15*
X111546000Y150390000D03*
X111546000Y148490000D03*
D17*
X111546000Y138990000D03*
X111546000Y137090000D03*
D18*
X113446000Y150390000D03*
X113446000Y148490000D03*
X113446000Y146590000D03*
X113446000Y144690000D03*
X113446000Y142790000D03*
X113446000Y140890000D03*
X113446000Y138990000D03*
X113446000Y137090000D03*
X115346000Y148490000D03*
X115346000Y146590000D03*
X115346000Y144690000D03*
X115346000Y142790000D03*
X115346000Y140890000D03*
D17*
X115346000Y138990000D03*
%TD*%
D11*
%TO.C,U6*%
X99746000Y95450000D03*
X99746000Y96550000D03*
X99746000Y97650000D03*
X99746000Y98750000D03*
X99746000Y99850000D03*
X99746000Y100950000D03*
X99746000Y102050000D03*
X99746000Y103150000D03*
X99746000Y104250000D03*
X99746000Y105350000D03*
X99746000Y106450000D03*
X99746000Y107550000D03*
X99746000Y108650000D03*
X99746000Y109750000D03*
D12*
X101546000Y111550000D03*
X102646000Y111550000D03*
X103746000Y111550000D03*
X104846000Y111550000D03*
X105946000Y111550000D03*
X107046000Y111550000D03*
X108146000Y111550000D03*
X109246000Y111550000D03*
X110346000Y111550000D03*
X111446000Y111550000D03*
X112546000Y111550000D03*
X113646000Y111550000D03*
X114746000Y111550000D03*
X115846000Y111550000D03*
D13*
X117646000Y109750000D03*
X117646000Y108650000D03*
X117646000Y107550000D03*
X117646000Y106450000D03*
X117646000Y105350000D03*
X117646000Y104250000D03*
X117646000Y103150000D03*
X117646000Y102050000D03*
X117646000Y100950000D03*
X117646000Y99850000D03*
X117646000Y98750000D03*
X117646000Y97650000D03*
X117646000Y96550000D03*
X117646000Y95450000D03*
D14*
X115846000Y93650000D03*
X114746000Y93650000D03*
X113646000Y93650000D03*
X112546000Y93650000D03*
X111446000Y93650000D03*
X110346000Y93650000D03*
X109246000Y93650000D03*
X108146000Y93650000D03*
X107046000Y93650000D03*
X105946000Y93650000D03*
X104846000Y93650000D03*
X103746000Y93650000D03*
X102646000Y93650000D03*
X101546000Y93650000D03*
D15*
X102046000Y107350000D03*
D16*
X102046000Y105450000D03*
X102046000Y103550000D03*
X102046000Y101650000D03*
X102046000Y99750000D03*
D17*
X102046000Y97850000D03*
D16*
X103946000Y109250000D03*
X103946000Y107350000D03*
X103946000Y105450000D03*
X103946000Y103550000D03*
X103946000Y101650000D03*
X103946000Y99750000D03*
D17*
X103946000Y97850000D03*
D16*
X103946000Y95950000D03*
D15*
X105846000Y109250000D03*
X105846000Y107350000D03*
D17*
X105846000Y97850000D03*
X105846000Y95950000D03*
D15*
X107746000Y109250000D03*
X107746000Y107350000D03*
D17*
X107746000Y97850000D03*
X107746000Y95950000D03*
D15*
X109646000Y109250000D03*
X109646000Y107350000D03*
D17*
X109646000Y97850000D03*
X109646000Y95950000D03*
D15*
X111546000Y109250000D03*
X111546000Y107350000D03*
D17*
X111546000Y97850000D03*
X111546000Y95950000D03*
D18*
X113446000Y109250000D03*
X113446000Y107350000D03*
X113446000Y105450000D03*
X113446000Y103550000D03*
X113446000Y101650000D03*
X113446000Y99750000D03*
X113446000Y97850000D03*
X113446000Y95950000D03*
X115346000Y107350000D03*
X115346000Y105450000D03*
X115346000Y103550000D03*
X115346000Y101650000D03*
X115346000Y99750000D03*
D17*
X115346000Y97850000D03*
%TD*%
D11*
%TO.C,U6*%
X99746000Y54310000D03*
X99746000Y55410000D03*
X99746000Y56510000D03*
X99746000Y57610000D03*
X99746000Y58710000D03*
X99746000Y59810000D03*
X99746000Y60910000D03*
X99746000Y62010000D03*
X99746000Y63110000D03*
X99746000Y64210000D03*
X99746000Y65310000D03*
X99746000Y66410000D03*
X99746000Y67510000D03*
X99746000Y68610000D03*
D12*
X101546000Y70410000D03*
X102646000Y70410000D03*
X103746000Y70410000D03*
X104846000Y70410000D03*
X105946000Y70410000D03*
X107046000Y70410000D03*
X108146000Y70410000D03*
X109246000Y70410000D03*
X110346000Y70410000D03*
X111446000Y70410000D03*
X112546000Y70410000D03*
X113646000Y70410000D03*
X114746000Y70410000D03*
X115846000Y70410000D03*
D13*
X117646000Y68610000D03*
X117646000Y67510000D03*
X117646000Y66410000D03*
X117646000Y65310000D03*
X117646000Y64210000D03*
X117646000Y63110000D03*
X117646000Y62010000D03*
X117646000Y60910000D03*
X117646000Y59810000D03*
X117646000Y58710000D03*
X117646000Y57610000D03*
X117646000Y56510000D03*
X117646000Y55410000D03*
X117646000Y54310000D03*
D14*
X115846000Y52510000D03*
X114746000Y52510000D03*
X113646000Y52510000D03*
X112546000Y52510000D03*
X111446000Y52510000D03*
X110346000Y52510000D03*
X109246000Y52510000D03*
X108146000Y52510000D03*
X107046000Y52510000D03*
X105946000Y52510000D03*
X104846000Y52510000D03*
X103746000Y52510000D03*
X102646000Y52510000D03*
X101546000Y52510000D03*
D15*
X102046000Y66210000D03*
D16*
X102046000Y64310000D03*
X102046000Y62410000D03*
X102046000Y60510000D03*
X102046000Y58610000D03*
D17*
X102046000Y56710000D03*
D16*
X103946000Y68110000D03*
X103946000Y66210000D03*
X103946000Y64310000D03*
X103946000Y62410000D03*
X103946000Y60510000D03*
X103946000Y58610000D03*
D17*
X103946000Y56710000D03*
D16*
X103946000Y54810000D03*
D15*
X105846000Y68110000D03*
X105846000Y66210000D03*
D17*
X105846000Y56710000D03*
X105846000Y54810000D03*
D15*
X107746000Y68110000D03*
X107746000Y66210000D03*
D17*
X107746000Y56710000D03*
X107746000Y54810000D03*
D15*
X109646000Y68110000D03*
X109646000Y66210000D03*
D17*
X109646000Y56710000D03*
X109646000Y54810000D03*
D15*
X111546000Y68110000D03*
X111546000Y66210000D03*
D17*
X111546000Y56710000D03*
X111546000Y54810000D03*
D18*
X113446000Y68110000D03*
X113446000Y66210000D03*
X113446000Y64310000D03*
X113446000Y62410000D03*
X113446000Y60510000D03*
X113446000Y58610000D03*
X113446000Y56710000D03*
X113446000Y54810000D03*
X115346000Y66210000D03*
X115346000Y64310000D03*
X115346000Y62410000D03*
X115346000Y60510000D03*
X115346000Y58610000D03*
D17*
X115346000Y56710000D03*
%TD*%
D11*
%TO.C,U6*%
X99746000Y13170000D03*
X99746000Y14270000D03*
X99746000Y15370000D03*
X99746000Y16470000D03*
X99746000Y17570000D03*
X99746000Y18670000D03*
X99746000Y19770000D03*
X99746000Y20870000D03*
X99746000Y21970000D03*
X99746000Y23070000D03*
X99746000Y24170000D03*
X99746000Y25270000D03*
X99746000Y26370000D03*
X99746000Y27470000D03*
D12*
X101546000Y29270000D03*
X102646000Y29270000D03*
X103746000Y29270000D03*
X104846000Y29270000D03*
X105946000Y29270000D03*
X107046000Y29270000D03*
X108146000Y29270000D03*
X109246000Y29270000D03*
X110346000Y29270000D03*
X111446000Y29270000D03*
X112546000Y29270000D03*
X113646000Y29270000D03*
X114746000Y29270000D03*
X115846000Y29270000D03*
D13*
X117646000Y27470000D03*
X117646000Y26370000D03*
X117646000Y25270000D03*
X117646000Y24170000D03*
X117646000Y23070000D03*
X117646000Y21970000D03*
X117646000Y20870000D03*
X117646000Y19770000D03*
X117646000Y18670000D03*
X117646000Y17570000D03*
X117646000Y16470000D03*
X117646000Y15370000D03*
X117646000Y14270000D03*
X117646000Y13170000D03*
D14*
X115846000Y11370000D03*
X114746000Y11370000D03*
X113646000Y11370000D03*
X112546000Y11370000D03*
X111446000Y11370000D03*
X110346000Y11370000D03*
X109246000Y11370000D03*
X108146000Y11370000D03*
X107046000Y11370000D03*
X105946000Y11370000D03*
X104846000Y11370000D03*
X103746000Y11370000D03*
X102646000Y11370000D03*
X101546000Y11370000D03*
D15*
X102046000Y25070000D03*
D16*
X102046000Y23170000D03*
X102046000Y21270000D03*
X102046000Y19370000D03*
X102046000Y17470000D03*
D17*
X102046000Y15570000D03*
D16*
X103946000Y26970000D03*
X103946000Y25070000D03*
X103946000Y23170000D03*
X103946000Y21270000D03*
X103946000Y19370000D03*
X103946000Y17470000D03*
D17*
X103946000Y15570000D03*
D16*
X103946000Y13670000D03*
D15*
X105846000Y26970000D03*
X105846000Y25070000D03*
D17*
X105846000Y15570000D03*
X105846000Y13670000D03*
D15*
X107746000Y26970000D03*
X107746000Y25070000D03*
D17*
X107746000Y15570000D03*
X107746000Y13670000D03*
D15*
X109646000Y26970000D03*
X109646000Y25070000D03*
D17*
X109646000Y15570000D03*
X109646000Y13670000D03*
D15*
X111546000Y26970000D03*
X111546000Y25070000D03*
D17*
X111546000Y15570000D03*
X111546000Y13670000D03*
D18*
X113446000Y26970000D03*
X113446000Y25070000D03*
X113446000Y23170000D03*
X113446000Y21270000D03*
X113446000Y19370000D03*
X113446000Y17470000D03*
X113446000Y15570000D03*
X113446000Y13670000D03*
X115346000Y25070000D03*
X115346000Y23170000D03*
X115346000Y21270000D03*
X115346000Y19370000D03*
X115346000Y17470000D03*
D17*
X115346000Y15570000D03*
%TD*%
D11*
%TO.C,U6*%
X55558000Y136590000D03*
X55558000Y137690000D03*
X55558000Y138790000D03*
X55558000Y139890000D03*
X55558000Y140990000D03*
X55558000Y142090000D03*
X55558000Y143190000D03*
X55558000Y144290000D03*
X55558000Y145390000D03*
X55558000Y146490000D03*
X55558000Y147590000D03*
X55558000Y148690000D03*
X55558000Y149790000D03*
X55558000Y150890000D03*
D12*
X57358000Y152690000D03*
X58458000Y152690000D03*
X59558000Y152690000D03*
X60658000Y152690000D03*
X61758000Y152690000D03*
X62858000Y152690000D03*
X63958000Y152690000D03*
X65058000Y152690000D03*
X66158000Y152690000D03*
X67258000Y152690000D03*
X68358000Y152690000D03*
X69458000Y152690000D03*
X70558000Y152690000D03*
X71658000Y152690000D03*
D13*
X73458000Y150890000D03*
X73458000Y149790000D03*
X73458000Y148690000D03*
X73458000Y147590000D03*
X73458000Y146490000D03*
X73458000Y145390000D03*
X73458000Y144290000D03*
X73458000Y143190000D03*
X73458000Y142090000D03*
X73458000Y140990000D03*
X73458000Y139890000D03*
X73458000Y138790000D03*
X73458000Y137690000D03*
X73458000Y136590000D03*
D14*
X71658000Y134790000D03*
X70558000Y134790000D03*
X69458000Y134790000D03*
X68358000Y134790000D03*
X67258000Y134790000D03*
X66158000Y134790000D03*
X65058000Y134790000D03*
X63958000Y134790000D03*
X62858000Y134790000D03*
X61758000Y134790000D03*
X60658000Y134790000D03*
X59558000Y134790000D03*
X58458000Y134790000D03*
X57358000Y134790000D03*
D15*
X57858000Y148490000D03*
D16*
X57858000Y146590000D03*
X57858000Y144690000D03*
X57858000Y142790000D03*
X57858000Y140890000D03*
D17*
X57858000Y138990000D03*
D16*
X59758000Y150390000D03*
X59758000Y148490000D03*
X59758000Y146590000D03*
X59758000Y144690000D03*
X59758000Y142790000D03*
X59758000Y140890000D03*
D17*
X59758000Y138990000D03*
D16*
X59758000Y137090000D03*
D15*
X61658000Y150390000D03*
X61658000Y148490000D03*
D17*
X61658000Y138990000D03*
X61658000Y137090000D03*
D15*
X63558000Y150390000D03*
X63558000Y148490000D03*
D17*
X63558000Y138990000D03*
X63558000Y137090000D03*
D15*
X65458000Y150390000D03*
X65458000Y148490000D03*
D17*
X65458000Y138990000D03*
X65458000Y137090000D03*
D15*
X67358000Y150390000D03*
X67358000Y148490000D03*
D17*
X67358000Y138990000D03*
X67358000Y137090000D03*
D18*
X69258000Y150390000D03*
X69258000Y148490000D03*
X69258000Y146590000D03*
X69258000Y144690000D03*
X69258000Y142790000D03*
X69258000Y140890000D03*
X69258000Y138990000D03*
X69258000Y137090000D03*
X71158000Y148490000D03*
X71158000Y146590000D03*
X71158000Y144690000D03*
X71158000Y142790000D03*
X71158000Y140890000D03*
D17*
X71158000Y138990000D03*
%TD*%
D11*
%TO.C,U6*%
X55558000Y95450000D03*
X55558000Y96550000D03*
X55558000Y97650000D03*
X55558000Y98750000D03*
X55558000Y99850000D03*
X55558000Y100950000D03*
X55558000Y102050000D03*
X55558000Y103150000D03*
X55558000Y104250000D03*
X55558000Y105350000D03*
X55558000Y106450000D03*
X55558000Y107550000D03*
X55558000Y108650000D03*
X55558000Y109750000D03*
D12*
X57358000Y111550000D03*
X58458000Y111550000D03*
X59558000Y111550000D03*
X60658000Y111550000D03*
X61758000Y111550000D03*
X62858000Y111550000D03*
X63958000Y111550000D03*
X65058000Y111550000D03*
X66158000Y111550000D03*
X67258000Y111550000D03*
X68358000Y111550000D03*
X69458000Y111550000D03*
X70558000Y111550000D03*
X71658000Y111550000D03*
D13*
X73458000Y109750000D03*
X73458000Y108650000D03*
X73458000Y107550000D03*
X73458000Y106450000D03*
X73458000Y105350000D03*
X73458000Y104250000D03*
X73458000Y103150000D03*
X73458000Y102050000D03*
X73458000Y100950000D03*
X73458000Y99850000D03*
X73458000Y98750000D03*
X73458000Y97650000D03*
X73458000Y96550000D03*
X73458000Y95450000D03*
D14*
X71658000Y93650000D03*
X70558000Y93650000D03*
X69458000Y93650000D03*
X68358000Y93650000D03*
X67258000Y93650000D03*
X66158000Y93650000D03*
X65058000Y93650000D03*
X63958000Y93650000D03*
X62858000Y93650000D03*
X61758000Y93650000D03*
X60658000Y93650000D03*
X59558000Y93650000D03*
X58458000Y93650000D03*
X57358000Y93650000D03*
D15*
X57858000Y107350000D03*
D16*
X57858000Y105450000D03*
X57858000Y103550000D03*
X57858000Y101650000D03*
X57858000Y99750000D03*
D17*
X57858000Y97850000D03*
D16*
X59758000Y109250000D03*
X59758000Y107350000D03*
X59758000Y105450000D03*
X59758000Y103550000D03*
X59758000Y101650000D03*
X59758000Y99750000D03*
D17*
X59758000Y97850000D03*
D16*
X59758000Y95950000D03*
D15*
X61658000Y109250000D03*
X61658000Y107350000D03*
D17*
X61658000Y97850000D03*
X61658000Y95950000D03*
D15*
X63558000Y109250000D03*
X63558000Y107350000D03*
D17*
X63558000Y97850000D03*
X63558000Y95950000D03*
D15*
X65458000Y109250000D03*
X65458000Y107350000D03*
D17*
X65458000Y97850000D03*
X65458000Y95950000D03*
D15*
X67358000Y109250000D03*
X67358000Y107350000D03*
D17*
X67358000Y97850000D03*
X67358000Y95950000D03*
D18*
X69258000Y109250000D03*
X69258000Y107350000D03*
X69258000Y105450000D03*
X69258000Y103550000D03*
X69258000Y101650000D03*
X69258000Y99750000D03*
X69258000Y97850000D03*
X69258000Y95950000D03*
X71158000Y107350000D03*
X71158000Y105450000D03*
X71158000Y103550000D03*
X71158000Y101650000D03*
X71158000Y99750000D03*
D17*
X71158000Y97850000D03*
%TD*%
D11*
%TO.C,U6*%
X55558000Y54310000D03*
X55558000Y55410000D03*
X55558000Y56510000D03*
X55558000Y57610000D03*
X55558000Y58710000D03*
X55558000Y59810000D03*
X55558000Y60910000D03*
X55558000Y62010000D03*
X55558000Y63110000D03*
X55558000Y64210000D03*
X55558000Y65310000D03*
X55558000Y66410000D03*
X55558000Y67510000D03*
X55558000Y68610000D03*
D12*
X57358000Y70410000D03*
X58458000Y70410000D03*
X59558000Y70410000D03*
X60658000Y70410000D03*
X61758000Y70410000D03*
X62858000Y70410000D03*
X63958000Y70410000D03*
X65058000Y70410000D03*
X66158000Y70410000D03*
X67258000Y70410000D03*
X68358000Y70410000D03*
X69458000Y70410000D03*
X70558000Y70410000D03*
X71658000Y70410000D03*
D13*
X73458000Y68610000D03*
X73458000Y67510000D03*
X73458000Y66410000D03*
X73458000Y65310000D03*
X73458000Y64210000D03*
X73458000Y63110000D03*
X73458000Y62010000D03*
X73458000Y60910000D03*
X73458000Y59810000D03*
X73458000Y58710000D03*
X73458000Y57610000D03*
X73458000Y56510000D03*
X73458000Y55410000D03*
X73458000Y54310000D03*
D14*
X71658000Y52510000D03*
X70558000Y52510000D03*
X69458000Y52510000D03*
X68358000Y52510000D03*
X67258000Y52510000D03*
X66158000Y52510000D03*
X65058000Y52510000D03*
X63958000Y52510000D03*
X62858000Y52510000D03*
X61758000Y52510000D03*
X60658000Y52510000D03*
X59558000Y52510000D03*
X58458000Y52510000D03*
X57358000Y52510000D03*
D15*
X57858000Y66210000D03*
D16*
X57858000Y64310000D03*
X57858000Y62410000D03*
X57858000Y60510000D03*
X57858000Y58610000D03*
D17*
X57858000Y56710000D03*
D16*
X59758000Y68110000D03*
X59758000Y66210000D03*
X59758000Y64310000D03*
X59758000Y62410000D03*
X59758000Y60510000D03*
X59758000Y58610000D03*
D17*
X59758000Y56710000D03*
D16*
X59758000Y54810000D03*
D15*
X61658000Y68110000D03*
X61658000Y66210000D03*
D17*
X61658000Y56710000D03*
X61658000Y54810000D03*
D15*
X63558000Y68110000D03*
X63558000Y66210000D03*
D17*
X63558000Y56710000D03*
X63558000Y54810000D03*
D15*
X65458000Y68110000D03*
X65458000Y66210000D03*
D17*
X65458000Y56710000D03*
X65458000Y54810000D03*
D15*
X67358000Y68110000D03*
X67358000Y66210000D03*
D17*
X67358000Y56710000D03*
X67358000Y54810000D03*
D18*
X69258000Y68110000D03*
X69258000Y66210000D03*
X69258000Y64310000D03*
X69258000Y62410000D03*
X69258000Y60510000D03*
X69258000Y58610000D03*
X69258000Y56710000D03*
X69258000Y54810000D03*
X71158000Y66210000D03*
X71158000Y64310000D03*
X71158000Y62410000D03*
X71158000Y60510000D03*
X71158000Y58610000D03*
D17*
X71158000Y56710000D03*
%TD*%
D11*
%TO.C,U6*%
X55558000Y13170000D03*
X55558000Y14270000D03*
X55558000Y15370000D03*
X55558000Y16470000D03*
X55558000Y17570000D03*
X55558000Y18670000D03*
X55558000Y19770000D03*
X55558000Y20870000D03*
X55558000Y21970000D03*
X55558000Y23070000D03*
X55558000Y24170000D03*
X55558000Y25270000D03*
X55558000Y26370000D03*
X55558000Y27470000D03*
D12*
X57358000Y29270000D03*
X58458000Y29270000D03*
X59558000Y29270000D03*
X60658000Y29270000D03*
X61758000Y29270000D03*
X62858000Y29270000D03*
X63958000Y29270000D03*
X65058000Y29270000D03*
X66158000Y29270000D03*
X67258000Y29270000D03*
X68358000Y29270000D03*
X69458000Y29270000D03*
X70558000Y29270000D03*
X71658000Y29270000D03*
D13*
X73458000Y27470000D03*
X73458000Y26370000D03*
X73458000Y25270000D03*
X73458000Y24170000D03*
X73458000Y23070000D03*
X73458000Y21970000D03*
X73458000Y20870000D03*
X73458000Y19770000D03*
X73458000Y18670000D03*
X73458000Y17570000D03*
X73458000Y16470000D03*
X73458000Y15370000D03*
X73458000Y14270000D03*
X73458000Y13170000D03*
D14*
X71658000Y11370000D03*
X70558000Y11370000D03*
X69458000Y11370000D03*
X68358000Y11370000D03*
X67258000Y11370000D03*
X66158000Y11370000D03*
X65058000Y11370000D03*
X63958000Y11370000D03*
X62858000Y11370000D03*
X61758000Y11370000D03*
X60658000Y11370000D03*
X59558000Y11370000D03*
X58458000Y11370000D03*
X57358000Y11370000D03*
D15*
X57858000Y25070000D03*
D16*
X57858000Y23170000D03*
X57858000Y21270000D03*
X57858000Y19370000D03*
X57858000Y17470000D03*
D17*
X57858000Y15570000D03*
D16*
X59758000Y26970000D03*
X59758000Y25070000D03*
X59758000Y23170000D03*
X59758000Y21270000D03*
X59758000Y19370000D03*
X59758000Y17470000D03*
D17*
X59758000Y15570000D03*
D16*
X59758000Y13670000D03*
D15*
X61658000Y26970000D03*
X61658000Y25070000D03*
D17*
X61658000Y15570000D03*
X61658000Y13670000D03*
D15*
X63558000Y26970000D03*
X63558000Y25070000D03*
D17*
X63558000Y15570000D03*
X63558000Y13670000D03*
D15*
X65458000Y26970000D03*
X65458000Y25070000D03*
D17*
X65458000Y15570000D03*
X65458000Y13670000D03*
D15*
X67358000Y26970000D03*
X67358000Y25070000D03*
D17*
X67358000Y15570000D03*
X67358000Y13670000D03*
D18*
X69258000Y26970000D03*
X69258000Y25070000D03*
X69258000Y23170000D03*
X69258000Y21270000D03*
X69258000Y19370000D03*
X69258000Y17470000D03*
X69258000Y15570000D03*
X69258000Y13670000D03*
X71158000Y25070000D03*
X71158000Y23170000D03*
X71158000Y21270000D03*
X71158000Y19370000D03*
X71158000Y17470000D03*
D17*
X71158000Y15570000D03*
%TD*%
D11*
%TO.C,U6*%
X11370000Y136590000D03*
X11370000Y137690000D03*
X11370000Y138790000D03*
X11370000Y139890000D03*
X11370000Y140990000D03*
X11370000Y142090000D03*
X11370000Y143190000D03*
X11370000Y144290000D03*
X11370000Y145390000D03*
X11370000Y146490000D03*
X11370000Y147590000D03*
X11370000Y148690000D03*
X11370000Y149790000D03*
X11370000Y150890000D03*
D12*
X13170000Y152690000D03*
X14270000Y152690000D03*
X15370000Y152690000D03*
X16470000Y152690000D03*
X17570000Y152690000D03*
X18670000Y152690000D03*
X19770000Y152690000D03*
X20870000Y152690000D03*
X21970000Y152690000D03*
X23070000Y152690000D03*
X24170000Y152690000D03*
X25270000Y152690000D03*
X26370000Y152690000D03*
X27470000Y152690000D03*
D13*
X29270000Y150890000D03*
X29270000Y149790000D03*
X29270000Y148690000D03*
X29270000Y147590000D03*
X29270000Y146490000D03*
X29270000Y145390000D03*
X29270000Y144290000D03*
X29270000Y143190000D03*
X29270000Y142090000D03*
X29270000Y140990000D03*
X29270000Y139890000D03*
X29270000Y138790000D03*
X29270000Y137690000D03*
X29270000Y136590000D03*
D14*
X27470000Y134790000D03*
X26370000Y134790000D03*
X25270000Y134790000D03*
X24170000Y134790000D03*
X23070000Y134790000D03*
X21970000Y134790000D03*
X20870000Y134790000D03*
X19770000Y134790000D03*
X18670000Y134790000D03*
X17570000Y134790000D03*
X16470000Y134790000D03*
X15370000Y134790000D03*
X14270000Y134790000D03*
X13170000Y134790000D03*
D15*
X13670000Y148490000D03*
D16*
X13670000Y146590000D03*
X13670000Y144690000D03*
X13670000Y142790000D03*
X13670000Y140890000D03*
D17*
X13670000Y138990000D03*
D16*
X15570000Y150390000D03*
X15570000Y148490000D03*
X15570000Y146590000D03*
X15570000Y144690000D03*
X15570000Y142790000D03*
X15570000Y140890000D03*
D17*
X15570000Y138990000D03*
D16*
X15570000Y137090000D03*
D15*
X17470000Y150390000D03*
X17470000Y148490000D03*
D17*
X17470000Y138990000D03*
X17470000Y137090000D03*
D15*
X19370000Y150390000D03*
X19370000Y148490000D03*
D17*
X19370000Y138990000D03*
X19370000Y137090000D03*
D15*
X21270000Y150390000D03*
X21270000Y148490000D03*
D17*
X21270000Y138990000D03*
X21270000Y137090000D03*
D15*
X23170000Y150390000D03*
X23170000Y148490000D03*
D17*
X23170000Y138990000D03*
X23170000Y137090000D03*
D18*
X25070000Y150390000D03*
X25070000Y148490000D03*
X25070000Y146590000D03*
X25070000Y144690000D03*
X25070000Y142790000D03*
X25070000Y140890000D03*
X25070000Y138990000D03*
X25070000Y137090000D03*
X26970000Y148490000D03*
X26970000Y146590000D03*
X26970000Y144690000D03*
X26970000Y142790000D03*
X26970000Y140890000D03*
D17*
X26970000Y138990000D03*
%TD*%
D11*
%TO.C,U6*%
X11370000Y95450000D03*
X11370000Y96550000D03*
X11370000Y97650000D03*
X11370000Y98750000D03*
X11370000Y99850000D03*
X11370000Y100950000D03*
X11370000Y102050000D03*
X11370000Y103150000D03*
X11370000Y104250000D03*
X11370000Y105350000D03*
X11370000Y106450000D03*
X11370000Y107550000D03*
X11370000Y108650000D03*
X11370000Y109750000D03*
D12*
X13170000Y111550000D03*
X14270000Y111550000D03*
X15370000Y111550000D03*
X16470000Y111550000D03*
X17570000Y111550000D03*
X18670000Y111550000D03*
X19770000Y111550000D03*
X20870000Y111550000D03*
X21970000Y111550000D03*
X23070000Y111550000D03*
X24170000Y111550000D03*
X25270000Y111550000D03*
X26370000Y111550000D03*
X27470000Y111550000D03*
D13*
X29270000Y109750000D03*
X29270000Y108650000D03*
X29270000Y107550000D03*
X29270000Y106450000D03*
X29270000Y105350000D03*
X29270000Y104250000D03*
X29270000Y103150000D03*
X29270000Y102050000D03*
X29270000Y100950000D03*
X29270000Y99850000D03*
X29270000Y98750000D03*
X29270000Y97650000D03*
X29270000Y96550000D03*
X29270000Y95450000D03*
D14*
X27470000Y93650000D03*
X26370000Y93650000D03*
X25270000Y93650000D03*
X24170000Y93650000D03*
X23070000Y93650000D03*
X21970000Y93650000D03*
X20870000Y93650000D03*
X19770000Y93650000D03*
X18670000Y93650000D03*
X17570000Y93650000D03*
X16470000Y93650000D03*
X15370000Y93650000D03*
X14270000Y93650000D03*
X13170000Y93650000D03*
D15*
X13670000Y107350000D03*
D16*
X13670000Y105450000D03*
X13670000Y103550000D03*
X13670000Y101650000D03*
X13670000Y99750000D03*
D17*
X13670000Y97850000D03*
D16*
X15570000Y109250000D03*
X15570000Y107350000D03*
X15570000Y105450000D03*
X15570000Y103550000D03*
X15570000Y101650000D03*
X15570000Y99750000D03*
D17*
X15570000Y97850000D03*
D16*
X15570000Y95950000D03*
D15*
X17470000Y109250000D03*
X17470000Y107350000D03*
D17*
X17470000Y97850000D03*
X17470000Y95950000D03*
D15*
X19370000Y109250000D03*
X19370000Y107350000D03*
D17*
X19370000Y97850000D03*
X19370000Y95950000D03*
D15*
X21270000Y109250000D03*
X21270000Y107350000D03*
D17*
X21270000Y97850000D03*
X21270000Y95950000D03*
D15*
X23170000Y109250000D03*
X23170000Y107350000D03*
D17*
X23170000Y97850000D03*
X23170000Y95950000D03*
D18*
X25070000Y109250000D03*
X25070000Y107350000D03*
X25070000Y105450000D03*
X25070000Y103550000D03*
X25070000Y101650000D03*
X25070000Y99750000D03*
X25070000Y97850000D03*
X25070000Y95950000D03*
X26970000Y107350000D03*
X26970000Y105450000D03*
X26970000Y103550000D03*
X26970000Y101650000D03*
X26970000Y99750000D03*
D17*
X26970000Y97850000D03*
%TD*%
D11*
%TO.C,U6*%
X11370000Y54310000D03*
X11370000Y55410000D03*
X11370000Y56510000D03*
X11370000Y57610000D03*
X11370000Y58710000D03*
X11370000Y59810000D03*
X11370000Y60910000D03*
X11370000Y62010000D03*
X11370000Y63110000D03*
X11370000Y64210000D03*
X11370000Y65310000D03*
X11370000Y66410000D03*
X11370000Y67510000D03*
X11370000Y68610000D03*
D12*
X13170000Y70410000D03*
X14270000Y70410000D03*
X15370000Y70410000D03*
X16470000Y70410000D03*
X17570000Y70410000D03*
X18670000Y70410000D03*
X19770000Y70410000D03*
X20870000Y70410000D03*
X21970000Y70410000D03*
X23070000Y70410000D03*
X24170000Y70410000D03*
X25270000Y70410000D03*
X26370000Y70410000D03*
X27470000Y70410000D03*
D13*
X29270000Y68610000D03*
X29270000Y67510000D03*
X29270000Y66410000D03*
X29270000Y65310000D03*
X29270000Y64210000D03*
X29270000Y63110000D03*
X29270000Y62010000D03*
X29270000Y60910000D03*
X29270000Y59810000D03*
X29270000Y58710000D03*
X29270000Y57610000D03*
X29270000Y56510000D03*
X29270000Y55410000D03*
X29270000Y54310000D03*
D14*
X27470000Y52510000D03*
X26370000Y52510000D03*
X25270000Y52510000D03*
X24170000Y52510000D03*
X23070000Y52510000D03*
X21970000Y52510000D03*
X20870000Y52510000D03*
X19770000Y52510000D03*
X18670000Y52510000D03*
X17570000Y52510000D03*
X16470000Y52510000D03*
X15370000Y52510000D03*
X14270000Y52510000D03*
X13170000Y52510000D03*
D15*
X13670000Y66210000D03*
D16*
X13670000Y64310000D03*
X13670000Y62410000D03*
X13670000Y60510000D03*
X13670000Y58610000D03*
D17*
X13670000Y56710000D03*
D16*
X15570000Y68110000D03*
X15570000Y66210000D03*
X15570000Y64310000D03*
X15570000Y62410000D03*
X15570000Y60510000D03*
X15570000Y58610000D03*
D17*
X15570000Y56710000D03*
D16*
X15570000Y54810000D03*
D15*
X17470000Y68110000D03*
X17470000Y66210000D03*
D17*
X17470000Y56710000D03*
X17470000Y54810000D03*
D15*
X19370000Y68110000D03*
X19370000Y66210000D03*
D17*
X19370000Y56710000D03*
X19370000Y54810000D03*
D15*
X21270000Y68110000D03*
X21270000Y66210000D03*
D17*
X21270000Y56710000D03*
X21270000Y54810000D03*
D15*
X23170000Y68110000D03*
X23170000Y66210000D03*
D17*
X23170000Y56710000D03*
X23170000Y54810000D03*
D18*
X25070000Y68110000D03*
X25070000Y66210000D03*
X25070000Y64310000D03*
X25070000Y62410000D03*
X25070000Y60510000D03*
X25070000Y58610000D03*
X25070000Y56710000D03*
X25070000Y54810000D03*
X26970000Y66210000D03*
X26970000Y64310000D03*
X26970000Y62410000D03*
X26970000Y60510000D03*
X26970000Y58610000D03*
D17*
X26970000Y56710000D03*
%TD*%
D19*
%TO.C,FID1*%
X128381000Y124055000D03*
%TD*%
%TO.C,FID1*%
X128381000Y82915000D03*
%TD*%
%TO.C,FID1*%
X128381000Y41775000D03*
%TD*%
%TO.C,FID1*%
X128381000Y635000D03*
%TD*%
%TO.C,FID1*%
X84193000Y124055000D03*
%TD*%
%TO.C,FID1*%
X84193000Y82915000D03*
%TD*%
%TO.C,FID1*%
X84193000Y41775000D03*
%TD*%
%TO.C,FID1*%
X84193000Y635000D03*
%TD*%
%TO.C,FID1*%
X40005000Y124055000D03*
%TD*%
%TO.C,FID1*%
X40005000Y82915000D03*
%TD*%
%TO.C,FID1*%
X40005000Y41775000D03*
%TD*%
%TO.C,FID2*%
X89011000Y163425000D03*
%TD*%
%TO.C,FID2*%
X89011000Y122285000D03*
%TD*%
%TO.C,FID2*%
X89011000Y81145000D03*
%TD*%
%TO.C,FID2*%
X89011000Y40005000D03*
%TD*%
%TO.C,FID2*%
X44823000Y163425000D03*
%TD*%
%TO.C,FID2*%
X44823000Y122285000D03*
%TD*%
%TO.C,FID2*%
X44823000Y81145000D03*
%TD*%
%TO.C,FID2*%
X44823000Y40005000D03*
%TD*%
%TO.C,FID2*%
X635000Y163425000D03*
%TD*%
%TO.C,FID2*%
X635000Y122285000D03*
%TD*%
%TO.C,FID2*%
X635000Y81145000D03*
%TD*%
D20*
%TO.C,ST4*%
X90916000Y125960000D03*
%TD*%
%TO.C,ST4*%
X90916000Y84820000D03*
%TD*%
%TO.C,ST4*%
X90916000Y43680000D03*
%TD*%
%TO.C,ST4*%
X90916000Y2540000D03*
%TD*%
%TO.C,ST4*%
X46728000Y125960000D03*
%TD*%
%TO.C,ST4*%
X46728000Y84820000D03*
%TD*%
%TO.C,ST4*%
X46728000Y43680000D03*
%TD*%
%TO.C,ST4*%
X46728000Y2540000D03*
%TD*%
%TO.C,ST4*%
X2540000Y125960000D03*
%TD*%
%TO.C,ST4*%
X2540000Y84820000D03*
%TD*%
%TO.C,ST4*%
X2540000Y43680000D03*
%TD*%
D21*
%TO.C,D6*%
X123301000Y131992500D03*
%TD*%
%TO.C,D6*%
X123301000Y90852500D03*
%TD*%
%TO.C,D6*%
X123301000Y49712500D03*
%TD*%
%TO.C,D6*%
X123301000Y8572500D03*
%TD*%
%TO.C,D6*%
X79113000Y131992500D03*
%TD*%
%TO.C,D6*%
X79113000Y90852500D03*
%TD*%
%TO.C,D6*%
X79113000Y49712500D03*
%TD*%
%TO.C,D6*%
X79113000Y8572500D03*
%TD*%
%TO.C,D6*%
X34925000Y131992500D03*
%TD*%
%TO.C,D6*%
X34925000Y90852500D03*
%TD*%
%TO.C,D6*%
X34925000Y49712500D03*
%TD*%
D20*
%TO.C,ST3*%
X90916000Y161520000D03*
%TD*%
%TO.C,ST3*%
X90916000Y120380000D03*
%TD*%
%TO.C,ST3*%
X90916000Y79240000D03*
%TD*%
%TO.C,ST3*%
X90916000Y38100000D03*
%TD*%
%TO.C,ST3*%
X46728000Y161520000D03*
%TD*%
%TO.C,ST3*%
X46728000Y120380000D03*
%TD*%
%TO.C,ST3*%
X46728000Y79240000D03*
%TD*%
%TO.C,ST3*%
X46728000Y38100000D03*
%TD*%
%TO.C,ST3*%
X2540000Y161520000D03*
%TD*%
%TO.C,ST3*%
X2540000Y120380000D03*
%TD*%
%TO.C,ST3*%
X2540000Y79240000D03*
%TD*%
D22*
%TO.C,JP11*%
X90281000Y135802500D03*
X92821000Y135802500D03*
%TD*%
%TO.C,JP11*%
X90281000Y94662500D03*
X92821000Y94662500D03*
%TD*%
%TO.C,JP11*%
X90281000Y53522500D03*
X92821000Y53522500D03*
%TD*%
%TO.C,JP11*%
X90281000Y12382500D03*
X92821000Y12382500D03*
%TD*%
%TO.C,JP11*%
X46093000Y135802500D03*
X48633000Y135802500D03*
%TD*%
%TO.C,JP11*%
X46093000Y94662500D03*
X48633000Y94662500D03*
%TD*%
%TO.C,JP11*%
X46093000Y53522500D03*
X48633000Y53522500D03*
%TD*%
%TO.C,JP11*%
X46093000Y12382500D03*
X48633000Y12382500D03*
%TD*%
%TO.C,JP11*%
X1905000Y135802500D03*
X4445000Y135802500D03*
%TD*%
%TO.C,JP11*%
X1905000Y94662500D03*
X4445000Y94662500D03*
%TD*%
%TO.C,JP11*%
X1905000Y53522500D03*
X4445000Y53522500D03*
%TD*%
D20*
%TO.C,ST1*%
X126476000Y161520000D03*
%TD*%
%TO.C,ST1*%
X126476000Y120380000D03*
%TD*%
%TO.C,ST1*%
X126476000Y79240000D03*
%TD*%
%TO.C,ST1*%
X126476000Y38100000D03*
%TD*%
%TO.C,ST1*%
X82288000Y161520000D03*
%TD*%
%TO.C,ST1*%
X82288000Y120380000D03*
%TD*%
%TO.C,ST1*%
X82288000Y79240000D03*
%TD*%
%TO.C,ST1*%
X82288000Y38100000D03*
%TD*%
%TO.C,ST1*%
X38100000Y161520000D03*
%TD*%
%TO.C,ST1*%
X38100000Y120380000D03*
%TD*%
%TO.C,ST1*%
X38100000Y79240000D03*
%TD*%
D22*
%TO.C,J5*%
X117586000Y162790000D03*
X115046000Y162790000D03*
X112506000Y162790000D03*
X109966000Y162790000D03*
X107426000Y162790000D03*
X104886000Y162790000D03*
X102346000Y162790000D03*
X99806000Y162790000D03*
%TD*%
%TO.C,J5*%
X117586000Y121650000D03*
X115046000Y121650000D03*
X112506000Y121650000D03*
X109966000Y121650000D03*
X107426000Y121650000D03*
X104886000Y121650000D03*
X102346000Y121650000D03*
X99806000Y121650000D03*
%TD*%
%TO.C,J5*%
X117586000Y80510000D03*
X115046000Y80510000D03*
X112506000Y80510000D03*
X109966000Y80510000D03*
X107426000Y80510000D03*
X104886000Y80510000D03*
X102346000Y80510000D03*
X99806000Y80510000D03*
%TD*%
%TO.C,J5*%
X117586000Y39370000D03*
X115046000Y39370000D03*
X112506000Y39370000D03*
X109966000Y39370000D03*
X107426000Y39370000D03*
X104886000Y39370000D03*
X102346000Y39370000D03*
X99806000Y39370000D03*
%TD*%
%TO.C,J5*%
X73398000Y162790000D03*
X70858000Y162790000D03*
X68318000Y162790000D03*
X65778000Y162790000D03*
X63238000Y162790000D03*
X60698000Y162790000D03*
X58158000Y162790000D03*
X55618000Y162790000D03*
%TD*%
%TO.C,J5*%
X73398000Y121650000D03*
X70858000Y121650000D03*
X68318000Y121650000D03*
X65778000Y121650000D03*
X63238000Y121650000D03*
X60698000Y121650000D03*
X58158000Y121650000D03*
X55618000Y121650000D03*
%TD*%
%TO.C,J5*%
X73398000Y80510000D03*
X70858000Y80510000D03*
X68318000Y80510000D03*
X65778000Y80510000D03*
X63238000Y80510000D03*
X60698000Y80510000D03*
X58158000Y80510000D03*
X55618000Y80510000D03*
%TD*%
%TO.C,J5*%
X73398000Y39370000D03*
X70858000Y39370000D03*
X68318000Y39370000D03*
X65778000Y39370000D03*
X63238000Y39370000D03*
X60698000Y39370000D03*
X58158000Y39370000D03*
X55618000Y39370000D03*
%TD*%
%TO.C,J5*%
X29210000Y162790000D03*
X26670000Y162790000D03*
X24130000Y162790000D03*
X21590000Y162790000D03*
X19050000Y162790000D03*
X16510000Y162790000D03*
X13970000Y162790000D03*
X11430000Y162790000D03*
%TD*%
%TO.C,J5*%
X29210000Y121650000D03*
X26670000Y121650000D03*
X24130000Y121650000D03*
X21590000Y121650000D03*
X19050000Y121650000D03*
X16510000Y121650000D03*
X13970000Y121650000D03*
X11430000Y121650000D03*
%TD*%
%TO.C,J5*%
X29210000Y80510000D03*
X26670000Y80510000D03*
X24130000Y80510000D03*
X21590000Y80510000D03*
X19050000Y80510000D03*
X16510000Y80510000D03*
X13970000Y80510000D03*
X11430000Y80510000D03*
%TD*%
D20*
%TO.C,ST2*%
X126476000Y125960000D03*
%TD*%
%TO.C,ST2*%
X126476000Y84820000D03*
%TD*%
%TO.C,ST2*%
X126476000Y43680000D03*
%TD*%
%TO.C,ST2*%
X126476000Y2540000D03*
%TD*%
%TO.C,ST2*%
X82288000Y125960000D03*
%TD*%
%TO.C,ST2*%
X82288000Y84820000D03*
%TD*%
%TO.C,ST2*%
X82288000Y43680000D03*
%TD*%
%TO.C,ST2*%
X82288000Y2540000D03*
%TD*%
%TO.C,ST2*%
X38100000Y125960000D03*
%TD*%
%TO.C,ST2*%
X38100000Y84820000D03*
%TD*%
%TO.C,ST2*%
X38100000Y43680000D03*
%TD*%
D23*
%TO.C,J1*%
X94864750Y146630000D03*
X94864750Y140850000D03*
D24*
X91214750Y148058000D03*
D25*
X95394750Y148058000D03*
X95394750Y139422000D03*
D24*
X91214750Y139422000D03*
%TD*%
D23*
%TO.C,J1*%
X94864750Y105490000D03*
X94864750Y99710000D03*
D24*
X91214750Y106918000D03*
D25*
X95394750Y106918000D03*
X95394750Y98282000D03*
D24*
X91214750Y98282000D03*
%TD*%
D23*
%TO.C,J1*%
X94864750Y64350000D03*
X94864750Y58570000D03*
D24*
X91214750Y65778000D03*
D25*
X95394750Y65778000D03*
X95394750Y57142000D03*
D24*
X91214750Y57142000D03*
%TD*%
D23*
%TO.C,J1*%
X94864750Y23210000D03*
X94864750Y17430000D03*
D24*
X91214750Y24638000D03*
D25*
X95394750Y24638000D03*
X95394750Y16002000D03*
D24*
X91214750Y16002000D03*
%TD*%
D23*
%TO.C,J1*%
X50676750Y146630000D03*
X50676750Y140850000D03*
D24*
X47026750Y148058000D03*
D25*
X51206750Y148058000D03*
X51206750Y139422000D03*
D24*
X47026750Y139422000D03*
%TD*%
D23*
%TO.C,J1*%
X50676750Y105490000D03*
X50676750Y99710000D03*
D24*
X47026750Y106918000D03*
D25*
X51206750Y106918000D03*
X51206750Y98282000D03*
D24*
X47026750Y98282000D03*
%TD*%
D23*
%TO.C,J1*%
X50676750Y64350000D03*
X50676750Y58570000D03*
D24*
X47026750Y65778000D03*
D25*
X51206750Y65778000D03*
X51206750Y57142000D03*
D24*
X47026750Y57142000D03*
%TD*%
D23*
%TO.C,J1*%
X50676750Y23210000D03*
X50676750Y17430000D03*
D24*
X47026750Y24638000D03*
D25*
X51206750Y24638000D03*
X51206750Y16002000D03*
D24*
X47026750Y16002000D03*
%TD*%
D23*
%TO.C,J1*%
X6488750Y146630000D03*
X6488750Y140850000D03*
D24*
X2838750Y148058000D03*
D25*
X7018750Y148058000D03*
X7018750Y139422000D03*
D24*
X2838750Y139422000D03*
%TD*%
D23*
%TO.C,J1*%
X6488750Y105490000D03*
X6488750Y99710000D03*
D24*
X2838750Y106918000D03*
D25*
X7018750Y106918000D03*
X7018750Y98282000D03*
D24*
X2838750Y98282000D03*
%TD*%
D23*
%TO.C,J1*%
X6488750Y64350000D03*
X6488750Y58570000D03*
D24*
X2838750Y65778000D03*
D25*
X7018750Y65778000D03*
X7018750Y57142000D03*
D24*
X2838750Y57142000D03*
%TD*%
D22*
%TO.C,J2*%
X115046000Y124690000D03*
X112506000Y124690000D03*
X109966000Y124690000D03*
X107426000Y124690000D03*
X104886000Y124690000D03*
X102346000Y124690000D03*
%TD*%
%TO.C,J2*%
X115046000Y83550000D03*
X112506000Y83550000D03*
X109966000Y83550000D03*
X107426000Y83550000D03*
X104886000Y83550000D03*
X102346000Y83550000D03*
%TD*%
%TO.C,J2*%
X115046000Y42410000D03*
X112506000Y42410000D03*
X109966000Y42410000D03*
X107426000Y42410000D03*
X104886000Y42410000D03*
X102346000Y42410000D03*
%TD*%
%TO.C,J2*%
X115046000Y1270000D03*
X112506000Y1270000D03*
X109966000Y1270000D03*
X107426000Y1270000D03*
X104886000Y1270000D03*
X102346000Y1270000D03*
%TD*%
%TO.C,J2*%
X70858000Y124690000D03*
X68318000Y124690000D03*
X65778000Y124690000D03*
X63238000Y124690000D03*
X60698000Y124690000D03*
X58158000Y124690000D03*
%TD*%
%TO.C,J2*%
X70858000Y83550000D03*
X68318000Y83550000D03*
X65778000Y83550000D03*
X63238000Y83550000D03*
X60698000Y83550000D03*
X58158000Y83550000D03*
%TD*%
%TO.C,J2*%
X70858000Y42410000D03*
X68318000Y42410000D03*
X65778000Y42410000D03*
X63238000Y42410000D03*
X60698000Y42410000D03*
X58158000Y42410000D03*
%TD*%
%TO.C,J2*%
X70858000Y1270000D03*
X68318000Y1270000D03*
X65778000Y1270000D03*
X63238000Y1270000D03*
X60698000Y1270000D03*
X58158000Y1270000D03*
%TD*%
%TO.C,J2*%
X26670000Y124690000D03*
X24130000Y124690000D03*
X21590000Y124690000D03*
X19050000Y124690000D03*
X16510000Y124690000D03*
X13970000Y124690000D03*
%TD*%
%TO.C,J2*%
X26670000Y83550000D03*
X24130000Y83550000D03*
X21590000Y83550000D03*
X19050000Y83550000D03*
X16510000Y83550000D03*
X13970000Y83550000D03*
%TD*%
%TO.C,J2*%
X26670000Y42410000D03*
X24130000Y42410000D03*
X21590000Y42410000D03*
X19050000Y42410000D03*
X16510000Y42410000D03*
X13970000Y42410000D03*
%TD*%
%TO.C,J2*%
X26670000Y1270000D03*
X24130000Y1270000D03*
X21590000Y1270000D03*
X19050000Y1270000D03*
X16510000Y1270000D03*
X13970000Y1270000D03*
%TD*%
D23*
%TO.C,J1*%
X6488750Y23210000D03*
X6488750Y17430000D03*
D24*
X2838750Y24638000D03*
D25*
X7018750Y24638000D03*
X7018750Y16002000D03*
D24*
X2838750Y16002000D03*
%TD*%
D20*
%TO.C,ST2*%
X38100000Y2540000D03*
%TD*%
D22*
%TO.C,J5*%
X29210000Y39370000D03*
X26670000Y39370000D03*
X24130000Y39370000D03*
X21590000Y39370000D03*
X19050000Y39370000D03*
X16510000Y39370000D03*
X13970000Y39370000D03*
X11430000Y39370000D03*
%TD*%
D20*
%TO.C,ST1*%
X38100000Y38100000D03*
%TD*%
D22*
%TO.C,JP11*%
X1905000Y12382500D03*
X4445000Y12382500D03*
%TD*%
D20*
%TO.C,ST3*%
X2540000Y38100000D03*
%TD*%
D21*
%TO.C,D6*%
X34925000Y8572500D03*
%TD*%
D20*
%TO.C,ST4*%
X2540000Y2540000D03*
%TD*%
D19*
%TO.C,FID2*%
X635000Y40005000D03*
%TD*%
%TO.C,FID1*%
X40005000Y635000D03*
%TD*%
D11*
%TO.C,U6*%
X11370000Y13170000D03*
X11370000Y14270000D03*
X11370000Y15370000D03*
X11370000Y16470000D03*
X11370000Y17570000D03*
X11370000Y18670000D03*
X11370000Y19770000D03*
X11370000Y20870000D03*
X11370000Y21970000D03*
X11370000Y23070000D03*
X11370000Y24170000D03*
X11370000Y25270000D03*
X11370000Y26370000D03*
X11370000Y27470000D03*
D12*
X13170000Y29270000D03*
X14270000Y29270000D03*
X15370000Y29270000D03*
X16470000Y29270000D03*
X17570000Y29270000D03*
X18670000Y29270000D03*
X19770000Y29270000D03*
X20870000Y29270000D03*
X21970000Y29270000D03*
X23070000Y29270000D03*
X24170000Y29270000D03*
X25270000Y29270000D03*
X26370000Y29270000D03*
X27470000Y29270000D03*
D13*
X29270000Y27470000D03*
X29270000Y26370000D03*
X29270000Y25270000D03*
X29270000Y24170000D03*
X29270000Y23070000D03*
X29270000Y21970000D03*
X29270000Y20870000D03*
X29270000Y19770000D03*
X29270000Y18670000D03*
X29270000Y17570000D03*
X29270000Y16470000D03*
X29270000Y15370000D03*
X29270000Y14270000D03*
X29270000Y13170000D03*
D14*
X27470000Y11370000D03*
X26370000Y11370000D03*
X25270000Y11370000D03*
X24170000Y11370000D03*
X23070000Y11370000D03*
X21970000Y11370000D03*
X20870000Y11370000D03*
X19770000Y11370000D03*
X18670000Y11370000D03*
X17570000Y11370000D03*
X16470000Y11370000D03*
X15370000Y11370000D03*
X14270000Y11370000D03*
X13170000Y11370000D03*
D15*
X13670000Y25070000D03*
D16*
X13670000Y23170000D03*
X13670000Y21270000D03*
X13670000Y19370000D03*
X13670000Y17470000D03*
D17*
X13670000Y15570000D03*
D16*
X15570000Y26970000D03*
X15570000Y25070000D03*
X15570000Y23170000D03*
X15570000Y21270000D03*
X15570000Y19370000D03*
X15570000Y17470000D03*
D17*
X15570000Y15570000D03*
D16*
X15570000Y13670000D03*
D15*
X17470000Y26970000D03*
X17470000Y25070000D03*
D17*
X17470000Y15570000D03*
X17470000Y13670000D03*
D15*
X19370000Y26970000D03*
X19370000Y25070000D03*
D17*
X19370000Y15570000D03*
X19370000Y13670000D03*
D15*
X21270000Y26970000D03*
X21270000Y25070000D03*
D17*
X21270000Y15570000D03*
X21270000Y13670000D03*
D15*
X23170000Y26970000D03*
X23170000Y25070000D03*
D17*
X23170000Y15570000D03*
X23170000Y13670000D03*
D18*
X25070000Y26970000D03*
X25070000Y25070000D03*
X25070000Y23170000D03*
X25070000Y21270000D03*
X25070000Y19370000D03*
X25070000Y17470000D03*
X25070000Y15570000D03*
X25070000Y13670000D03*
X26970000Y25070000D03*
X26970000Y23170000D03*
X26970000Y21270000D03*
X26970000Y19370000D03*
X26970000Y17470000D03*
D17*
X26970000Y15570000D03*
%TD*%
M02*
