%TF.GenerationSoftware,KiCad,Pcbnew,9.0.1*%
%TF.CreationDate,2025-04-15T12:31:11-06:00*%
%TF.ProjectId,SparkFun_GNSS_DAN-F10N_panelized,53706172-6b46-4756-9e5f-474e53535f44,rev?*%
%TF.SameCoordinates,Original*%
%TF.FileFunction,Paste,Top*%
%TF.FilePolarity,Positive*%
%FSLAX46Y46*%
G04 Gerber Fmt 4.6, Leading zero omitted, Abs format (unit mm)*
G04 Created by KiCad (PCBNEW 9.0.1) date 2025-04-15 12:31:11*
%MOMM*%
%LPD*%
G01*
G04 APERTURE LIST*
G04 Aperture macros list*
%AMRoundRect*
0 Rectangle with rounded corners*
0 $1 Rounding radius*
0 $2 $3 $4 $5 $6 $7 $8 $9 X,Y pos of 4 corners*
0 Add a 4 corners polygon primitive as box body*
4,1,4,$2,$3,$4,$5,$6,$7,$8,$9,$2,$3,0*
0 Add four circle primitives for the rounded corners*
1,1,$1+$1,$2,$3*
1,1,$1+$1,$4,$5*
1,1,$1+$1,$6,$7*
1,1,$1+$1,$8,$9*
0 Add four rect primitives between the rounded corners*
20,1,$1+$1,$2,$3,$4,$5,0*
20,1,$1+$1,$4,$5,$6,$7,0*
20,1,$1+$1,$6,$7,$8,$9,0*
20,1,$1+$1,$8,$9,$2,$3,0*%
G04 Aperture macros list end*
%ADD10C,0.000000*%
%ADD11RoundRect,0.200000X-0.275000X0.200000X-0.275000X-0.200000X0.275000X-0.200000X0.275000X0.200000X0*%
%ADD12R,1.500000X1.600000*%
%ADD13R,0.830000X0.630000*%
%ADD14RoundRect,0.225000X-0.250000X0.225000X-0.250000X-0.225000X0.250000X-0.225000X0.250000X0.225000X0*%
%ADD15R,1.200000X0.550000*%
%ADD16R,1.050000X1.000000*%
%ADD17R,2.200000X0.850000*%
%ADD18RoundRect,0.225000X0.250000X-0.225000X0.250000X0.225000X-0.250000X0.225000X-0.250000X-0.225000X0*%
%ADD19RoundRect,0.225000X-0.225000X-0.250000X0.225000X-0.250000X0.225000X0.250000X-0.225000X0.250000X0*%
%ADD20R,1.200000X0.600000*%
%ADD21RoundRect,0.200000X0.200000X0.275000X-0.200000X0.275000X-0.200000X-0.275000X0.200000X-0.275000X0*%
%ADD22RoundRect,0.250000X-1.425000X0.362500X-1.425000X-0.362500X1.425000X-0.362500X1.425000X0.362500X0*%
%ADD23R,0.800000X1.200000*%
%ADD24RoundRect,0.200000X-0.200000X-0.275000X0.200000X-0.275000X0.200000X0.275000X-0.200000X0.275000X0*%
%ADD25RoundRect,0.140000X0.170000X-0.140000X0.170000X0.140000X-0.170000X0.140000X-0.170000X-0.140000X0*%
%ADD26RoundRect,0.218750X0.218750X0.256250X-0.218750X0.256250X-0.218750X-0.256250X0.218750X-0.256250X0*%
%ADD27R,1.000000X0.300000*%
%ADD28R,1.000000X0.600000*%
%ADD29O,1.600000X1.000000*%
%ADD30O,2.100000X1.000000*%
G04 APERTURE END LIST*
D10*
%TO.C,BT1*%
G36*
X99971000Y130942145D02*
G01*
X97485645Y133427500D01*
X99971000Y133427500D01*
X99971000Y130942145D01*
G37*
G36*
X99966000Y128022500D02*
G01*
X95766000Y128022500D01*
X95766000Y129722500D01*
X99966000Y129722500D01*
X99966000Y128022500D01*
G37*
G36*
X99971000Y89802145D02*
G01*
X97485645Y92287500D01*
X99971000Y92287500D01*
X99971000Y89802145D01*
G37*
G36*
X99966000Y86882500D02*
G01*
X95766000Y86882500D01*
X95766000Y88582500D01*
X99966000Y88582500D01*
X99966000Y86882500D01*
G37*
G36*
X99971000Y48662145D02*
G01*
X97485645Y51147500D01*
X99971000Y51147500D01*
X99971000Y48662145D01*
G37*
G36*
X99966000Y45742500D02*
G01*
X95766000Y45742500D01*
X95766000Y47442500D01*
X99966000Y47442500D01*
X99966000Y45742500D01*
G37*
G36*
X99971000Y7522145D02*
G01*
X97485645Y10007500D01*
X99971000Y10007500D01*
X99971000Y7522145D01*
G37*
G36*
X99966000Y4602500D02*
G01*
X95766000Y4602500D01*
X95766000Y6302500D01*
X99966000Y6302500D01*
X99966000Y4602500D01*
G37*
G36*
X55783000Y130942145D02*
G01*
X53297645Y133427500D01*
X55783000Y133427500D01*
X55783000Y130942145D01*
G37*
G36*
X55778000Y128022500D02*
G01*
X51578000Y128022500D01*
X51578000Y129722500D01*
X55778000Y129722500D01*
X55778000Y128022500D01*
G37*
G36*
X55783000Y89802145D02*
G01*
X53297645Y92287500D01*
X55783000Y92287500D01*
X55783000Y89802145D01*
G37*
G36*
X55778000Y86882500D02*
G01*
X51578000Y86882500D01*
X51578000Y88582500D01*
X55778000Y88582500D01*
X55778000Y86882500D01*
G37*
G36*
X55783000Y48662145D02*
G01*
X53297645Y51147500D01*
X55783000Y51147500D01*
X55783000Y48662145D01*
G37*
G36*
X55778000Y45742500D02*
G01*
X51578000Y45742500D01*
X51578000Y47442500D01*
X55778000Y47442500D01*
X55778000Y45742500D01*
G37*
G36*
X55783000Y7522145D02*
G01*
X53297645Y10007500D01*
X55783000Y10007500D01*
X55783000Y7522145D01*
G37*
G36*
X55778000Y4602500D02*
G01*
X51578000Y4602500D01*
X51578000Y6302500D01*
X55778000Y6302500D01*
X55778000Y4602500D01*
G37*
G36*
X11595000Y130942145D02*
G01*
X9109645Y133427500D01*
X11595000Y133427500D01*
X11595000Y130942145D01*
G37*
G36*
X11590000Y128022500D02*
G01*
X7390000Y128022500D01*
X7390000Y129722500D01*
X11590000Y129722500D01*
X11590000Y128022500D01*
G37*
G36*
X11595000Y89802145D02*
G01*
X9109645Y92287500D01*
X11595000Y92287500D01*
X11595000Y89802145D01*
G37*
G36*
X11590000Y86882500D02*
G01*
X7390000Y86882500D01*
X7390000Y88582500D01*
X11590000Y88582500D01*
X11590000Y86882500D01*
G37*
G36*
X11595000Y48662145D02*
G01*
X9109645Y51147500D01*
X11595000Y51147500D01*
X11595000Y48662145D01*
G37*
G36*
X11590000Y45742500D02*
G01*
X7390000Y45742500D01*
X7390000Y47442500D01*
X11590000Y47442500D01*
X11590000Y45742500D01*
G37*
G36*
X11595000Y7522145D02*
G01*
X9109645Y10007500D01*
X11595000Y10007500D01*
X11595000Y7522145D01*
G37*
G36*
X11590000Y4602500D02*
G01*
X7390000Y4602500D01*
X7390000Y6302500D01*
X11590000Y6302500D01*
X11590000Y4602500D01*
G37*
%TD*%
D11*
%TO.C,R7*%
X101076000Y133135000D03*
X101076000Y131485000D03*
%TD*%
%TO.C,R7*%
X101076000Y91995000D03*
X101076000Y90345000D03*
%TD*%
%TO.C,R7*%
X101076000Y50855000D03*
X101076000Y49205000D03*
%TD*%
%TO.C,R7*%
X101076000Y9715000D03*
X101076000Y8065000D03*
%TD*%
%TO.C,R7*%
X56888000Y133135000D03*
X56888000Y131485000D03*
%TD*%
%TO.C,R7*%
X56888000Y91995000D03*
X56888000Y90345000D03*
%TD*%
%TO.C,R7*%
X56888000Y50855000D03*
X56888000Y49205000D03*
%TD*%
%TO.C,R7*%
X56888000Y9715000D03*
X56888000Y8065000D03*
%TD*%
%TO.C,R7*%
X12700000Y133135000D03*
X12700000Y131485000D03*
%TD*%
%TO.C,R7*%
X12700000Y91995000D03*
X12700000Y90345000D03*
%TD*%
%TO.C,R7*%
X12700000Y50855000D03*
X12700000Y49205000D03*
%TD*%
D12*
%TO.C,D6*%
X125101000Y131992500D03*
X121501000Y131992500D03*
%TD*%
%TO.C,D6*%
X125101000Y90852500D03*
X121501000Y90852500D03*
%TD*%
%TO.C,D6*%
X125101000Y49712500D03*
X121501000Y49712500D03*
%TD*%
%TO.C,D6*%
X125101000Y8572500D03*
X121501000Y8572500D03*
%TD*%
%TO.C,D6*%
X80913000Y131992500D03*
X77313000Y131992500D03*
%TD*%
%TO.C,D6*%
X80913000Y90852500D03*
X77313000Y90852500D03*
%TD*%
%TO.C,D6*%
X80913000Y49712500D03*
X77313000Y49712500D03*
%TD*%
%TO.C,D6*%
X80913000Y8572500D03*
X77313000Y8572500D03*
%TD*%
%TO.C,D6*%
X36725000Y131992500D03*
X33125000Y131992500D03*
%TD*%
%TO.C,D6*%
X36725000Y90852500D03*
X33125000Y90852500D03*
%TD*%
%TO.C,D6*%
X36725000Y49712500D03*
X33125000Y49712500D03*
%TD*%
D13*
%TO.C,D3*%
X95361000Y134970000D03*
X95361000Y137270000D03*
%TD*%
%TO.C,D3*%
X95361000Y93830000D03*
X95361000Y96130000D03*
%TD*%
%TO.C,D3*%
X95361000Y52690000D03*
X95361000Y54990000D03*
%TD*%
%TO.C,D3*%
X95361000Y11550000D03*
X95361000Y13850000D03*
%TD*%
%TO.C,D3*%
X51173000Y134970000D03*
X51173000Y137270000D03*
%TD*%
%TO.C,D3*%
X51173000Y93830000D03*
X51173000Y96130000D03*
%TD*%
%TO.C,D3*%
X51173000Y52690000D03*
X51173000Y54990000D03*
%TD*%
%TO.C,D3*%
X51173000Y11550000D03*
X51173000Y13850000D03*
%TD*%
%TO.C,D3*%
X6985000Y134970000D03*
X6985000Y137270000D03*
%TD*%
%TO.C,D3*%
X6985000Y93830000D03*
X6985000Y96130000D03*
%TD*%
%TO.C,D3*%
X6985000Y52690000D03*
X6985000Y54990000D03*
%TD*%
D14*
%TO.C,C17*%
X114728500Y136895000D03*
X114728500Y135345000D03*
%TD*%
%TO.C,C17*%
X114728500Y95755000D03*
X114728500Y94205000D03*
%TD*%
%TO.C,C17*%
X114728500Y54615000D03*
X114728500Y53065000D03*
%TD*%
%TO.C,C17*%
X114728500Y13475000D03*
X114728500Y11925000D03*
%TD*%
%TO.C,C17*%
X70540500Y136895000D03*
X70540500Y135345000D03*
%TD*%
%TO.C,C17*%
X70540500Y95755000D03*
X70540500Y94205000D03*
%TD*%
%TO.C,C17*%
X70540500Y54615000D03*
X70540500Y53065000D03*
%TD*%
%TO.C,C17*%
X70540500Y13475000D03*
X70540500Y11925000D03*
%TD*%
%TO.C,C17*%
X26352500Y136895000D03*
X26352500Y135345000D03*
%TD*%
%TO.C,C17*%
X26352500Y95755000D03*
X26352500Y94205000D03*
%TD*%
%TO.C,C17*%
X26352500Y54615000D03*
X26352500Y53065000D03*
%TD*%
D13*
%TO.C,D2*%
X97266000Y134970000D03*
X97266000Y137270000D03*
%TD*%
%TO.C,D2*%
X97266000Y93830000D03*
X97266000Y96130000D03*
%TD*%
%TO.C,D2*%
X97266000Y52690000D03*
X97266000Y54990000D03*
%TD*%
%TO.C,D2*%
X97266000Y11550000D03*
X97266000Y13850000D03*
%TD*%
%TO.C,D2*%
X53078000Y134970000D03*
X53078000Y137270000D03*
%TD*%
%TO.C,D2*%
X53078000Y93830000D03*
X53078000Y96130000D03*
%TD*%
%TO.C,D2*%
X53078000Y52690000D03*
X53078000Y54990000D03*
%TD*%
%TO.C,D2*%
X53078000Y11550000D03*
X53078000Y13850000D03*
%TD*%
%TO.C,D2*%
X8890000Y134970000D03*
X8890000Y137270000D03*
%TD*%
%TO.C,D2*%
X8890000Y93830000D03*
X8890000Y96130000D03*
%TD*%
%TO.C,D2*%
X8890000Y52690000D03*
X8890000Y54990000D03*
%TD*%
D14*
%TO.C,C14*%
X104251000Y136895000D03*
X104251000Y135345000D03*
%TD*%
%TO.C,C14*%
X104251000Y95755000D03*
X104251000Y94205000D03*
%TD*%
%TO.C,C14*%
X104251000Y54615000D03*
X104251000Y53065000D03*
%TD*%
%TO.C,C14*%
X104251000Y13475000D03*
X104251000Y11925000D03*
%TD*%
%TO.C,C14*%
X60063000Y136895000D03*
X60063000Y135345000D03*
%TD*%
%TO.C,C14*%
X60063000Y95755000D03*
X60063000Y94205000D03*
%TD*%
%TO.C,C14*%
X60063000Y54615000D03*
X60063000Y53065000D03*
%TD*%
%TO.C,C14*%
X60063000Y13475000D03*
X60063000Y11925000D03*
%TD*%
%TO.C,C14*%
X15875000Y136895000D03*
X15875000Y135345000D03*
%TD*%
%TO.C,C14*%
X15875000Y95755000D03*
X15875000Y94205000D03*
%TD*%
%TO.C,C14*%
X15875000Y54615000D03*
X15875000Y53065000D03*
%TD*%
D15*
%TO.C,U1*%
X102693600Y142790000D03*
X102693600Y143740000D03*
X102693600Y144690000D03*
X100093400Y144690000D03*
X100093500Y143740000D03*
X100093400Y142790000D03*
%TD*%
%TO.C,U1*%
X102693600Y101650000D03*
X102693600Y102600000D03*
X102693600Y103550000D03*
X100093400Y103550000D03*
X100093500Y102600000D03*
X100093400Y101650000D03*
%TD*%
%TO.C,U1*%
X102693600Y60510000D03*
X102693600Y61460000D03*
X102693600Y62410000D03*
X100093400Y62410000D03*
X100093500Y61460000D03*
X100093400Y60510000D03*
%TD*%
%TO.C,U1*%
X102693600Y19370000D03*
X102693600Y20320000D03*
X102693600Y21270000D03*
X100093400Y21270000D03*
X100093500Y20320000D03*
X100093400Y19370000D03*
%TD*%
%TO.C,U1*%
X58505600Y142790000D03*
X58505600Y143740000D03*
X58505600Y144690000D03*
X55905400Y144690000D03*
X55905500Y143740000D03*
X55905400Y142790000D03*
%TD*%
%TO.C,U1*%
X58505600Y101650000D03*
X58505600Y102600000D03*
X58505600Y103550000D03*
X55905400Y103550000D03*
X55905500Y102600000D03*
X55905400Y101650000D03*
%TD*%
%TO.C,U1*%
X58505600Y60510000D03*
X58505600Y61460000D03*
X58505600Y62410000D03*
X55905400Y62410000D03*
X55905500Y61460000D03*
X55905400Y60510000D03*
%TD*%
%TO.C,U1*%
X58505600Y19370000D03*
X58505600Y20320000D03*
X58505600Y21270000D03*
X55905400Y21270000D03*
X55905500Y20320000D03*
X55905400Y19370000D03*
%TD*%
%TO.C,U1*%
X14317600Y142790000D03*
X14317600Y143740000D03*
X14317600Y144690000D03*
X11717400Y144690000D03*
X11717500Y143740000D03*
X11717400Y142790000D03*
%TD*%
%TO.C,U1*%
X14317600Y101650000D03*
X14317600Y102600000D03*
X14317600Y103550000D03*
X11717400Y103550000D03*
X11717500Y102600000D03*
X11717400Y101650000D03*
%TD*%
%TO.C,U1*%
X14317600Y60510000D03*
X14317600Y61460000D03*
X14317600Y62410000D03*
X11717400Y62410000D03*
X11717500Y61460000D03*
X11717400Y60510000D03*
%TD*%
D16*
%TO.C,J4*%
X124316000Y143740000D03*
D17*
X125841000Y142365000D03*
X125841000Y145115000D03*
%TD*%
D16*
%TO.C,J4*%
X124316000Y102600000D03*
D17*
X125841000Y101225000D03*
X125841000Y103975000D03*
%TD*%
D16*
%TO.C,J4*%
X124316000Y61460000D03*
D17*
X125841000Y60085000D03*
X125841000Y62835000D03*
%TD*%
D16*
%TO.C,J4*%
X124316000Y20320000D03*
D17*
X125841000Y18945000D03*
X125841000Y21695000D03*
%TD*%
D16*
%TO.C,J4*%
X80128000Y143740000D03*
D17*
X81653000Y142365000D03*
X81653000Y145115000D03*
%TD*%
D16*
%TO.C,J4*%
X80128000Y102600000D03*
D17*
X81653000Y101225000D03*
X81653000Y103975000D03*
%TD*%
D16*
%TO.C,J4*%
X80128000Y61460000D03*
D17*
X81653000Y60085000D03*
X81653000Y62835000D03*
%TD*%
D16*
%TO.C,J4*%
X80128000Y20320000D03*
D17*
X81653000Y18945000D03*
X81653000Y21695000D03*
%TD*%
D16*
%TO.C,J4*%
X35940000Y143740000D03*
D17*
X37465000Y142365000D03*
X37465000Y145115000D03*
%TD*%
D16*
%TO.C,J4*%
X35940000Y102600000D03*
D17*
X37465000Y101225000D03*
X37465000Y103975000D03*
%TD*%
D16*
%TO.C,J4*%
X35940000Y61460000D03*
D17*
X37465000Y60085000D03*
X37465000Y62835000D03*
%TD*%
D18*
%TO.C,L1*%
X120126000Y142330000D03*
X120126000Y143880000D03*
%TD*%
%TO.C,L1*%
X120126000Y101190000D03*
X120126000Y102740000D03*
%TD*%
%TO.C,L1*%
X120126000Y60050000D03*
X120126000Y61600000D03*
%TD*%
%TO.C,L1*%
X120126000Y18910000D03*
X120126000Y20460000D03*
%TD*%
%TO.C,L1*%
X75938000Y142330000D03*
X75938000Y143880000D03*
%TD*%
%TO.C,L1*%
X75938000Y101190000D03*
X75938000Y102740000D03*
%TD*%
%TO.C,L1*%
X75938000Y60050000D03*
X75938000Y61600000D03*
%TD*%
%TO.C,L1*%
X75938000Y18910000D03*
X75938000Y20460000D03*
%TD*%
%TO.C,L1*%
X31750000Y142330000D03*
X31750000Y143880000D03*
%TD*%
%TO.C,L1*%
X31750000Y101190000D03*
X31750000Y102740000D03*
%TD*%
%TO.C,L1*%
X31750000Y60050000D03*
X31750000Y61600000D03*
%TD*%
D19*
%TO.C,C10*%
X100618500Y146597500D03*
X102168500Y146597500D03*
%TD*%
%TO.C,C10*%
X100618500Y105457500D03*
X102168500Y105457500D03*
%TD*%
%TO.C,C10*%
X100618500Y64317500D03*
X102168500Y64317500D03*
%TD*%
%TO.C,C10*%
X100618500Y23177500D03*
X102168500Y23177500D03*
%TD*%
%TO.C,C10*%
X56430500Y146597500D03*
X57980500Y146597500D03*
%TD*%
%TO.C,C10*%
X56430500Y105457500D03*
X57980500Y105457500D03*
%TD*%
%TO.C,C10*%
X56430500Y64317500D03*
X57980500Y64317500D03*
%TD*%
%TO.C,C10*%
X56430500Y23177500D03*
X57980500Y23177500D03*
%TD*%
%TO.C,C10*%
X12242500Y146597500D03*
X13792500Y146597500D03*
%TD*%
%TO.C,C10*%
X12242500Y105457500D03*
X13792500Y105457500D03*
%TD*%
%TO.C,C10*%
X12242500Y64317500D03*
X13792500Y64317500D03*
%TD*%
D20*
%TO.C,U4*%
X105896000Y148185000D03*
X105896000Y146915000D03*
X105896000Y145645000D03*
X105896000Y144375000D03*
X105896000Y143105000D03*
X105896000Y141835000D03*
X105896000Y140565000D03*
X105896000Y139295000D03*
X111496000Y139295000D03*
X111496000Y140565000D03*
X111496000Y141835000D03*
X111496000Y143105000D03*
X111496000Y144375000D03*
X111496000Y145645000D03*
X111496000Y146915000D03*
X111496000Y148185000D03*
%TD*%
%TO.C,U4*%
X105896000Y107045000D03*
X105896000Y105775000D03*
X105896000Y104505000D03*
X105896000Y103235000D03*
X105896000Y101965000D03*
X105896000Y100695000D03*
X105896000Y99425000D03*
X105896000Y98155000D03*
X111496000Y98155000D03*
X111496000Y99425000D03*
X111496000Y100695000D03*
X111496000Y101965000D03*
X111496000Y103235000D03*
X111496000Y104505000D03*
X111496000Y105775000D03*
X111496000Y107045000D03*
%TD*%
%TO.C,U4*%
X105896000Y65905000D03*
X105896000Y64635000D03*
X105896000Y63365000D03*
X105896000Y62095000D03*
X105896000Y60825000D03*
X105896000Y59555000D03*
X105896000Y58285000D03*
X105896000Y57015000D03*
X111496000Y57015000D03*
X111496000Y58285000D03*
X111496000Y59555000D03*
X111496000Y60825000D03*
X111496000Y62095000D03*
X111496000Y63365000D03*
X111496000Y64635000D03*
X111496000Y65905000D03*
%TD*%
%TO.C,U4*%
X105896000Y24765000D03*
X105896000Y23495000D03*
X105896000Y22225000D03*
X105896000Y20955000D03*
X105896000Y19685000D03*
X105896000Y18415000D03*
X105896000Y17145000D03*
X105896000Y15875000D03*
X111496000Y15875000D03*
X111496000Y17145000D03*
X111496000Y18415000D03*
X111496000Y19685000D03*
X111496000Y20955000D03*
X111496000Y22225000D03*
X111496000Y23495000D03*
X111496000Y24765000D03*
%TD*%
%TO.C,U4*%
X61708000Y148185000D03*
X61708000Y146915000D03*
X61708000Y145645000D03*
X61708000Y144375000D03*
X61708000Y143105000D03*
X61708000Y141835000D03*
X61708000Y140565000D03*
X61708000Y139295000D03*
X67308000Y139295000D03*
X67308000Y140565000D03*
X67308000Y141835000D03*
X67308000Y143105000D03*
X67308000Y144375000D03*
X67308000Y145645000D03*
X67308000Y146915000D03*
X67308000Y148185000D03*
%TD*%
%TO.C,U4*%
X61708000Y107045000D03*
X61708000Y105775000D03*
X61708000Y104505000D03*
X61708000Y103235000D03*
X61708000Y101965000D03*
X61708000Y100695000D03*
X61708000Y99425000D03*
X61708000Y98155000D03*
X67308000Y98155000D03*
X67308000Y99425000D03*
X67308000Y100695000D03*
X67308000Y101965000D03*
X67308000Y103235000D03*
X67308000Y104505000D03*
X67308000Y105775000D03*
X67308000Y107045000D03*
%TD*%
%TO.C,U4*%
X61708000Y65905000D03*
X61708000Y64635000D03*
X61708000Y63365000D03*
X61708000Y62095000D03*
X61708000Y60825000D03*
X61708000Y59555000D03*
X61708000Y58285000D03*
X61708000Y57015000D03*
X67308000Y57015000D03*
X67308000Y58285000D03*
X67308000Y59555000D03*
X67308000Y60825000D03*
X67308000Y62095000D03*
X67308000Y63365000D03*
X67308000Y64635000D03*
X67308000Y65905000D03*
%TD*%
%TO.C,U4*%
X61708000Y24765000D03*
X61708000Y23495000D03*
X61708000Y22225000D03*
X61708000Y20955000D03*
X61708000Y19685000D03*
X61708000Y18415000D03*
X61708000Y17145000D03*
X61708000Y15875000D03*
X67308000Y15875000D03*
X67308000Y17145000D03*
X67308000Y18415000D03*
X67308000Y19685000D03*
X67308000Y20955000D03*
X67308000Y22225000D03*
X67308000Y23495000D03*
X67308000Y24765000D03*
%TD*%
%TO.C,U4*%
X17520000Y148185000D03*
X17520000Y146915000D03*
X17520000Y145645000D03*
X17520000Y144375000D03*
X17520000Y143105000D03*
X17520000Y141835000D03*
X17520000Y140565000D03*
X17520000Y139295000D03*
X23120000Y139295000D03*
X23120000Y140565000D03*
X23120000Y141835000D03*
X23120000Y143105000D03*
X23120000Y144375000D03*
X23120000Y145645000D03*
X23120000Y146915000D03*
X23120000Y148185000D03*
%TD*%
%TO.C,U4*%
X17520000Y107045000D03*
X17520000Y105775000D03*
X17520000Y104505000D03*
X17520000Y103235000D03*
X17520000Y101965000D03*
X17520000Y100695000D03*
X17520000Y99425000D03*
X17520000Y98155000D03*
X23120000Y98155000D03*
X23120000Y99425000D03*
X23120000Y100695000D03*
X23120000Y101965000D03*
X23120000Y103235000D03*
X23120000Y104505000D03*
X23120000Y105775000D03*
X23120000Y107045000D03*
%TD*%
%TO.C,U4*%
X17520000Y65905000D03*
X17520000Y64635000D03*
X17520000Y63365000D03*
X17520000Y62095000D03*
X17520000Y60825000D03*
X17520000Y59555000D03*
X17520000Y58285000D03*
X17520000Y57015000D03*
X23120000Y57015000D03*
X23120000Y58285000D03*
X23120000Y59555000D03*
X23120000Y60825000D03*
X23120000Y62095000D03*
X23120000Y63365000D03*
X23120000Y64635000D03*
X23120000Y65905000D03*
%TD*%
D21*
%TO.C,R3*%
X102536000Y154852500D03*
X100886000Y154852500D03*
%TD*%
%TO.C,R3*%
X102536000Y113712500D03*
X100886000Y113712500D03*
%TD*%
%TO.C,R3*%
X102536000Y72572500D03*
X100886000Y72572500D03*
%TD*%
%TO.C,R3*%
X102536000Y31432500D03*
X100886000Y31432500D03*
%TD*%
%TO.C,R3*%
X58348000Y154852500D03*
X56698000Y154852500D03*
%TD*%
%TO.C,R3*%
X58348000Y113712500D03*
X56698000Y113712500D03*
%TD*%
%TO.C,R3*%
X58348000Y72572500D03*
X56698000Y72572500D03*
%TD*%
%TO.C,R3*%
X58348000Y31432500D03*
X56698000Y31432500D03*
%TD*%
%TO.C,R3*%
X14160000Y154852500D03*
X12510000Y154852500D03*
%TD*%
%TO.C,R3*%
X14160000Y113712500D03*
X12510000Y113712500D03*
%TD*%
%TO.C,R3*%
X14160000Y72572500D03*
X12510000Y72572500D03*
%TD*%
D14*
%TO.C,C7*%
X105838500Y136895000D03*
X105838500Y135345000D03*
%TD*%
%TO.C,C7*%
X105838500Y95755000D03*
X105838500Y94205000D03*
%TD*%
%TO.C,C7*%
X105838500Y54615000D03*
X105838500Y53065000D03*
%TD*%
%TO.C,C7*%
X105838500Y13475000D03*
X105838500Y11925000D03*
%TD*%
%TO.C,C7*%
X61650500Y136895000D03*
X61650500Y135345000D03*
%TD*%
%TO.C,C7*%
X61650500Y95755000D03*
X61650500Y94205000D03*
%TD*%
%TO.C,C7*%
X61650500Y54615000D03*
X61650500Y53065000D03*
%TD*%
%TO.C,C7*%
X61650500Y13475000D03*
X61650500Y11925000D03*
%TD*%
%TO.C,C7*%
X17462500Y136895000D03*
X17462500Y135345000D03*
%TD*%
%TO.C,C7*%
X17462500Y95755000D03*
X17462500Y94205000D03*
%TD*%
%TO.C,C7*%
X17462500Y54615000D03*
X17462500Y53065000D03*
%TD*%
D22*
%TO.C,R6*%
X116951000Y146702500D03*
X116951000Y140777500D03*
%TD*%
%TO.C,R6*%
X116951000Y105562500D03*
X116951000Y99637500D03*
%TD*%
%TO.C,R6*%
X116951000Y64422500D03*
X116951000Y58497500D03*
%TD*%
%TO.C,R6*%
X116951000Y23282500D03*
X116951000Y17357500D03*
%TD*%
%TO.C,R6*%
X72763000Y146702500D03*
X72763000Y140777500D03*
%TD*%
%TO.C,R6*%
X72763000Y105562500D03*
X72763000Y99637500D03*
%TD*%
%TO.C,R6*%
X72763000Y64422500D03*
X72763000Y58497500D03*
%TD*%
%TO.C,R6*%
X72763000Y23282500D03*
X72763000Y17357500D03*
%TD*%
%TO.C,R6*%
X28575000Y146702500D03*
X28575000Y140777500D03*
%TD*%
%TO.C,R6*%
X28575000Y105562500D03*
X28575000Y99637500D03*
%TD*%
%TO.C,R6*%
X28575000Y64422500D03*
X28575000Y58497500D03*
%TD*%
D23*
%TO.C,F1*%
X102293500Y140247500D03*
X100493500Y140247500D03*
%TD*%
%TO.C,F1*%
X102293500Y99107500D03*
X100493500Y99107500D03*
%TD*%
%TO.C,F1*%
X102293500Y57967500D03*
X100493500Y57967500D03*
%TD*%
%TO.C,F1*%
X102293500Y16827500D03*
X100493500Y16827500D03*
%TD*%
%TO.C,F1*%
X58105500Y140247500D03*
X56305500Y140247500D03*
%TD*%
%TO.C,F1*%
X58105500Y99107500D03*
X56305500Y99107500D03*
%TD*%
%TO.C,F1*%
X58105500Y57967500D03*
X56305500Y57967500D03*
%TD*%
%TO.C,F1*%
X58105500Y16827500D03*
X56305500Y16827500D03*
%TD*%
%TO.C,F1*%
X13917500Y140247500D03*
X12117500Y140247500D03*
%TD*%
%TO.C,F1*%
X13917500Y99107500D03*
X12117500Y99107500D03*
%TD*%
%TO.C,F1*%
X13917500Y57967500D03*
X12117500Y57967500D03*
%TD*%
D15*
%TO.C,U3*%
X107395900Y137070000D03*
X107395900Y136120000D03*
X107395900Y135170000D03*
X109996100Y135170000D03*
X109996100Y137070000D03*
%TD*%
%TO.C,U3*%
X107395900Y95930000D03*
X107395900Y94980000D03*
X107395900Y94030000D03*
X109996100Y94030000D03*
X109996100Y95930000D03*
%TD*%
%TO.C,U3*%
X107395900Y54790000D03*
X107395900Y53840000D03*
X107395900Y52890000D03*
X109996100Y52890000D03*
X109996100Y54790000D03*
%TD*%
%TO.C,U3*%
X107395900Y13650000D03*
X107395900Y12700000D03*
X107395900Y11750000D03*
X109996100Y11750000D03*
X109996100Y13650000D03*
%TD*%
%TO.C,U3*%
X63207900Y137070000D03*
X63207900Y136120000D03*
X63207900Y135170000D03*
X65808100Y135170000D03*
X65808100Y137070000D03*
%TD*%
%TO.C,U3*%
X63207900Y95930000D03*
X63207900Y94980000D03*
X63207900Y94030000D03*
X65808100Y94030000D03*
X65808100Y95930000D03*
%TD*%
%TO.C,U3*%
X63207900Y54790000D03*
X63207900Y53840000D03*
X63207900Y52890000D03*
X65808100Y52890000D03*
X65808100Y54790000D03*
%TD*%
%TO.C,U3*%
X63207900Y13650000D03*
X63207900Y12700000D03*
X63207900Y11750000D03*
X65808100Y11750000D03*
X65808100Y13650000D03*
%TD*%
%TO.C,U3*%
X19019900Y137070000D03*
X19019900Y136120000D03*
X19019900Y135170000D03*
X21620100Y135170000D03*
X21620100Y137070000D03*
%TD*%
%TO.C,U3*%
X19019900Y95930000D03*
X19019900Y94980000D03*
X19019900Y94030000D03*
X21620100Y94030000D03*
X21620100Y95930000D03*
%TD*%
%TO.C,U3*%
X19019900Y54790000D03*
X19019900Y53840000D03*
X19019900Y52890000D03*
X21620100Y52890000D03*
X21620100Y54790000D03*
%TD*%
D24*
%TO.C,R1*%
X90726000Y137707500D03*
X92376000Y137707500D03*
%TD*%
%TO.C,R1*%
X90726000Y96567500D03*
X92376000Y96567500D03*
%TD*%
%TO.C,R1*%
X90726000Y55427500D03*
X92376000Y55427500D03*
%TD*%
%TO.C,R1*%
X90726000Y14287500D03*
X92376000Y14287500D03*
%TD*%
%TO.C,R1*%
X46538000Y137707500D03*
X48188000Y137707500D03*
%TD*%
%TO.C,R1*%
X46538000Y96567500D03*
X48188000Y96567500D03*
%TD*%
%TO.C,R1*%
X46538000Y55427500D03*
X48188000Y55427500D03*
%TD*%
%TO.C,R1*%
X46538000Y14287500D03*
X48188000Y14287500D03*
%TD*%
%TO.C,R1*%
X2350000Y137707500D03*
X4000000Y137707500D03*
%TD*%
%TO.C,R1*%
X2350000Y96567500D03*
X4000000Y96567500D03*
%TD*%
%TO.C,R1*%
X2350000Y55427500D03*
X4000000Y55427500D03*
%TD*%
D25*
%TO.C,D4*%
X122031000Y142780000D03*
X122031000Y143740000D03*
%TD*%
%TO.C,D4*%
X122031000Y101640000D03*
X122031000Y102600000D03*
%TD*%
%TO.C,D4*%
X122031000Y60500000D03*
X122031000Y61460000D03*
%TD*%
%TO.C,D4*%
X122031000Y19360000D03*
X122031000Y20320000D03*
%TD*%
%TO.C,D4*%
X77843000Y142780000D03*
X77843000Y143740000D03*
%TD*%
%TO.C,D4*%
X77843000Y101640000D03*
X77843000Y102600000D03*
%TD*%
%TO.C,D4*%
X77843000Y60500000D03*
X77843000Y61460000D03*
%TD*%
%TO.C,D4*%
X77843000Y19360000D03*
X77843000Y20320000D03*
%TD*%
%TO.C,D4*%
X33655000Y142780000D03*
X33655000Y143740000D03*
%TD*%
%TO.C,D4*%
X33655000Y101640000D03*
X33655000Y102600000D03*
%TD*%
%TO.C,D4*%
X33655000Y60500000D03*
X33655000Y61460000D03*
%TD*%
D14*
%TO.C,C1*%
X122031000Y140387500D03*
X122031000Y138837500D03*
%TD*%
%TO.C,C1*%
X122031000Y99247500D03*
X122031000Y97697500D03*
%TD*%
%TO.C,C1*%
X122031000Y58107500D03*
X122031000Y56557500D03*
%TD*%
%TO.C,C1*%
X122031000Y16967500D03*
X122031000Y15417500D03*
%TD*%
%TO.C,C1*%
X77843000Y140387500D03*
X77843000Y138837500D03*
%TD*%
%TO.C,C1*%
X77843000Y99247500D03*
X77843000Y97697500D03*
%TD*%
%TO.C,C1*%
X77843000Y58107500D03*
X77843000Y56557500D03*
%TD*%
%TO.C,C1*%
X77843000Y16967500D03*
X77843000Y15417500D03*
%TD*%
%TO.C,C1*%
X33655000Y140387500D03*
X33655000Y138837500D03*
%TD*%
%TO.C,C1*%
X33655000Y99247500D03*
X33655000Y97697500D03*
%TD*%
%TO.C,C1*%
X33655000Y58107500D03*
X33655000Y56557500D03*
%TD*%
%TO.C,C15*%
X113141000Y136895000D03*
X113141000Y135345000D03*
%TD*%
%TO.C,C15*%
X113141000Y95755000D03*
X113141000Y94205000D03*
%TD*%
%TO.C,C15*%
X113141000Y54615000D03*
X113141000Y53065000D03*
%TD*%
%TO.C,C15*%
X113141000Y13475000D03*
X113141000Y11925000D03*
%TD*%
%TO.C,C15*%
X68953000Y136895000D03*
X68953000Y135345000D03*
%TD*%
%TO.C,C15*%
X68953000Y95755000D03*
X68953000Y94205000D03*
%TD*%
%TO.C,C15*%
X68953000Y54615000D03*
X68953000Y53065000D03*
%TD*%
%TO.C,C15*%
X68953000Y13475000D03*
X68953000Y11925000D03*
%TD*%
%TO.C,C15*%
X24765000Y136895000D03*
X24765000Y135345000D03*
%TD*%
%TO.C,C15*%
X24765000Y95755000D03*
X24765000Y94205000D03*
%TD*%
%TO.C,C15*%
X24765000Y54615000D03*
X24765000Y53065000D03*
%TD*%
D21*
%TO.C,R12*%
X109521000Y133897500D03*
X107871000Y133897500D03*
%TD*%
%TO.C,R12*%
X109521000Y92757500D03*
X107871000Y92757500D03*
%TD*%
%TO.C,R12*%
X109521000Y51617500D03*
X107871000Y51617500D03*
%TD*%
%TO.C,R12*%
X109521000Y10477500D03*
X107871000Y10477500D03*
%TD*%
%TO.C,R12*%
X65333000Y133897500D03*
X63683000Y133897500D03*
%TD*%
%TO.C,R12*%
X65333000Y92757500D03*
X63683000Y92757500D03*
%TD*%
%TO.C,R12*%
X65333000Y51617500D03*
X63683000Y51617500D03*
%TD*%
%TO.C,R12*%
X65333000Y10477500D03*
X63683000Y10477500D03*
%TD*%
%TO.C,R12*%
X21145000Y133897500D03*
X19495000Y133897500D03*
%TD*%
%TO.C,R12*%
X21145000Y92757500D03*
X19495000Y92757500D03*
%TD*%
%TO.C,R12*%
X21145000Y51617500D03*
X19495000Y51617500D03*
%TD*%
%TO.C,R4*%
X119363500Y136120000D03*
X117713500Y136120000D03*
%TD*%
%TO.C,R4*%
X119363500Y94980000D03*
X117713500Y94980000D03*
%TD*%
%TO.C,R4*%
X119363500Y53840000D03*
X117713500Y53840000D03*
%TD*%
%TO.C,R4*%
X119363500Y12700000D03*
X117713500Y12700000D03*
%TD*%
%TO.C,R4*%
X75175500Y136120000D03*
X73525500Y136120000D03*
%TD*%
%TO.C,R4*%
X75175500Y94980000D03*
X73525500Y94980000D03*
%TD*%
%TO.C,R4*%
X75175500Y53840000D03*
X73525500Y53840000D03*
%TD*%
%TO.C,R4*%
X75175500Y12700000D03*
X73525500Y12700000D03*
%TD*%
%TO.C,R4*%
X30987500Y136120000D03*
X29337500Y136120000D03*
%TD*%
%TO.C,R4*%
X30987500Y94980000D03*
X29337500Y94980000D03*
%TD*%
%TO.C,R4*%
X30987500Y53840000D03*
X29337500Y53840000D03*
%TD*%
D26*
%TO.C,D1*%
X122501000Y136120000D03*
X120926000Y136120000D03*
%TD*%
%TO.C,D1*%
X122501000Y94980000D03*
X120926000Y94980000D03*
%TD*%
%TO.C,D1*%
X122501000Y53840000D03*
X120926000Y53840000D03*
%TD*%
%TO.C,D1*%
X122501000Y12700000D03*
X120926000Y12700000D03*
%TD*%
%TO.C,D1*%
X78313000Y136120000D03*
X76738000Y136120000D03*
%TD*%
%TO.C,D1*%
X78313000Y94980000D03*
X76738000Y94980000D03*
%TD*%
%TO.C,D1*%
X78313000Y53840000D03*
X76738000Y53840000D03*
%TD*%
%TO.C,D1*%
X78313000Y12700000D03*
X76738000Y12700000D03*
%TD*%
%TO.C,D1*%
X34125000Y136120000D03*
X32550000Y136120000D03*
%TD*%
%TO.C,D1*%
X34125000Y94980000D03*
X32550000Y94980000D03*
%TD*%
%TO.C,D1*%
X34125000Y53840000D03*
X32550000Y53840000D03*
%TD*%
D21*
%TO.C,R5*%
X119204750Y131992500D03*
X117554750Y131992500D03*
%TD*%
%TO.C,R5*%
X119204750Y90852500D03*
X117554750Y90852500D03*
%TD*%
%TO.C,R5*%
X119204750Y49712500D03*
X117554750Y49712500D03*
%TD*%
%TO.C,R5*%
X119204750Y8572500D03*
X117554750Y8572500D03*
%TD*%
%TO.C,R5*%
X75016750Y131992500D03*
X73366750Y131992500D03*
%TD*%
%TO.C,R5*%
X75016750Y90852500D03*
X73366750Y90852500D03*
%TD*%
%TO.C,R5*%
X75016750Y49712500D03*
X73366750Y49712500D03*
%TD*%
%TO.C,R5*%
X75016750Y8572500D03*
X73366750Y8572500D03*
%TD*%
%TO.C,R5*%
X30828750Y131992500D03*
X29178750Y131992500D03*
%TD*%
%TO.C,R5*%
X30828750Y90852500D03*
X29178750Y90852500D03*
%TD*%
%TO.C,R5*%
X30828750Y49712500D03*
X29178750Y49712500D03*
%TD*%
D24*
%TO.C,R2*%
X90726000Y149772500D03*
X92376000Y149772500D03*
%TD*%
%TO.C,R2*%
X90726000Y108632500D03*
X92376000Y108632500D03*
%TD*%
%TO.C,R2*%
X90726000Y67492500D03*
X92376000Y67492500D03*
%TD*%
%TO.C,R2*%
X90726000Y26352500D03*
X92376000Y26352500D03*
%TD*%
%TO.C,R2*%
X46538000Y149772500D03*
X48188000Y149772500D03*
%TD*%
%TO.C,R2*%
X46538000Y108632500D03*
X48188000Y108632500D03*
%TD*%
%TO.C,R2*%
X46538000Y67492500D03*
X48188000Y67492500D03*
%TD*%
%TO.C,R2*%
X46538000Y26352500D03*
X48188000Y26352500D03*
%TD*%
%TO.C,R2*%
X2350000Y149772500D03*
X4000000Y149772500D03*
%TD*%
%TO.C,R2*%
X2350000Y108632500D03*
X4000000Y108632500D03*
%TD*%
%TO.C,R2*%
X2350000Y67492500D03*
X4000000Y67492500D03*
%TD*%
D13*
%TO.C,D5*%
X104251000Y133460000D03*
X104251000Y131160000D03*
%TD*%
%TO.C,D5*%
X104251000Y92320000D03*
X104251000Y90020000D03*
%TD*%
%TO.C,D5*%
X104251000Y51180000D03*
X104251000Y48880000D03*
%TD*%
%TO.C,D5*%
X104251000Y10040000D03*
X104251000Y7740000D03*
%TD*%
%TO.C,D5*%
X60063000Y133460000D03*
X60063000Y131160000D03*
%TD*%
%TO.C,D5*%
X60063000Y92320000D03*
X60063000Y90020000D03*
%TD*%
%TO.C,D5*%
X60063000Y51180000D03*
X60063000Y48880000D03*
%TD*%
%TO.C,D5*%
X60063000Y10040000D03*
X60063000Y7740000D03*
%TD*%
%TO.C,D5*%
X15875000Y133460000D03*
X15875000Y131160000D03*
%TD*%
%TO.C,D5*%
X15875000Y92320000D03*
X15875000Y90020000D03*
%TD*%
%TO.C,D5*%
X15875000Y51180000D03*
X15875000Y48880000D03*
%TD*%
D14*
%TO.C,C9*%
X102663500Y133085000D03*
X102663500Y131535000D03*
%TD*%
%TO.C,C9*%
X102663500Y91945000D03*
X102663500Y90395000D03*
%TD*%
%TO.C,C9*%
X102663500Y50805000D03*
X102663500Y49255000D03*
%TD*%
%TO.C,C9*%
X102663500Y9665000D03*
X102663500Y8115000D03*
%TD*%
%TO.C,C9*%
X58475500Y133085000D03*
X58475500Y131535000D03*
%TD*%
%TO.C,C9*%
X58475500Y91945000D03*
X58475500Y90395000D03*
%TD*%
%TO.C,C9*%
X58475500Y50805000D03*
X58475500Y49255000D03*
%TD*%
%TO.C,C9*%
X58475500Y9665000D03*
X58475500Y8115000D03*
%TD*%
%TO.C,C9*%
X14287500Y133085000D03*
X14287500Y131535000D03*
%TD*%
%TO.C,C9*%
X14287500Y91945000D03*
X14287500Y90395000D03*
%TD*%
%TO.C,C9*%
X14287500Y50805000D03*
X14287500Y49255000D03*
%TD*%
%TO.C,C2*%
X120126000Y140387500D03*
X120126000Y138837500D03*
%TD*%
%TO.C,C2*%
X120126000Y99247500D03*
X120126000Y97697500D03*
%TD*%
%TO.C,C2*%
X120126000Y58107500D03*
X120126000Y56557500D03*
%TD*%
%TO.C,C2*%
X120126000Y16967500D03*
X120126000Y15417500D03*
%TD*%
%TO.C,C2*%
X75938000Y140387500D03*
X75938000Y138837500D03*
%TD*%
%TO.C,C2*%
X75938000Y99247500D03*
X75938000Y97697500D03*
%TD*%
%TO.C,C2*%
X75938000Y58107500D03*
X75938000Y56557500D03*
%TD*%
%TO.C,C2*%
X75938000Y16967500D03*
X75938000Y15417500D03*
%TD*%
%TO.C,C2*%
X31750000Y140387500D03*
X31750000Y138837500D03*
%TD*%
%TO.C,C2*%
X31750000Y99247500D03*
X31750000Y97697500D03*
%TD*%
%TO.C,C2*%
X31750000Y58107500D03*
X31750000Y56557500D03*
%TD*%
D27*
%TO.C,J1*%
X95969750Y144990000D03*
X95969750Y143990000D03*
X95969750Y143490000D03*
X95969750Y142490000D03*
X95969750Y141990000D03*
X95969750Y142990000D03*
X95969750Y144490000D03*
X95969750Y145490000D03*
D28*
X95969750Y146965000D03*
X95969750Y140515000D03*
D29*
X91214750Y148058000D03*
D30*
X95394750Y148058000D03*
X95394750Y139422000D03*
D29*
X91214750Y139422000D03*
D28*
X95969750Y146190000D03*
X95969750Y141290000D03*
%TD*%
D27*
%TO.C,J1*%
X95969750Y103850000D03*
X95969750Y102850000D03*
X95969750Y102350000D03*
X95969750Y101350000D03*
X95969750Y100850000D03*
X95969750Y101850000D03*
X95969750Y103350000D03*
X95969750Y104350000D03*
D28*
X95969750Y105825000D03*
X95969750Y99375000D03*
D29*
X91214750Y106918000D03*
D30*
X95394750Y106918000D03*
X95394750Y98282000D03*
D29*
X91214750Y98282000D03*
D28*
X95969750Y105050000D03*
X95969750Y100150000D03*
%TD*%
D27*
%TO.C,J1*%
X95969750Y62710000D03*
X95969750Y61710000D03*
X95969750Y61210000D03*
X95969750Y60210000D03*
X95969750Y59710000D03*
X95969750Y60710000D03*
X95969750Y62210000D03*
X95969750Y63210000D03*
D28*
X95969750Y64685000D03*
X95969750Y58235000D03*
D29*
X91214750Y65778000D03*
D30*
X95394750Y65778000D03*
X95394750Y57142000D03*
D29*
X91214750Y57142000D03*
D28*
X95969750Y63910000D03*
X95969750Y59010000D03*
%TD*%
D27*
%TO.C,J1*%
X95969750Y21570000D03*
X95969750Y20570000D03*
X95969750Y20070000D03*
X95969750Y19070000D03*
X95969750Y18570000D03*
X95969750Y19570000D03*
X95969750Y21070000D03*
X95969750Y22070000D03*
D28*
X95969750Y23545000D03*
X95969750Y17095000D03*
D29*
X91214750Y24638000D03*
D30*
X95394750Y24638000D03*
X95394750Y16002000D03*
D29*
X91214750Y16002000D03*
D28*
X95969750Y22770000D03*
X95969750Y17870000D03*
%TD*%
D27*
%TO.C,J1*%
X51781750Y144990000D03*
X51781750Y143990000D03*
X51781750Y143490000D03*
X51781750Y142490000D03*
X51781750Y141990000D03*
X51781750Y142990000D03*
X51781750Y144490000D03*
X51781750Y145490000D03*
D28*
X51781750Y146965000D03*
X51781750Y140515000D03*
D29*
X47026750Y148058000D03*
D30*
X51206750Y148058000D03*
X51206750Y139422000D03*
D29*
X47026750Y139422000D03*
D28*
X51781750Y146190000D03*
X51781750Y141290000D03*
%TD*%
D27*
%TO.C,J1*%
X51781750Y103850000D03*
X51781750Y102850000D03*
X51781750Y102350000D03*
X51781750Y101350000D03*
X51781750Y100850000D03*
X51781750Y101850000D03*
X51781750Y103350000D03*
X51781750Y104350000D03*
D28*
X51781750Y105825000D03*
X51781750Y99375000D03*
D29*
X47026750Y106918000D03*
D30*
X51206750Y106918000D03*
X51206750Y98282000D03*
D29*
X47026750Y98282000D03*
D28*
X51781750Y105050000D03*
X51781750Y100150000D03*
%TD*%
D27*
%TO.C,J1*%
X51781750Y62710000D03*
X51781750Y61710000D03*
X51781750Y61210000D03*
X51781750Y60210000D03*
X51781750Y59710000D03*
X51781750Y60710000D03*
X51781750Y62210000D03*
X51781750Y63210000D03*
D28*
X51781750Y64685000D03*
X51781750Y58235000D03*
D29*
X47026750Y65778000D03*
D30*
X51206750Y65778000D03*
X51206750Y57142000D03*
D29*
X47026750Y57142000D03*
D28*
X51781750Y63910000D03*
X51781750Y59010000D03*
%TD*%
D27*
%TO.C,J1*%
X51781750Y21570000D03*
X51781750Y20570000D03*
X51781750Y20070000D03*
X51781750Y19070000D03*
X51781750Y18570000D03*
X51781750Y19570000D03*
X51781750Y21070000D03*
X51781750Y22070000D03*
D28*
X51781750Y23545000D03*
X51781750Y17095000D03*
D29*
X47026750Y24638000D03*
D30*
X51206750Y24638000D03*
X51206750Y16002000D03*
D29*
X47026750Y16002000D03*
D28*
X51781750Y22770000D03*
X51781750Y17870000D03*
%TD*%
D27*
%TO.C,J1*%
X7593750Y144990000D03*
X7593750Y143990000D03*
X7593750Y143490000D03*
X7593750Y142490000D03*
X7593750Y141990000D03*
X7593750Y142990000D03*
X7593750Y144490000D03*
X7593750Y145490000D03*
D28*
X7593750Y146965000D03*
X7593750Y140515000D03*
D29*
X2838750Y148058000D03*
D30*
X7018750Y148058000D03*
X7018750Y139422000D03*
D29*
X2838750Y139422000D03*
D28*
X7593750Y146190000D03*
X7593750Y141290000D03*
%TD*%
D27*
%TO.C,J1*%
X7593750Y103850000D03*
X7593750Y102850000D03*
X7593750Y102350000D03*
X7593750Y101350000D03*
X7593750Y100850000D03*
X7593750Y101850000D03*
X7593750Y103350000D03*
X7593750Y104350000D03*
D28*
X7593750Y105825000D03*
X7593750Y99375000D03*
D29*
X2838750Y106918000D03*
D30*
X7018750Y106918000D03*
X7018750Y98282000D03*
D29*
X2838750Y98282000D03*
D28*
X7593750Y105050000D03*
X7593750Y100150000D03*
%TD*%
D27*
%TO.C,J1*%
X7593750Y62710000D03*
X7593750Y61710000D03*
X7593750Y61210000D03*
X7593750Y60210000D03*
X7593750Y59710000D03*
X7593750Y60710000D03*
X7593750Y62210000D03*
X7593750Y63210000D03*
D28*
X7593750Y64685000D03*
X7593750Y58235000D03*
D29*
X2838750Y65778000D03*
D30*
X7018750Y65778000D03*
X7018750Y57142000D03*
D29*
X2838750Y57142000D03*
D28*
X7593750Y63910000D03*
X7593750Y59010000D03*
%TD*%
D14*
%TO.C,C16*%
X111553500Y136895000D03*
X111553500Y135345000D03*
%TD*%
%TO.C,C16*%
X111553500Y95755000D03*
X111553500Y94205000D03*
%TD*%
%TO.C,C16*%
X111553500Y54615000D03*
X111553500Y53065000D03*
%TD*%
%TO.C,C16*%
X111553500Y13475000D03*
X111553500Y11925000D03*
%TD*%
%TO.C,C16*%
X67365500Y136895000D03*
X67365500Y135345000D03*
%TD*%
%TO.C,C16*%
X67365500Y95755000D03*
X67365500Y94205000D03*
%TD*%
%TO.C,C16*%
X67365500Y54615000D03*
X67365500Y53065000D03*
%TD*%
%TO.C,C16*%
X67365500Y13475000D03*
X67365500Y11925000D03*
%TD*%
%TO.C,C16*%
X23177500Y136895000D03*
X23177500Y135345000D03*
%TD*%
%TO.C,C16*%
X23177500Y95755000D03*
X23177500Y94205000D03*
%TD*%
%TO.C,C16*%
X23177500Y54615000D03*
X23177500Y53065000D03*
%TD*%
%TO.C,C16*%
X23177500Y13475000D03*
X23177500Y11925000D03*
%TD*%
D27*
%TO.C,J1*%
X7593750Y21570000D03*
X7593750Y20570000D03*
X7593750Y20070000D03*
X7593750Y19070000D03*
X7593750Y18570000D03*
X7593750Y19570000D03*
X7593750Y21070000D03*
X7593750Y22070000D03*
D28*
X7593750Y23545000D03*
X7593750Y17095000D03*
D29*
X2838750Y24638000D03*
D30*
X7018750Y24638000D03*
X7018750Y16002000D03*
D29*
X2838750Y16002000D03*
D28*
X7593750Y22770000D03*
X7593750Y17870000D03*
%TD*%
D14*
%TO.C,C2*%
X31750000Y16967500D03*
X31750000Y15417500D03*
%TD*%
%TO.C,C9*%
X14287500Y9665000D03*
X14287500Y8115000D03*
%TD*%
D13*
%TO.C,D5*%
X15875000Y10040000D03*
X15875000Y7740000D03*
%TD*%
D24*
%TO.C,R2*%
X2350000Y26352500D03*
X4000000Y26352500D03*
%TD*%
D21*
%TO.C,R5*%
X30828750Y8572500D03*
X29178750Y8572500D03*
%TD*%
D26*
%TO.C,D1*%
X34125000Y12700000D03*
X32550000Y12700000D03*
%TD*%
D21*
%TO.C,R4*%
X30987500Y12700000D03*
X29337500Y12700000D03*
%TD*%
%TO.C,R12*%
X21145000Y10477500D03*
X19495000Y10477500D03*
%TD*%
D14*
%TO.C,C15*%
X24765000Y13475000D03*
X24765000Y11925000D03*
%TD*%
%TO.C,C1*%
X33655000Y16967500D03*
X33655000Y15417500D03*
%TD*%
D25*
%TO.C,D4*%
X33655000Y19360000D03*
X33655000Y20320000D03*
%TD*%
D24*
%TO.C,R1*%
X2350000Y14287500D03*
X4000000Y14287500D03*
%TD*%
D15*
%TO.C,U3*%
X19019900Y13650000D03*
X19019900Y12700000D03*
X19019900Y11750000D03*
X21620100Y11750000D03*
X21620100Y13650000D03*
%TD*%
D23*
%TO.C,F1*%
X13917500Y16827500D03*
X12117500Y16827500D03*
%TD*%
D22*
%TO.C,R6*%
X28575000Y23282500D03*
X28575000Y17357500D03*
%TD*%
D14*
%TO.C,C7*%
X17462500Y13475000D03*
X17462500Y11925000D03*
%TD*%
D21*
%TO.C,R3*%
X14160000Y31432500D03*
X12510000Y31432500D03*
%TD*%
D20*
%TO.C,U4*%
X17520000Y24765000D03*
X17520000Y23495000D03*
X17520000Y22225000D03*
X17520000Y20955000D03*
X17520000Y19685000D03*
X17520000Y18415000D03*
X17520000Y17145000D03*
X17520000Y15875000D03*
X23120000Y15875000D03*
X23120000Y17145000D03*
X23120000Y18415000D03*
X23120000Y19685000D03*
X23120000Y20955000D03*
X23120000Y22225000D03*
X23120000Y23495000D03*
X23120000Y24765000D03*
%TD*%
D19*
%TO.C,C10*%
X12242500Y23177500D03*
X13792500Y23177500D03*
%TD*%
D18*
%TO.C,L1*%
X31750000Y18910000D03*
X31750000Y20460000D03*
%TD*%
D16*
%TO.C,J4*%
X35940000Y20320000D03*
D17*
X37465000Y18945000D03*
X37465000Y21695000D03*
%TD*%
D15*
%TO.C,U1*%
X14317600Y19370000D03*
X14317600Y20320000D03*
X14317600Y21270000D03*
X11717400Y21270000D03*
X11717500Y20320000D03*
X11717400Y19370000D03*
%TD*%
D14*
%TO.C,C14*%
X15875000Y13475000D03*
X15875000Y11925000D03*
%TD*%
D13*
%TO.C,D2*%
X8890000Y11550000D03*
X8890000Y13850000D03*
%TD*%
D14*
%TO.C,C17*%
X26352500Y13475000D03*
X26352500Y11925000D03*
%TD*%
D13*
%TO.C,D3*%
X6985000Y11550000D03*
X6985000Y13850000D03*
%TD*%
D12*
%TO.C,D6*%
X36725000Y8572500D03*
X33125000Y8572500D03*
%TD*%
D11*
%TO.C,R7*%
X12700000Y9715000D03*
X12700000Y8065000D03*
%TD*%
M02*
